<?xml version="1.0" encoding="utf-8" standalone="no"?>
<!DOCTYPE svg PUBLIC "-//W3C//DTD SVG 1.1//EN"
  "http://www.w3.org/Graphics/SVG/1.1/DTD/svg11.dtd">
<svg xmlns:xlink="http://www.w3.org/1999/xlink" width="288pt" height="288pt" viewBox="0 0 288 288" xmlns="http://www.w3.org/2000/svg" version="1.1">
 <metadata>
  <rdf:RDF xmlns:dc="http://purl.org/dc/elements/1.1/" xmlns:cc="http://creativecommons.org/ns#" xmlns:rdf="http://www.w3.org/1999/02/22-rdf-syntax-ns#">
   <cc:Work>
    <dc:type rdf:resource="http://purl.org/dc/dcmitype/StillImage"/>
    <dc:date>2025-04-27T18:22:47.676245</dc:date>
    <dc:format>image/svg+xml</dc:format>
    <dc:creator>
     <cc:Agent>
      <dc:title>Matplotlib v3.10.1, https://matplotlib.org/</dc:title>
     </cc:Agent>
    </dc:creator>
   </cc:Work>
  </rdf:RDF>
 </metadata>
 <defs>
  <style type="text/css">*{stroke-linejoin: round; stroke-linecap: butt}</style>
 </defs>
 <g id="figure_1">
  <g id="patch_1">
   <path d="M 0 288 
L 288 288 
L 288 0 
L 0 0 
z
" style="fill: #ffffff"/>
  </g>
  <g id="patch_2">
   <path d="M 36.72 256.32 
L 258.48 256.32 
L 258.48 34.56 
L 36.72 34.56 
z
" style="fill: #ffffff"/>
  </g>
  <g id="pane3d_1">
   <g id="patch_3">
    <path d="M 53.464409 201.641091 
L 126.696804 140.256246 
L 125.678803 51.728326 
L 48.941861 107.727451 
" style="fill: #f2f2f2; opacity: 0.5; stroke: #f2f2f2; stroke-linejoin: miter"/>
   </g>
  </g>
  <g id="pane3d_2">
   <g id="patch_4">
    <path d="M 126.696804 140.256246 
L 244.208667 174.412305 
L 248.402251 82.835142 
L 125.678803 51.728326 
" style="fill: #e6e6e6; opacity: 0.5; stroke: #e6e6e6; stroke-linejoin: miter"/>
   </g>
  </g>
  <g id="pane3d_3">
   <g id="patch_5">
    <path d="M 53.464409 201.641091 
L 178.032724 242.325102 
L 244.208667 174.412305 
L 126.696804 140.256246 
" style="fill: #ececec; opacity: 0.5; stroke: #ececec; stroke-linejoin: miter"/>
   </g>
  </g>
  <g id="grid3d_1">
   <g id="Line3DCollection_1">
    <path d="M 53.464409 201.641091 
L 126.696804 140.256246 
L 125.678803 51.728326 
" style="fill: none; stroke: #b0b0b0; stroke-width: 0.8"/>
    <path d="M 83.391011 211.415119 
L 155.022952 148.489539 
L 155.21383 59.214594 
" style="fill: none; stroke: #b0b0b0; stroke-width: 0.8"/>
    <path d="M 114.106568 221.44682 
L 184.033373 156.921723 
L 185.493488 66.889605 
" style="fill: none; stroke: #b0b0b0; stroke-width: 0.8"/>
    <path d="M 145.642696 231.746519 
L 213.753165 165.560093 
L 216.546296 74.760586 
" style="fill: none; stroke: #b0b0b0; stroke-width: 0.8"/>
    <path d="M 178.032724 242.325102 
L 244.208667 174.412305 
L 248.402251 82.835142 
" style="fill: none; stroke: #b0b0b0; stroke-width: 0.8"/>
   </g>
  </g>
  <g id="grid3d_2">
   <g id="Line3DCollection_2">
    <path d="M 48.941861 107.727451 
L 53.464409 201.641091 
L 178.032724 242.325102 
" style="fill: none; stroke: #b0b0b0; stroke-width: 0.8"/>
    <path d="M 69.435461 92.772155 
L 72.967691 185.293053 
L 195.713876 224.179891 
" style="fill: none; stroke: #b0b0b0; stroke-width: 0.8"/>
    <path d="M 89.017316 78.482209 
L 91.640246 169.641348 
L 212.602956 206.84754 
" style="fill: none; stroke: #b0b0b0; stroke-width: 0.8"/>
    <path d="M 107.746947 64.814178 
L 109.534042 154.642413 
L 228.752021 190.274626 
" style="fill: none; stroke: #b0b0b0; stroke-width: 0.8"/>
    <path d="M 125.678803 51.728326 
L 126.696804 140.256246 
L 244.208667 174.412305 
" style="fill: none; stroke: #b0b0b0; stroke-width: 0.8"/>
   </g>
  </g>
  <g id="grid3d_3">
   <g id="Line3DCollection_3">
    <path d="M 244.208667 174.412305 
L 126.696804 140.256246 
L 53.464409 201.641091 
" style="fill: none; stroke: #b0b0b0; stroke-width: 0.8"/>
    <path d="M 245.018366 156.730552 
L 126.499913 123.134105 
L 52.592381 183.532868 
" style="fill: none; stroke: #b0b0b0; stroke-width: 0.8"/>
    <path d="M 245.842194 138.740252 
L 126.299751 105.727513 
L 51.704554 165.096558 
" style="fill: none; stroke: #b0b0b0; stroke-width: 0.8"/>
    <path d="M 246.680524 120.433259 
L 126.096236 88.02932 
L 50.800494 146.323163 
" style="fill: none; stroke: #b0b0b0; stroke-width: 0.8"/>
    <path d="M 247.533743 101.801135 
L 125.889282 70.032138 
L 49.879752 127.203353 
" style="fill: none; stroke: #b0b0b0; stroke-width: 0.8"/>
    <path d="M 248.402251 82.835142 
L 125.678803 51.728326 
L 48.941861 107.727451 
" style="fill: none; stroke: #b0b0b0; stroke-width: 0.8"/>
   </g>
  </g>
  <g id="axis3d_1">
   <g id="line2d_1">
    <path d="M 53.464409 201.641091 
L 178.032724 242.325102 
" style="fill: none; stroke: #000000; stroke-width: 0.8; stroke-linecap: square"/>
   </g>
   <g id="xtick_1">
    <g id="line2d_2">
     <path d="M 54.101943 201.106697 
L 52.186614 202.712164 
" style="fill: none; stroke: #000000; stroke-width: 0.8; stroke-linecap: square"/>
    </g>
    <g id="text_1">
     <!-- −1.0 -->
     <g transform="translate(33.779525 224.899338) scale(0.1 -0.1)">
      <defs>
       <path id="DejaVuSans-2212" d="M 678 2272 
L 4684 2272 
L 4684 1741 
L 678 1741 
L 678 2272 
z
" transform="scale(0.015625)"/>
       <path id="DejaVuSans-31" d="M 794 531 
L 1825 531 
L 1825 4091 
L 703 3866 
L 703 4441 
L 1819 4666 
L 2450 4666 
L 2450 531 
L 3481 531 
L 3481 0 
L 794 0 
L 794 531 
z
" transform="scale(0.015625)"/>
       <path id="DejaVuSans-2e" d="M 684 794 
L 1344 794 
L 1344 0 
L 684 0 
L 684 794 
z
" transform="scale(0.015625)"/>
       <path id="DejaVuSans-30" d="M 2034 4250 
Q 1547 4250 1301 3770 
Q 1056 3291 1056 2328 
Q 1056 1369 1301 889 
Q 1547 409 2034 409 
Q 2525 409 2770 889 
Q 3016 1369 3016 2328 
Q 3016 3291 2770 3770 
Q 2525 4250 2034 4250 
z
M 2034 4750 
Q 2819 4750 3233 4129 
Q 3647 3509 3647 2328 
Q 3647 1150 3233 529 
Q 2819 -91 2034 -91 
Q 1250 -91 836 529 
Q 422 1150 422 2328 
Q 422 3509 836 4129 
Q 1250 4750 2034 4750 
z
" transform="scale(0.015625)"/>
      </defs>
      <use xlink:href="#DejaVuSans-2212"/>
      <use xlink:href="#DejaVuSans-31" transform="translate(83.789062 0)"/>
      <use xlink:href="#DejaVuSans-2e" transform="translate(147.412109 0)"/>
      <use xlink:href="#DejaVuSans-30" transform="translate(179.199219 0)"/>
     </g>
    </g>
   </g>
   <g id="xtick_2">
    <g id="line2d_3">
     <path d="M 84.015269 210.866735 
L 82.139789 212.514263 
" style="fill: none; stroke: #000000; stroke-width: 0.8; stroke-linecap: square"/>
    </g>
    <g id="text_2">
     <!-- −0.5 -->
     <g transform="translate(63.742438 234.922076) scale(0.1 -0.1)">
      <defs>
       <path id="DejaVuSans-35" d="M 691 4666 
L 3169 4666 
L 3169 4134 
L 1269 4134 
L 1269 2991 
Q 1406 3038 1543 3061 
Q 1681 3084 1819 3084 
Q 2600 3084 3056 2656 
Q 3513 2228 3513 1497 
Q 3513 744 3044 326 
Q 2575 -91 1722 -91 
Q 1428 -91 1123 -41 
Q 819 9 494 109 
L 494 744 
Q 775 591 1075 516 
Q 1375 441 1709 441 
Q 2250 441 2565 725 
Q 2881 1009 2881 1497 
Q 2881 1984 2565 2268 
Q 2250 2553 1709 2553 
Q 1456 2553 1204 2497 
Q 953 2441 691 2322 
L 691 4666 
z
" transform="scale(0.015625)"/>
      </defs>
      <use xlink:href="#DejaVuSans-2212"/>
      <use xlink:href="#DejaVuSans-30" transform="translate(83.789062 0)"/>
      <use xlink:href="#DejaVuSans-2e" transform="translate(147.412109 0)"/>
      <use xlink:href="#DejaVuSans-35" transform="translate(179.199219 0)"/>
     </g>
    </g>
   </g>
   <g id="xtick_3">
    <g id="line2d_4">
     <path d="M 114.716625 220.883889 
L 112.883776 222.575153 
" style="fill: none; stroke: #000000; stroke-width: 0.8; stroke-linecap: square"/>
    </g>
    <g id="text_3">
     <!-- 0.0 -->
     <g transform="translate(98.688715 245.21025) scale(0.1 -0.1)">
      <use xlink:href="#DejaVuSans-30"/>
      <use xlink:href="#DejaVuSans-2e" transform="translate(63.623047 0)"/>
      <use xlink:href="#DejaVuSans-30" transform="translate(95.410156 0)"/>
     </g>
    </g>
   </g>
   <g id="xtick_4">
    <g id="line2d_5">
     <path d="M 146.237566 231.168454 
L 144.450312 232.90522 
" style="fill: none; stroke: #000000; stroke-width: 0.8; stroke-linecap: square"/>
    </g>
    <g id="text_4">
     <!-- 0.5 -->
     <g transform="translate(130.270615 255.774546) scale(0.1 -0.1)">
      <use xlink:href="#DejaVuSans-30"/>
      <use xlink:href="#DejaVuSans-2e" transform="translate(63.623047 0)"/>
      <use xlink:href="#DejaVuSans-35" transform="translate(95.410156 0)"/>
     </g>
    </g>
   </g>
   <g id="xtick_5">
    <g id="line2d_6">
     <path d="M 178.611354 241.731285 
L 176.872855 243.515414 
" style="fill: none; stroke: #000000; stroke-width: 0.8; stroke-linecap: square"/>
    </g>
    <g id="text_5">
     <!-- 1.0 -->
     <g transform="translate(162.711666 266.626232) scale(0.1 -0.1)">
      <use xlink:href="#DejaVuSans-31"/>
      <use xlink:href="#DejaVuSans-2e" transform="translate(63.623047 0)"/>
      <use xlink:href="#DejaVuSans-30" transform="translate(95.410156 0)"/>
     </g>
    </g>
   </g>
   <g id="text_6">
    <!-- X-axis -->
    <g transform="translate(82.676254 254.744849) rotate(-341.912962) scale(0.1 -0.1)">
     <defs>
      <path id="DejaVuSans-58" d="M 403 4666 
L 1081 4666 
L 2241 2931 
L 3406 4666 
L 4084 4666 
L 2584 2425 
L 4184 0 
L 3506 0 
L 2194 1984 
L 872 0 
L 191 0 
L 1856 2491 
L 403 4666 
z
" transform="scale(0.015625)"/>
      <path id="DejaVuSans-2d" d="M 313 2009 
L 1997 2009 
L 1997 1497 
L 313 1497 
L 313 2009 
z
" transform="scale(0.015625)"/>
      <path id="DejaVuSans-61" d="M 2194 1759 
Q 1497 1759 1228 1600 
Q 959 1441 959 1056 
Q 959 750 1161 570 
Q 1363 391 1709 391 
Q 2188 391 2477 730 
Q 2766 1069 2766 1631 
L 2766 1759 
L 2194 1759 
z
M 3341 1997 
L 3341 0 
L 2766 0 
L 2766 531 
Q 2569 213 2275 61 
Q 1981 -91 1556 -91 
Q 1019 -91 701 211 
Q 384 513 384 1019 
Q 384 1609 779 1909 
Q 1175 2209 1959 2209 
L 2766 2209 
L 2766 2266 
Q 2766 2663 2505 2880 
Q 2244 3097 1772 3097 
Q 1472 3097 1187 3025 
Q 903 2953 641 2809 
L 641 3341 
Q 956 3463 1253 3523 
Q 1550 3584 1831 3584 
Q 2591 3584 2966 3190 
Q 3341 2797 3341 1997 
z
" transform="scale(0.015625)"/>
      <path id="DejaVuSans-78" d="M 3513 3500 
L 2247 1797 
L 3578 0 
L 2900 0 
L 1881 1375 
L 863 0 
L 184 0 
L 1544 1831 
L 300 3500 
L 978 3500 
L 1906 2253 
L 2834 3500 
L 3513 3500 
z
" transform="scale(0.015625)"/>
      <path id="DejaVuSans-69" d="M 603 3500 
L 1178 3500 
L 1178 0 
L 603 0 
L 603 3500 
z
M 603 4863 
L 1178 4863 
L 1178 4134 
L 603 4134 
L 603 4863 
z
" transform="scale(0.015625)"/>
      <path id="DejaVuSans-73" d="M 2834 3397 
L 2834 2853 
Q 2591 2978 2328 3040 
Q 2066 3103 1784 3103 
Q 1356 3103 1142 2972 
Q 928 2841 928 2578 
Q 928 2378 1081 2264 
Q 1234 2150 1697 2047 
L 1894 2003 
Q 2506 1872 2764 1633 
Q 3022 1394 3022 966 
Q 3022 478 2636 193 
Q 2250 -91 1575 -91 
Q 1294 -91 989 -36 
Q 684 19 347 128 
L 347 722 
Q 666 556 975 473 
Q 1284 391 1588 391 
Q 1994 391 2212 530 
Q 2431 669 2431 922 
Q 2431 1156 2273 1281 
Q 2116 1406 1581 1522 
L 1381 1569 
Q 847 1681 609 1914 
Q 372 2147 372 2553 
Q 372 3047 722 3315 
Q 1072 3584 1716 3584 
Q 2034 3584 2315 3537 
Q 2597 3491 2834 3397 
z
" transform="scale(0.015625)"/>
     </defs>
     <use xlink:href="#DejaVuSans-58"/>
     <use xlink:href="#DejaVuSans-2d" transform="translate(63.505859 0)"/>
     <use xlink:href="#DejaVuSans-61" transform="translate(99.589844 0)"/>
     <use xlink:href="#DejaVuSans-78" transform="translate(160.869141 0)"/>
     <use xlink:href="#DejaVuSans-69" transform="translate(220.048828 0)"/>
     <use xlink:href="#DejaVuSans-73" transform="translate(247.832031 0)"/>
    </g>
   </g>
  </g>
  <g id="axis3d_2">
   <g id="line2d_7">
    <path d="M 244.208667 174.412305 
L 178.032724 242.325102 
" style="fill: none; stroke: #000000; stroke-width: 0.8; stroke-linecap: square"/>
   </g>
   <g id="xtick_6">
    <g id="line2d_8">
     <path d="M 176.982666 241.982153 
L 180.135573 243.011893 
" style="fill: none; stroke: #000000; stroke-width: 0.8; stroke-linecap: square"/>
    </g>
    <g id="text_7">
     <!-- −1.0 -->
     <g transform="translate(178.847133 263.432027) scale(0.1 -0.1)">
      <use xlink:href="#DejaVuSans-2212"/>
      <use xlink:href="#DejaVuSans-31" transform="translate(83.789062 0)"/>
      <use xlink:href="#DejaVuSans-2e" transform="translate(147.412109 0)"/>
      <use xlink:href="#DejaVuSans-30" transform="translate(179.199219 0)"/>
     </g>
    </g>
   </g>
   <g id="xtick_7">
    <g id="line2d_9">
     <path d="M 194.680385 223.852474 
L 197.783485 224.835557 
" style="fill: none; stroke: #000000; stroke-width: 0.8; stroke-linecap: square"/>
    </g>
    <g id="text_8">
     <!-- −0.5 -->
     <g transform="translate(196.24372 244.964274) scale(0.1 -0.1)">
      <use xlink:href="#DejaVuSans-2212"/>
      <use xlink:href="#DejaVuSans-30" transform="translate(83.789062 0)"/>
      <use xlink:href="#DejaVuSans-2e" transform="translate(147.412109 0)"/>
      <use xlink:href="#DejaVuSans-35" transform="translate(179.199219 0)"/>
     </g>
    </g>
   </g>
   <g id="xtick_8">
    <g id="line2d_10">
     <path d="M 211.585618 206.534623 
L 214.640159 207.474151 
" style="fill: none; stroke: #000000; stroke-width: 0.8; stroke-linecap: square"/>
    </g>
    <g id="text_9">
     <!-- 0.0 -->
     <g transform="translate(217.050289 227.324403) scale(0.1 -0.1)">
      <use xlink:href="#DejaVuSans-30"/>
      <use xlink:href="#DejaVuSans-2e" transform="translate(63.623047 0)"/>
      <use xlink:href="#DejaVuSans-30" transform="translate(95.410156 0)"/>
     </g>
    </g>
   </g>
   <g id="xtick_9">
    <g id="line2d_11">
     <path d="M 227.750429 189.975267 
L 230.757641 190.874072 
" style="fill: none; stroke: #000000; stroke-width: 0.8; stroke-linecap: square"/>
    </g>
    <g id="text_10">
     <!-- 0.5 -->
     <g transform="translate(232.938442 210.457964) scale(0.1 -0.1)">
      <use xlink:href="#DejaVuSans-30"/>
      <use xlink:href="#DejaVuSans-2e" transform="translate(63.623047 0)"/>
      <use xlink:href="#DejaVuSans-35" transform="translate(95.410156 0)"/>
     </g>
    </g>
   </g>
   <g id="xtick_10">
    <g id="line2d_12">
     <path d="M 243.222419 174.125642 
L 246.183509 174.986314 
" style="fill: none; stroke: #000000; stroke-width: 0.8; stroke-linecap: square"/>
    </g>
    <g id="text_11">
     <!-- 1.0 -->
     <g transform="translate(248.144912 194.315182) scale(0.1 -0.1)">
      <use xlink:href="#DejaVuSans-31"/>
      <use xlink:href="#DejaVuSans-2e" transform="translate(63.623047 0)"/>
      <use xlink:href="#DejaVuSans-30" transform="translate(95.410156 0)"/>
     </g>
    </g>
   </g>
   <g id="text_12">
    <!-- Y-axis -->
    <g transform="translate(231.588496 247.02088) rotate(-45.742112) scale(0.1 -0.1)">
     <defs>
      <path id="DejaVuSans-59" d="M -13 4666 
L 666 4666 
L 1959 2747 
L 3244 4666 
L 3922 4666 
L 2272 2222 
L 2272 0 
L 1638 0 
L 1638 2222 
L -13 4666 
z
" transform="scale(0.015625)"/>
     </defs>
     <use xlink:href="#DejaVuSans-59"/>
     <use xlink:href="#DejaVuSans-2d" transform="translate(49.208984 0)"/>
     <use xlink:href="#DejaVuSans-61" transform="translate(85.292969 0)"/>
     <use xlink:href="#DejaVuSans-78" transform="translate(146.572266 0)"/>
     <use xlink:href="#DejaVuSans-69" transform="translate(205.751953 0)"/>
     <use xlink:href="#DejaVuSans-73" transform="translate(233.535156 0)"/>
    </g>
   </g>
  </g>
  <g id="axis3d_3">
   <g id="line2d_13">
    <path d="M 244.208667 174.412305 
L 248.402251 82.835142 
" style="fill: none; stroke: #000000; stroke-width: 0.8; stroke-linecap: square"/>
   </g>
   <g id="xtick_11">
    <g id="line2d_14">
     <path d="M 243.222419 174.125642 
L 246.183509 174.986314 
" style="fill: none; stroke: #000000; stroke-width: 0.8; stroke-linecap: square"/>
    </g>
    <g id="text_13">
     <!-- 0.0 -->
     <g transform="translate(254.494808 179.407306) scale(0.1 -0.1)">
      <use xlink:href="#DejaVuSans-30"/>
      <use xlink:href="#DejaVuSans-2e" transform="translate(63.623047 0)"/>
      <use xlink:href="#DejaVuSans-30" transform="translate(95.410156 0)"/>
     </g>
    </g>
   </g>
   <g id="xtick_12">
    <g id="line2d_15">
     <path d="M 244.023267 156.448471 
L 247.010951 157.29539 
" style="fill: none; stroke: #000000; stroke-width: 0.8; stroke-linecap: square"/>
    </g>
    <g id="text_14">
     <!-- 0.2 -->
     <g transform="translate(255.458745 161.767243) scale(0.1 -0.1)">
      <defs>
       <path id="DejaVuSans-32" d="M 1228 531 
L 3431 531 
L 3431 0 
L 469 0 
L 469 531 
Q 828 903 1448 1529 
Q 2069 2156 2228 2338 
Q 2531 2678 2651 2914 
Q 2772 3150 2772 3378 
Q 2772 3750 2511 3984 
Q 2250 4219 1831 4219 
Q 1534 4219 1204 4116 
Q 875 4013 500 3803 
L 500 4441 
Q 881 4594 1212 4672 
Q 1544 4750 1819 4750 
Q 2544 4750 2975 4387 
Q 3406 4025 3406 3419 
Q 3406 3131 3298 2873 
Q 3191 2616 2906 2266 
Q 2828 2175 2409 1742 
Q 1991 1309 1228 531 
z
" transform="scale(0.015625)"/>
      </defs>
      <use xlink:href="#DejaVuSans-30"/>
      <use xlink:href="#DejaVuSans-2e" transform="translate(63.623047 0)"/>
      <use xlink:href="#DejaVuSans-32" transform="translate(95.410156 0)"/>
     </g>
    </g>
   </g>
   <g id="xtick_13">
    <g id="line2d_16">
     <path d="M 244.838085 138.462958 
L 247.852843 139.295511 
" style="fill: none; stroke: #000000; stroke-width: 0.8; stroke-linecap: square"/>
    </g>
    <g id="text_15">
     <!-- 0.4 -->
     <g transform="translate(256.439442 143.820486) scale(0.1 -0.1)">
      <defs>
       <path id="DejaVuSans-34" d="M 2419 4116 
L 825 1625 
L 2419 1625 
L 2419 4116 
z
M 2253 4666 
L 3047 4666 
L 3047 1625 
L 3713 1625 
L 3713 1100 
L 3047 1100 
L 3047 0 
L 2419 0 
L 2419 1100 
L 313 1100 
L 313 1709 
L 2253 4666 
z
" transform="scale(0.015625)"/>
      </defs>
      <use xlink:href="#DejaVuSans-30"/>
      <use xlink:href="#DejaVuSans-2e" transform="translate(63.623047 0)"/>
      <use xlink:href="#DejaVuSans-34" transform="translate(95.410156 0)"/>
     </g>
    </g>
   </g>
   <g id="xtick_14">
    <g id="line2d_17">
     <path d="M 245.66724 120.160965 
L 248.709567 120.978512 
" style="fill: none; stroke: #000000; stroke-width: 0.8; stroke-linecap: square"/>
    </g>
    <g id="text_16">
     <!-- 0.6 -->
     <g transform="translate(257.437339 125.558968) scale(0.1 -0.1)">
      <defs>
       <path id="DejaVuSans-36" d="M 2113 2584 
Q 1688 2584 1439 2293 
Q 1191 2003 1191 1497 
Q 1191 994 1439 701 
Q 1688 409 2113 409 
Q 2538 409 2786 701 
Q 3034 994 3034 1497 
Q 3034 2003 2786 2293 
Q 2538 2584 2113 2584 
z
M 3366 4563 
L 3366 3988 
Q 3128 4100 2886 4159 
Q 2644 4219 2406 4219 
Q 1781 4219 1451 3797 
Q 1122 3375 1075 2522 
Q 1259 2794 1537 2939 
Q 1816 3084 2150 3084 
Q 2853 3084 3261 2657 
Q 3669 2231 3669 1497 
Q 3669 778 3244 343 
Q 2819 -91 2113 -91 
Q 1303 -91 875 529 
Q 447 1150 447 2328 
Q 447 3434 972 4092 
Q 1497 4750 2381 4750 
Q 2619 4750 2861 4703 
Q 3103 4656 3366 4563 
z
" transform="scale(0.015625)"/>
      </defs>
      <use xlink:href="#DejaVuSans-30"/>
      <use xlink:href="#DejaVuSans-2e" transform="translate(63.623047 0)"/>
      <use xlink:href="#DejaVuSans-36" transform="translate(95.410156 0)"/>
     </g>
    </g>
   </g>
   <g id="xtick_15">
    <g id="line2d_18">
     <path d="M 246.511115 101.534063 
L 249.581519 102.335938 
" style="fill: none; stroke: #000000; stroke-width: 0.8; stroke-linecap: square"/>
    </g>
    <g id="text_17">
     <!-- 0.8 -->
     <g transform="translate(258.452893 106.974335) scale(0.1 -0.1)">
      <defs>
       <path id="DejaVuSans-38" d="M 2034 2216 
Q 1584 2216 1326 1975 
Q 1069 1734 1069 1313 
Q 1069 891 1326 650 
Q 1584 409 2034 409 
Q 2484 409 2743 651 
Q 3003 894 3003 1313 
Q 3003 1734 2745 1975 
Q 2488 2216 2034 2216 
z
M 1403 2484 
Q 997 2584 770 2862 
Q 544 3141 544 3541 
Q 544 4100 942 4425 
Q 1341 4750 2034 4750 
Q 2731 4750 3128 4425 
Q 3525 4100 3525 3541 
Q 3525 3141 3298 2862 
Q 3072 2584 2669 2484 
Q 3125 2378 3379 2068 
Q 3634 1759 3634 1313 
Q 3634 634 3220 271 
Q 2806 -91 2034 -91 
Q 1263 -91 848 271 
Q 434 634 434 1313 
Q 434 1759 690 2068 
Q 947 2378 1403 2484 
z
M 1172 3481 
Q 1172 3119 1398 2916 
Q 1625 2713 2034 2713 
Q 2441 2713 2670 2916 
Q 2900 3119 2900 3481 
Q 2900 3844 2670 4047 
Q 2441 4250 2034 4250 
Q 1625 4250 1398 4047 
Q 1172 3844 1172 3481 
z
" transform="scale(0.015625)"/>
      </defs>
      <use xlink:href="#DejaVuSans-30"/>
      <use xlink:href="#DejaVuSans-2e" transform="translate(63.623047 0)"/>
      <use xlink:href="#DejaVuSans-38" transform="translate(95.410156 0)"/>
     </g>
    </g>
   </g>
   <g id="xtick_16">
    <g id="line2d_19">
     <path d="M 247.370105 82.573523 
L 250.469108 83.35903 
" style="fill: none; stroke: #000000; stroke-width: 0.8; stroke-linecap: square"/>
    </g>
    <g id="text_18">
     <!-- 1.0 -->
     <g transform="translate(259.486576 88.057934) scale(0.1 -0.1)">
      <use xlink:href="#DejaVuSans-31"/>
      <use xlink:href="#DejaVuSans-2e" transform="translate(63.623047 0)"/>
      <use xlink:href="#DejaVuSans-30" transform="translate(95.410156 0)"/>
     </g>
    </g>
   </g>
   <g id="text_19">
    <!-- Z-axis -->
    <g transform="translate(288.644864 139.493654) rotate(-87.378092) scale(0.1 -0.1)">
     <defs>
      <path id="DejaVuSans-5a" d="M 359 4666 
L 4025 4666 
L 4025 4184 
L 1075 531 
L 4097 531 
L 4097 0 
L 288 0 
L 288 481 
L 3238 4134 
L 359 4134 
L 359 4666 
z
" transform="scale(0.015625)"/>
     </defs>
     <use xlink:href="#DejaVuSans-5a"/>
     <use xlink:href="#DejaVuSans-2d" transform="translate(66.755859 0)"/>
     <use xlink:href="#DejaVuSans-61" transform="translate(102.839844 0)"/>
     <use xlink:href="#DejaVuSans-78" transform="translate(164.119141 0)"/>
     <use xlink:href="#DejaVuSans-69" transform="translate(223.298828 0)"/>
     <use xlink:href="#DejaVuSans-73" transform="translate(251.082031 0)"/>
    </g>
   </g>
  </g>
  <g id="axes_1">
   <g id="Poly3DCollection_1">
    <path d="M 146.811193 144.367053 
L 158.129637 144.664508 
L 158.88247 137.690805 
L 146.433043 137.366923 
z
" clip-path="url(#pd1fe658a57)" style="fill: #008000; fill-opacity: 0.5"/>
    <path d="M 146.433043 137.366923 
L 158.88247 137.690805 
L 159.637378 130.219578 
L 146.053884 129.870044 
z
" clip-path="url(#pd1fe658a57)" style="fill: #008000; fill-opacity: 0.5"/>
    <path d="M 147.188603 150.875298 
L 157.378339 151.145597 
L 158.129637 144.664508 
L 146.811193 144.367053 
z
" clip-path="url(#pd1fe658a57)" style="fill: #008000; fill-opacity: 0.5"/>
    <path d="M 146.053884 129.870044 
L 159.637378 130.219578 
L 160.394902 122.2452 
L 145.673443 121.870838 
z
" clip-path="url(#pd1fe658a57)" style="fill: #008000; fill-opacity: 0.5"/>
    <path d="M 147.565544 156.895823 
L 156.62804 157.138282 
L 157.378339 151.145597 
L 147.188603 150.875298 
z
" clip-path="url(#pd1fe658a57)" style="fill: #008000; fill-opacity: 0.5"/>
    <path d="M 145.673443 121.870838 
L 160.394902 122.2452 
L 161.155589 113.761318 
L 145.291448 113.363003 
z
" clip-path="url(#pd1fe658a57)" style="fill: #008000; fill-opacity: 0.5"/>
    <path d="M 135.835258 145.840557 
L 146.811193 144.367053 
L 146.433043 137.366923 
L 134.35725 138.971613 
z
" clip-path="url(#pd1fe658a57)" style="fill: #008000; fill-opacity: 0.5"/>
    <path d="M 137.309752 152.214055 
L 147.188603 150.875298 
L 146.811193 144.367053 
L 135.835258 145.840557 
z
" clip-path="url(#pd1fe658a57)" style="fill: #008000; fill-opacity: 0.5"/>
    <path d="M 134.35725 138.971613 
L 146.433043 137.366923 
L 146.053884 129.870044 
L 132.874666 131.602123 
z
" clip-path="url(#pd1fe658a57)" style="fill: #008000; fill-opacity: 0.5"/>
    <path d="M 147.942285 162.432101 
L 155.878204 162.64608 
L 156.62804 157.138282 
L 147.565544 156.895823 
z
" clip-path="url(#pd1fe658a57)" style="fill: #008000; fill-opacity: 0.5"/>
    <path d="M 138.781789 158.096494 
L 147.565544 156.895823 
L 147.188603 150.875298 
L 137.309752 152.214055 
z
" clip-path="url(#pd1fe658a57)" style="fill: #008000; fill-opacity: 0.5"/>
    <path d="M 132.874666 131.602123 
L 146.053884 129.870044 
L 145.673443 121.870838 
L 131.386439 123.726267 
z
" clip-path="url(#pd1fe658a57)" style="fill: #008000; fill-opacity: 0.5"/>
    <path d="M 145.291448 113.363003 
L 161.155589 113.761318 
L 161.91999 104.760833 
L 144.90762 104.339496 
z
" clip-path="url(#pd1fe658a57)" style="fill: #008000; fill-opacity: 0.5"/>
    <path d="M 158.129637 144.664508 
L 168.765656 146.708183 
L 170.58733 139.916801 
L 158.88247 137.690805 
z
" clip-path="url(#pd1fe658a57)" style="fill: #008000; fill-opacity: 0.5"/>
    <path d="M 157.378339 151.145597 
L 166.948766 153.002074 
L 168.765656 146.708183 
L 158.129637 144.664508 
z
" clip-path="url(#pd1fe658a57)" style="fill: #008000; fill-opacity: 0.5"/>
    <path d="M 140.252423 163.491559 
L 147.942285 162.432101 
L 147.565544 156.895823 
L 138.781789 158.096494 
z
" clip-path="url(#pd1fe658a57)" style="fill: #008000; fill-opacity: 0.5"/>
    <path d="M 158.88247 137.690805 
L 170.58733 139.916801 
L 172.415101 132.622691 
L 159.637378 130.219578 
z
" clip-path="url(#pd1fe658a57)" style="fill: #008000; fill-opacity: 0.5"/>
    <path d="M 131.386439 123.726267 
L 145.673443 121.870838 
L 145.291448 113.363003 
L 129.891487 115.337485 
z
" clip-path="url(#pd1fe658a57)" style="fill: #008000; fill-opacity: 0.5"/>
    <path d="M 156.62804 157.138282 
L 165.135356 158.802995 
L 166.948766 153.002074 
L 157.378339 151.145597 
z
" clip-path="url(#pd1fe658a57)" style="fill: #008000; fill-opacity: 0.5"/>
    <path d="M 148.319096 167.486919 
L 155.128292 167.671819 
L 155.878204 162.64608 
L 147.942285 162.432101 
z
" clip-path="url(#pd1fe658a57)" style="fill: #008000; fill-opacity: 0.5"/>
    <path d="M 159.637378 130.219578 
L 172.415101 132.622691 
L 174.250291 124.819886 
L 160.394902 122.2452 
z
" clip-path="url(#pd1fe658a57)" style="fill: #008000; fill-opacity: 0.5"/>
    <path d="M 155.878204 162.64608 
L 163.324124 164.114758 
L 165.135356 158.802995 
L 156.62804 157.138282 
z
" clip-path="url(#pd1fe658a57)" style="fill: #008000; fill-opacity: 0.5"/>
    <path d="M 144.90762 104.339496 
L 161.91999 104.760833 
L 162.688665 95.235882 
L 144.52168 94.792511 
z
" clip-path="url(#pd1fe658a57)" style="fill: #008000; fill-opacity: 0.5"/>
    <path d="M 141.722708 168.402244 
L 148.319096 167.486919 
L 147.942285 162.432101 
L 140.252423 163.491559 
z
" clip-path="url(#pd1fe658a57)" style="fill: #008000; fill-opacity: 0.5"/>
    <path d="M 129.891487 115.337485 
L 145.291448 113.363003 
L 144.90762 104.339496 
L 128.38872 106.42846 
z
" clip-path="url(#pd1fe658a57)" style="fill: #008000; fill-opacity: 0.5"/>
    <path d="M 160.394902 122.2452 
L 174.250291 124.819886 
L 176.094237 116.501671 
L 161.155589 113.761318 
z
" clip-path="url(#pd1fe658a57)" style="fill: #008000; fill-opacity: 0.5"/>
    <path d="M 155.128292 167.671819 
L 161.513773 168.94048 
L 163.324124 164.114758 
L 155.878204 162.64608 
z
" clip-path="url(#pd1fe658a57)" style="fill: #008000; fill-opacity: 0.5"/>
    <path d="M 148.696247 172.062385 
L 154.377767 172.217646 
L 155.128292 167.671819 
L 148.319096 167.486919 
z
" clip-path="url(#pd1fe658a57)" style="fill: #008000; fill-opacity: 0.5"/>
    <path d="M 143.1937 172.830854 
L 148.696247 172.062385 
L 148.319096 167.486919 
L 141.722708 168.402244 
z
" clip-path="url(#pd1fe658a57)" style="fill: #008000; fill-opacity: 0.5"/>
    <path d="M 144.52168 94.792511 
L 162.688665 95.235882 
L 163.46218 85.177816 
L 144.133343 84.713461 
z
" clip-path="url(#pd1fe658a57)" style="fill: #008000; fill-opacity: 0.5"/>
    <path d="M 128.38872 106.42846 
L 144.90762 104.339496 
L 144.52168 94.792511 
L 126.87703 96.991098 
z
" clip-path="url(#pd1fe658a57)" style="fill: #008000; fill-opacity: 0.5"/>
    <path d="M 161.155589 113.761318 
L 176.094237 116.501671 
L 177.948294 107.660569 
L 161.91999 104.760833 
z
" clip-path="url(#pd1fe658a57)" style="fill: #008000; fill-opacity: 0.5"/>
    <path d="M 128.649776 155.048015 
L 137.309752 152.214055 
L 135.835258 145.840557 
L 126.203331 148.961816 
z
" clip-path="url(#pd1fe658a57)" style="fill: #008000; fill-opacity: 0.5"/>
    <path d="M 131.089959 160.63647 
L 138.781789 158.096494 
L 137.309752 152.214055 
L 128.649776 155.048015 
z
" clip-path="url(#pd1fe658a57)" style="fill: #008000; fill-opacity: 0.5"/>
    <path d="M 154.377767 172.217646 
L 159.703 173.282584 
L 161.513773 168.94048 
L 155.128292 167.671819 
z
" clip-path="url(#pd1fe658a57)" style="fill: #008000; fill-opacity: 0.5"/>
    <path d="M 126.203331 148.961816 
L 135.835258 145.840557 
L 134.35725 138.971613 
L 123.748853 142.373005 
z
" clip-path="url(#pd1fe658a57)" style="fill: #008000; fill-opacity: 0.5"/>
    <path d="M 133.525637 165.731331 
L 140.252423 163.491559 
L 138.781789 158.096494 
L 131.089959 160.63647 
z
" clip-path="url(#pd1fe658a57)" style="fill: #008000; fill-opacity: 0.5"/>
    <path d="M 149.074011 176.159925 
L 153.626086 176.285025 
L 154.377767 172.217646 
L 148.696247 172.062385 
z
" clip-path="url(#pd1fe658a57)" style="fill: #008000; fill-opacity: 0.5"/>
    <path d="M 123.748853 142.373005 
L 134.35725 138.971613 
L 132.874666 131.602123 
L 121.284559 135.275976 
z
" clip-path="url(#pd1fe658a57)" style="fill: #008000; fill-opacity: 0.5"/>
    <path d="M 135.958564 170.336036 
L 141.722708 168.402244 
L 140.252423 163.491559 
L 133.525637 165.731331 
z
" clip-path="url(#pd1fe658a57)" style="fill: #008000; fill-opacity: 0.5"/>
    <path d="M 144.666461 176.77901 
L 149.074011 176.159925 
L 148.696247 172.062385 
L 143.1937 172.830854 
z
" clip-path="url(#pd1fe658a57)" style="fill: #008000; fill-opacity: 0.5"/>
    <path d="M 161.91999 104.760833 
L 177.948294 107.660569 
L 179.813835 98.288312 
L 162.688665 95.235882 
z
" clip-path="url(#pd1fe658a57)" style="fill: #008000; fill-opacity: 0.5"/>
    <path d="M 126.87703 96.991098 
L 144.52168 94.792511 
L 144.133343 84.713461 
L 125.355291 87.016505 
z
" clip-path="url(#pd1fe658a57)" style="fill: #008000; fill-opacity: 0.5"/>
    <path d="M 144.133343 84.713461 
L 163.46218 85.177816 
L 164.241115 74.577173 
L 143.742321 74.092949 
z
" clip-path="url(#pd1fe658a57)" style="fill: #008000; fill-opacity: 0.5"/>
    <path d="M 165.135356 158.802995 
L 172.295075 161.745408 
L 175.014173 156.286099 
L 166.948766 153.002074 
z
" clip-path="url(#pd1fe658a57)" style="fill: #008000; fill-opacity: 0.5"/>
    <path d="M 121.284559 135.275976 
L 132.874666 131.602123 
L 131.386439 123.726267 
L 118.808646 127.664377 
z
" clip-path="url(#pd1fe658a57)" style="fill: #008000; fill-opacity: 0.5"/>
    <path d="M 153.626086 176.285025 
L 157.8905 177.142805 
L 159.703 173.282584 
L 154.377767 172.217646 
z
" clip-path="url(#pd1fe658a57)" style="fill: #008000; fill-opacity: 0.5"/>
    <path d="M 163.324124 164.114758 
L 169.582056 166.708574 
L 172.295075 161.745408 
L 165.135356 158.802995 
z
" clip-path="url(#pd1fe658a57)" style="fill: #008000; fill-opacity: 0.5"/>
    <path d="M 138.390489 174.45332 
L 143.1937 172.830854 
L 141.722708 168.402244 
L 135.958564 170.336036 
z
" clip-path="url(#pd1fe658a57)" style="fill: #008000; fill-opacity: 0.5"/>
    <path d="M 166.948766 153.002074 
L 175.014173 156.286099 
L 177.741316 150.326293 
L 168.765656 146.708183 
z
" clip-path="url(#pd1fe658a57)" style="fill: #008000; fill-opacity: 0.5"/>
    <path d="M 161.513773 168.94048 
L 166.873157 171.179235 
L 169.582056 166.708574 
L 163.324124 164.114758 
z
" clip-path="url(#pd1fe658a57)" style="fill: #008000; fill-opacity: 0.5"/>
    <path d="M 168.765656 146.708183 
L 177.741316 150.326293 
L 180.478487 143.860903 
L 170.58733 139.916801 
z
" clip-path="url(#pd1fe658a57)" style="fill: #008000; fill-opacity: 0.5"/>
    <path d="M 149.452664 179.780283 
L 152.872701 179.874741 
L 153.626086 176.285025 
L 149.074011 176.159925 
z
" clip-path="url(#pd1fe658a57)" style="fill: #008000; fill-opacity: 0.5"/>
    <path d="M 118.808646 127.664377 
L 131.386439 123.726267 
L 129.891487 115.337485 
L 116.319286 119.531089 
z
" clip-path="url(#pd1fe658a57)" style="fill: #008000; fill-opacity: 0.5"/>
    <path d="M 159.703 173.282584 
L 164.166427 175.160317 
L 166.873157 171.179235 
L 161.513773 168.94048 
z
" clip-path="url(#pd1fe658a57)" style="fill: #008000; fill-opacity: 0.5"/>
    <path d="M 140.823166 178.085222 
L 144.666461 176.77901 
L 143.1937 172.830854 
L 138.390489 174.45332 
z
" clip-path="url(#pd1fe658a57)" style="fill: #008000; fill-opacity: 0.5"/>
    <path d="M 162.688665 95.235882 
L 179.813835 98.288312 
L 181.692258 88.375822 
L 163.46218 85.177816 
z
" clip-path="url(#pd1fe658a57)" style="fill: #008000; fill-opacity: 0.5"/>
    <path d="M 170.58733 139.916801 
L 180.478487 143.860903 
L 183.227687 136.884102 
L 172.415101 132.622691 
z
" clip-path="url(#pd1fe658a57)" style="fill: #008000; fill-opacity: 0.5"/>
    <path d="M 146.142061 180.247645 
L 149.452664 179.780283 
L 149.074011 176.159925 
L 144.666461 176.77901 
z
" clip-path="url(#pd1fe658a57)" style="fill: #008000; fill-opacity: 0.5"/>
    <path d="M 125.355291 87.016505 
L 144.133343 84.713461 
L 143.742321 74.092949 
L 123.822356 76.494958 
z
" clip-path="url(#pd1fe658a57)" style="fill: #008000; fill-opacity: 0.5"/>
    <path d="M 152.872701 179.874741 
L 156.074959 180.52219 
L 157.8905 177.142805 
L 153.626086 176.285025 
z
" clip-path="url(#pd1fe658a57)" style="fill: #008000; fill-opacity: 0.5"/>
    <path d="M 143.742321 74.092949 
L 164.241115 74.577173 
L 165.026056 63.423652 
L 143.348318 62.920744 
z
" clip-path="url(#pd1fe658a57)" style="fill: #008000; fill-opacity: 0.5"/>
    <path d="M 157.8905 177.142805 
L 161.459914 178.654045 
L 164.166427 175.160317 
L 159.703 173.282584 
z
" clip-path="url(#pd1fe658a57)" style="fill: #008000; fill-opacity: 0.5"/>
    <path d="M 172.415101 132.622691 
L 183.227687 136.884102 
L 185.990943 129.389298 
L 174.250291 124.819886 
z
" clip-path="url(#pd1fe658a57)" style="fill: #008000; fill-opacity: 0.5"/>
    <path d="M 116.319286 119.531089 
L 129.891487 115.337485 
L 128.38872 106.42846 
L 113.814627 110.868201 
z
" clip-path="url(#pd1fe658a57)" style="fill: #008000; fill-opacity: 0.5"/>
    <path d="M 143.258353 181.233085 
L 146.142061 180.247645 
L 144.666461 176.77901 
L 140.823166 178.085222 
z
" clip-path="url(#pd1fe658a57)" style="fill: #008000; fill-opacity: 0.5"/>
    <path d="M 149.832484 182.923523 
L 152.11706 182.986891 
L 152.872701 179.874741 
L 149.452664 179.780283 
z
" clip-path="url(#pd1fe658a57)" style="fill: #008000; fill-opacity: 0.5"/>
    <path d="M 163.46218 85.177816 
L 181.692258 88.375822 
L 183.58499 77.913182 
L 164.241115 74.577173 
z
" clip-path="url(#pd1fe658a57)" style="fill: #008000; fill-opacity: 0.5"/>
    <path d="M 156.074959 180.52219 
L 158.751662 181.661944 
L 161.459914 178.654045 
L 157.8905 177.142805 
z
" clip-path="url(#pd1fe658a57)" style="fill: #008000; fill-opacity: 0.5"/>
    <path d="M 131.57812 173.11347 
L 135.958564 170.336036 
L 133.525637 165.731331 
L 128.402916 168.951734 
z
" clip-path="url(#pd1fe658a57)" style="fill: #008000; fill-opacity: 0.5"/>
    <path d="M 147.621579 183.237007 
L 149.832484 182.923523 
L 149.452664 179.780283 
L 146.142061 180.247645 
z
" clip-path="url(#pd1fe658a57)" style="fill: #008000; fill-opacity: 0.5"/>
    <path d="M 128.402916 168.951734 
L 133.525637 165.731331 
L 131.089959 160.63647 
L 125.220037 164.292495 
z
" clip-path="url(#pd1fe658a57)" style="fill: #008000; fill-opacity: 0.5"/>
    <path d="M 174.250291 124.819886 
L 185.990943 129.389298 
L 188.770311 121.36912 
L 176.094237 116.501671 
z
" clip-path="url(#pd1fe658a57)" style="fill: #008000; fill-opacity: 0.5"/>
    <path d="M 123.822356 76.494958 
L 143.742321 74.092949 
L 143.348318 62.920744 
L 122.277056 65.415878 
z
" clip-path="url(#pd1fe658a57)" style="fill: #008000; fill-opacity: 0.5"/>
    <path d="M 134.747951 176.781076 
L 138.390489 174.45332 
L 135.958564 170.336036 
L 131.57812 173.11347 
z
" clip-path="url(#pd1fe658a57)" style="fill: #008000; fill-opacity: 0.5"/>
    <path d="M 152.11706 182.986891 
L 154.255051 183.421096 
L 156.074959 180.52219 
L 152.872701 179.874741 
z
" clip-path="url(#pd1fe658a57)" style="fill: #008000; fill-opacity: 0.5"/>
    <path d="M 125.220037 164.292495 
L 131.089959 160.63647 
L 128.649776 155.048015 
L 122.027167 159.131652 
z
" clip-path="url(#pd1fe658a57)" style="fill: #008000; fill-opacity: 0.5"/>
    <path d="M 113.814627 110.868201 
L 128.38872 106.42846 
L 126.87703 96.991098 
L 111.29278 101.666991 
z
" clip-path="url(#pd1fe658a57)" style="fill: #008000; fill-opacity: 0.5"/>
    <path d="M 137.914701 179.957212 
L 140.823166 178.085222 
L 138.390489 174.45332 
L 134.747951 176.781076 
z
" clip-path="url(#pd1fe658a57)" style="fill: #008000; fill-opacity: 0.5"/>
    <path d="M 122.027167 159.131652 
L 128.649776 155.048015 
L 126.203331 148.961816 
L 118.821968 153.464366 
z
" clip-path="url(#pd1fe658a57)" style="fill: #008000; fill-opacity: 0.5"/>
    <path d="M 145.697821 183.897556 
L 147.621579 183.237007 
L 146.142061 180.247645 
L 143.258353 181.233085 
z
" clip-path="url(#pd1fe658a57)" style="fill: #008000; fill-opacity: 0.5"/>
    <path d="M 154.255051 183.421096 
L 156.039707 184.184839 
L 158.751662 181.661944 
L 156.074959 180.52219 
z
" clip-path="url(#pd1fe658a57)" style="fill: #008000; fill-opacity: 0.5"/>
    <path d="M 141.080661 182.643825 
L 143.258353 181.233085 
L 140.823166 178.085222 
L 137.914701 179.957212 
z
" clip-path="url(#pd1fe658a57)" style="fill: #008000; fill-opacity: 0.5"/>
    <path d="M 164.166427 175.160317 
L 167.33585 177.677913 
L 170.688704 174.184508 
L 166.873157 171.179235 
z
" clip-path="url(#pd1fe658a57)" style="fill: #008000; fill-opacity: 0.5"/>
    <path d="M 166.873157 171.179235 
L 170.688704 174.184508 
L 174.048901 170.194696 
L 169.582056 166.708574 
z
" clip-path="url(#pd1fe658a57)" style="fill: #008000; fill-opacity: 0.5"/>
    <path d="M 176.094237 116.501671 
L 188.770311 121.36912 
L 191.567881 112.815394 
L 177.948294 107.660569 
z
" clip-path="url(#pd1fe658a57)" style="fill: #008000; fill-opacity: 0.5"/>
    <path d="M 118.821968 153.464366 
L 126.203331 148.961816 
L 123.748853 142.373005 
L 115.60208 147.285049 
z
" clip-path="url(#pd1fe658a57)" style="fill: #008000; fill-opacity: 0.5"/>
    <path d="M 161.459914 178.654045 
L 163.987908 180.677812 
L 167.33585 177.677913 
L 164.166427 175.160317 
z
" clip-path="url(#pd1fe658a57)" style="fill: #008000; fill-opacity: 0.5"/>
    <path d="M 169.582056 166.708574 
L 174.048901 170.194696 
L 177.418891 165.704848 
L 172.295075 161.745408 
z
" clip-path="url(#pd1fe658a57)" style="fill: #008000; fill-opacity: 0.5"/>
    <path d="M 164.241115 74.577173 
L 183.58499 77.913182 
L 185.493488 66.889605 
L 165.026056 63.423652 
z
" clip-path="url(#pd1fe658a57)" style="fill: #008000; fill-opacity: 0.5"/>
    <path d="M 150.213753 185.589013 
L 151.358602 185.620883 
L 152.11706 182.986891 
L 149.832484 182.923523 
z
" clip-path="url(#pd1fe658a57)" style="fill: #008000; fill-opacity: 0.5"/>
    <path d="M 149.106108 185.746649 
L 150.213753 185.589013 
L 149.832484 182.923523 
L 147.621579 183.237007 
z
" clip-path="url(#pd1fe658a57)" style="fill: #008000; fill-opacity: 0.5"/>
    <path d="M 158.751662 181.661944 
L 160.642452 183.186391 
L 163.987908 180.677812 
L 161.459914 178.654045 
z
" clip-path="url(#pd1fe658a57)" style="fill: #008000; fill-opacity: 0.5"/>
    <path d="M 151.358602 185.620883 
L 152.429436 185.839187 
L 154.255051 183.421096 
L 152.11706 182.986891 
z
" clip-path="url(#pd1fe658a57)" style="fill: #008000; fill-opacity: 0.5"/>
    <path d="M 172.295075 161.745408 
L 177.418891 165.704848 
L 180.80114 160.710604 
L 175.014173 156.286099 
z
" clip-path="url(#pd1fe658a57)" style="fill: #008000; fill-opacity: 0.5"/>
    <path d="M 144.248122 184.842159 
L 145.697821 183.897556 
L 143.258353 181.233085 
L 141.080661 182.643825 
z
" clip-path="url(#pd1fe658a57)" style="fill: #008000; fill-opacity: 0.5"/>
    <path d="M 111.29278 101.666991 
L 126.87703 96.991098 
L 125.355291 87.016505 
L 108.751821 91.917897 
z
" clip-path="url(#pd1fe658a57)" style="fill: #008000; fill-opacity: 0.5"/>
    <path d="M 148.143354 186.078587 
L 149.106108 185.746649 
L 147.621579 183.237007 
L 145.697821 183.897556 
z
" clip-path="url(#pd1fe658a57)" style="fill: #008000; fill-opacity: 0.5"/>
    <path d="M 115.60208 147.285049 
L 123.748853 142.373005 
L 121.284559 135.275976 
L 112.365107 140.587343 
z
" clip-path="url(#pd1fe658a57)" style="fill: #008000; fill-opacity: 0.5"/>
    <path d="M 156.039707 184.184839 
L 157.29706 185.205127 
L 160.642452 183.186391 
L 158.751662 181.661944 
z
" clip-path="url(#pd1fe658a57)" style="fill: #008000; fill-opacity: 0.5"/>
    <path d="M 152.429436 185.839187 
L 153.322071 186.222859 
L 156.039707 184.184839 
L 154.255051 183.421096 
z
" clip-path="url(#pd1fe658a57)" style="fill: #008000; fill-opacity: 0.5"/>
    <path d="M 175.014173 156.286099 
L 180.80114 160.710604 
L 184.198143 155.206854 
L 177.741316 150.326293 
z
" clip-path="url(#pd1fe658a57)" style="fill: #008000; fill-opacity: 0.5"/>
    <path d="M 177.948294 107.660569 
L 191.567881 112.815394 
L 194.385784 103.719117 
L 179.813835 98.288312 
z
" clip-path="url(#pd1fe658a57)" style="fill: #008000; fill-opacity: 0.5"/>
    <path d="M 147.419383 186.552749 
L 148.143354 186.078587 
L 145.697821 183.897556 
L 144.248122 184.842159 
z
" clip-path="url(#pd1fe658a57)" style="fill: #008000; fill-opacity: 0.5"/>
    <path d="M 153.322071 186.222859 
L 153.949307 186.734786 
L 157.29706 185.205127 
L 156.039707 184.184839 
z
" clip-path="url(#pd1fe658a57)" style="fill: #008000; fill-opacity: 0.5"/>
    <path d="M 139.823655 184.345757 
L 141.080661 182.643825 
L 137.914701 179.957212 
L 136.228385 182.218795 
z
" clip-path="url(#pd1fe658a57)" style="fill: #008000; fill-opacity: 0.5"/>
    <path d="M 136.228385 182.218795 
L 137.914701 179.957212 
L 134.747951 176.781076 
L 132.626646 179.59726 
z
" clip-path="url(#pd1fe658a57)" style="fill: #008000; fill-opacity: 0.5"/>
    <path d="M 112.365107 140.587343 
L 121.284559 135.275976 
L 118.808646 127.664377 
L 109.108618 133.3641 
z
" clip-path="url(#pd1fe658a57)" style="fill: #008000; fill-opacity: 0.5"/>
    <path d="M 177.741316 150.326293 
L 184.198143 155.206854 
L 187.612425 149.187723 
L 180.478487 143.860903 
z
" clip-path="url(#pd1fe658a57)" style="fill: #008000; fill-opacity: 0.5"/>
    <path d="M 143.41507 185.980126 
L 144.248122 184.842159 
L 141.080661 182.643825 
L 139.823655 184.345757 
z
" clip-path="url(#pd1fe658a57)" style="fill: #008000; fill-opacity: 0.5"/>
    <path d="M 132.626646 179.59726 
L 134.747951 176.781076 
L 131.57812 173.11347 
L 129.015812 176.478449 
z
" clip-path="url(#pd1fe658a57)" style="fill: #008000; fill-opacity: 0.5"/>
    <path d="M 108.751821 91.917897 
L 125.355291 87.016505 
L 123.822356 76.494958 
L 106.189782 81.610485 
z
" clip-path="url(#pd1fe658a57)" style="fill: #008000; fill-opacity: 0.5"/>
    <path d="M 150.596757 187.775426 
L 150.596757 187.775426 
L 151.358602 185.620883 
L 150.213753 185.589013 
z
" clip-path="url(#pd1fe658a57)" style="fill: #008000; fill-opacity: 0.5"/>
    <path d="M 150.596757 187.775426 
L 150.596757 187.775426 
L 150.213753 185.589013 
L 149.106108 185.746649 
z
" clip-path="url(#pd1fe658a57)" style="fill: #008000; fill-opacity: 0.5"/>
    <path d="M 150.596757 187.775426 
L 150.596757 187.775426 
L 152.429436 185.839187 
L 151.358602 185.620883 
z
" clip-path="url(#pd1fe658a57)" style="fill: #008000; fill-opacity: 0.5"/>
    <path d="M 147.005235 187.123165 
L 147.419383 186.552749 
L 144.248122 184.842159 
L 143.41507 185.980126 
z
" clip-path="url(#pd1fe658a57)" style="fill: #008000; fill-opacity: 0.5"/>
    <path d="M 150.596757 187.775426 
L 150.596757 187.775426 
L 149.106108 185.746649 
L 148.143354 186.078587 
z
" clip-path="url(#pd1fe658a57)" style="fill: #008000; fill-opacity: 0.5"/>
    <path d="M 129.015812 176.478449 
L 131.57812 173.11347 
L 128.402916 168.951734 
L 125.393234 172.85893 
z
" clip-path="url(#pd1fe658a57)" style="fill: #008000; fill-opacity: 0.5"/>
    <path d="M 150.596757 187.775426 
L 150.596757 187.775426 
L 153.322071 186.222859 
L 152.429436 185.839187 
z
" clip-path="url(#pd1fe658a57)" style="fill: #008000; fill-opacity: 0.5"/>
    <path d="M 157.29706 185.205127 
L 157.902673 186.383749 
L 161.55922 184.950044 
L 160.642452 183.186391 
z
" clip-path="url(#pd1fe658a57)" style="fill: #008000; fill-opacity: 0.5"/>
    <path d="M 160.642452 183.186391 
L 161.55922 184.950044 
L 165.221703 183.022635 
L 163.987908 180.677812 
z
" clip-path="url(#pd1fe658a57)" style="fill: #008000; fill-opacity: 0.5"/>
    <path d="M 150.596757 187.775426 
L 150.596757 187.775426 
L 148.143354 186.078587 
L 147.419383 186.552749 
z
" clip-path="url(#pd1fe658a57)" style="fill: #008000; fill-opacity: 0.5"/>
    <path d="M 153.949307 186.734786 
L 154.249402 187.325273 
L 157.902673 186.383749 
L 157.29706 185.205127 
z
" clip-path="url(#pd1fe658a57)" style="fill: #008000; fill-opacity: 0.5"/>
    <path d="M 150.596757 187.775426 
L 150.596757 187.775426 
L 153.949307 186.734786 
L 153.322071 186.222859 
z
" clip-path="url(#pd1fe658a57)" style="fill: #008000; fill-opacity: 0.5"/>
    <path d="M 179.813835 98.288312 
L 194.385784 103.719117 
L 197.226195 94.070425 
L 181.692258 88.375822 
z
" clip-path="url(#pd1fe658a57)" style="fill: #008000; fill-opacity: 0.5"/>
    <path d="M 163.987908 180.677812 
L 165.221703 183.022635 
L 168.892795 180.599274 
L 167.33585 177.677913 
z
" clip-path="url(#pd1fe658a57)" style="fill: #008000; fill-opacity: 0.5"/>
    <path d="M 150.596757 187.775426 
L 150.596757 187.775426 
L 147.419383 186.552749 
L 147.005235 187.123165 
z
" clip-path="url(#pd1fe658a57)" style="fill: #008000; fill-opacity: 0.5"/>
    <path d="M 180.478487 143.860903 
L 187.612425 149.187723 
L 191.046552 142.646555 
L 183.227687 136.884102 
z
" clip-path="url(#pd1fe658a57)" style="fill: #008000; fill-opacity: 0.5"/>
    <path d="M 150.596757 187.775426 
L 150.596757 187.775426 
L 154.249402 187.325273 
L 153.949307 186.734786 
z
" clip-path="url(#pd1fe658a57)" style="fill: #008000; fill-opacity: 0.5"/>
    <path d="M 125.393234 172.85893 
L 128.402916 168.951734 
L 125.220037 164.292495 
L 121.756238 168.734529 
z
" clip-path="url(#pd1fe658a57)" style="fill: #008000; fill-opacity: 0.5"/>
    <path d="M 109.108618 133.3641 
L 118.808646 127.664377 
L 116.319286 119.531089 
L 105.830138 125.607362 
z
" clip-path="url(#pd1fe658a57)" style="fill: #008000; fill-opacity: 0.5"/>
    <path d="M 167.33585 177.677913 
L 168.892795 180.599274 
L 172.575188 177.676988 
L 170.688704 174.184508 
z
" clip-path="url(#pd1fe658a57)" style="fill: #008000; fill-opacity: 0.5"/>
    <path d="M 150.596757 187.775426 
L 150.596757 187.775426 
L 147.005235 187.123165 
L 146.942084 187.734305 
z
" clip-path="url(#pd1fe658a57)" style="fill: #008000; fill-opacity: 0.5"/>
    <path d="M 146.942084 187.734305 
L 147.005235 187.123165 
L 143.41507 185.980126 
L 143.282726 187.201292 
z
" clip-path="url(#pd1fe658a57)" style="fill: #008000; fill-opacity: 0.5"/>
    <path d="M 150.596757 187.775426 
L 150.596757 187.775426 
L 154.192244 187.936749 
L 154.249402 187.325273 
z
" clip-path="url(#pd1fe658a57)" style="fill: #008000; fill-opacity: 0.5"/>
    <path d="M 150.596757 187.775426 
L 150.596757 187.775426 
L 146.942084 187.734305 
L 147.236961 188.326397 
z
" clip-path="url(#pd1fe658a57)" style="fill: #008000; fill-opacity: 0.5"/>
    <path d="M 143.282726 187.201292 
L 143.41507 185.980126 
L 139.823655 184.345757 
L 139.616012 186.175053 
z
" clip-path="url(#pd1fe658a57)" style="fill: #008000; fill-opacity: 0.5"/>
    <path d="M 154.249402 187.325273 
L 154.192244 187.936749 
L 157.79432 187.606257 
L 157.902673 186.383749 
z
" clip-path="url(#pd1fe658a57)" style="fill: #008000; fill-opacity: 0.5"/>
    <path d="M 150.596757 187.775426 
L 150.596757 187.775426 
L 153.782575 188.509313 
L 154.192244 187.936749 
z
" clip-path="url(#pd1fe658a57)" style="fill: #008000; fill-opacity: 0.5"/>
    <path d="M 170.688704 174.184508 
L 172.575188 177.676988 
L 176.271602 174.252064 
L 174.048901 170.194696 
z
" clip-path="url(#pd1fe658a57)" style="fill: #008000; fill-opacity: 0.5"/>
    <path d="M 150.596757 187.775426 
L 150.596757 187.775426 
L 147.236961 188.326397 
L 147.861745 188.841256 
z
" clip-path="url(#pd1fe658a57)" style="fill: #008000; fill-opacity: 0.5"/>
    <path d="M 106.189782 81.610485 
L 123.822356 76.494958 
L 122.277056 65.415878 
L 103.604648 70.733415 
z
" clip-path="url(#pd1fe658a57)" style="fill: #008000; fill-opacity: 0.5"/>
    <path d="M 121.756238 168.734529 
L 125.220037 164.292495 
L 122.027167 159.131652 
L 118.102118 164.100316 
z
" clip-path="url(#pd1fe658a57)" style="fill: #008000; fill-opacity: 0.5"/>
    <path d="M 150.596757 187.775426 
L 150.596757 187.775426 
L 153.059857 188.986614 
L 153.782575 188.509313 
z
" clip-path="url(#pd1fe658a57)" style="fill: #008000; fill-opacity: 0.5"/>
    <path d="M 139.616012 186.175053 
L 139.823655 184.345757 
L 136.228385 182.218795 
L 135.939255 184.653531 
z
" clip-path="url(#pd1fe658a57)" style="fill: #008000; fill-opacity: 0.5"/>
    <path d="M 150.596757 187.775426 
L 150.596757 187.775426 
L 147.861745 188.841256 
L 148.755633 189.228067 
z
" clip-path="url(#pd1fe658a57)" style="fill: #008000; fill-opacity: 0.5"/>
    <path d="M 183.227687 136.884102 
L 191.046552 142.646555 
L 194.503136 135.575888 
L 185.990943 129.389298 
z
" clip-path="url(#pd1fe658a57)" style="fill: #008000; fill-opacity: 0.5"/>
    <path d="M 157.902673 186.383749 
L 157.79432 187.606257 
L 161.405623 186.782358 
L 161.55922 184.950044 
z
" clip-path="url(#pd1fe658a57)" style="fill: #008000; fill-opacity: 0.5"/>
    <path d="M 150.596757 187.775426 
L 150.596757 187.775426 
L 152.094652 189.321484 
L 153.059857 188.986614 
z
" clip-path="url(#pd1fe658a57)" style="fill: #008000; fill-opacity: 0.5"/>
    <path d="M 150.596757 187.775426 
L 150.596757 187.775426 
L 148.755633 189.228067 
L 149.830946 189.448519 
z
" clip-path="url(#pd1fe658a57)" style="fill: #008000; fill-opacity: 0.5"/>
    <path d="M 147.236961 188.326397 
L 146.942084 187.734305 
L 143.282726 187.201292 
L 143.867447 188.386332 
z
" clip-path="url(#pd1fe658a57)" style="fill: #008000; fill-opacity: 0.5"/>
    <path d="M 150.596757 187.775426 
L 150.596757 187.775426 
L 150.981788 189.480725 
L 152.094652 189.321484 
z
" clip-path="url(#pd1fe658a57)" style="fill: #008000; fill-opacity: 0.5"/>
    <path d="M 150.596757 187.775426 
L 150.596757 187.775426 
L 149.830946 189.448519 
L 150.981788 189.480725 
z
" clip-path="url(#pd1fe658a57)" style="fill: #008000; fill-opacity: 0.5"/>
    <path d="M 181.692258 88.375822 
L 197.226195 94.070425 
L 200.091342 83.858566 
L 183.58499 77.913182 
z
" clip-path="url(#pd1fe658a57)" style="fill: #008000; fill-opacity: 0.5"/>
    <path d="M 105.830138 125.607362 
L 116.319286 119.531089 
L 113.814627 110.868201 
L 102.52714 117.30833 
z
" clip-path="url(#pd1fe658a57)" style="fill: #008000; fill-opacity: 0.5"/>
    <path d="M 154.192244 187.936749 
L 153.782575 188.509313 
L 156.979195 188.752812 
L 157.79432 187.606257 
z
" clip-path="url(#pd1fe658a57)" style="fill: #008000; fill-opacity: 0.5"/>
    <path d="M 174.048901 170.194696 
L 176.271602 174.252064 
L 179.984789 170.32004 
L 177.418891 165.704848 
z
" clip-path="url(#pd1fe658a57)" style="fill: #008000; fill-opacity: 0.5"/>
    <path d="M 135.939255 184.653531 
L 136.228385 182.218795 
L 132.626646 179.59726 
L 132.24974 182.633939 
z
" clip-path="url(#pd1fe658a57)" style="fill: #008000; fill-opacity: 0.5"/>
    <path d="M 161.55922 184.950044 
L 161.405623 186.782358 
L 165.028817 185.462731 
L 165.221703 183.022635 
z
" clip-path="url(#pd1fe658a57)" style="fill: #008000; fill-opacity: 0.5"/>
    <path d="M 118.102118 164.100316 
L 122.027167 159.131652 
L 118.821968 153.464366 
L 114.428126 158.950589 
z
" clip-path="url(#pd1fe658a57)" style="fill: #008000; fill-opacity: 0.5"/>
    <path d="M 147.861745 188.841256 
L 147.236961 188.326397 
L 143.867447 188.386332 
L 145.114988 189.418344 
z
" clip-path="url(#pd1fe658a57)" style="fill: #008000; fill-opacity: 0.5"/>
    <path d="M 143.867447 188.386332 
L 143.282726 187.201292 
L 139.616012 186.175053 
L 140.485717 187.953139 
z
" clip-path="url(#pd1fe658a57)" style="fill: #008000; fill-opacity: 0.5"/>
    <path d="M 153.782575 188.509313 
L 153.059857 188.986614 
L 155.534511 189.709969 
L 156.979195 188.752812 
z
" clip-path="url(#pd1fe658a57)" style="fill: #008000; fill-opacity: 0.5"/>
    <path d="M 185.990943 129.389298 
L 194.503136 135.575888 
L 197.984837 127.967429 
L 188.770311 121.36912 
z
" clip-path="url(#pd1fe658a57)" style="fill: #008000; fill-opacity: 0.5"/>
    <path d="M 132.24974 182.633939 
L 132.626646 179.59726 
L 129.015812 176.478449 
L 128.544719 180.112749 
z
" clip-path="url(#pd1fe658a57)" style="fill: #008000; fill-opacity: 0.5"/>
    <path d="M 177.418891 165.704848 
L 179.984789 170.32004 
L 183.717541 165.875685 
L 180.80114 160.710604 
z
" clip-path="url(#pd1fe658a57)" style="fill: #008000; fill-opacity: 0.5"/>
    <path d="M 165.221703 183.022635 
L 165.028817 185.462731 
L 168.666598 183.644321 
L 168.892795 180.599274 
z
" clip-path="url(#pd1fe658a57)" style="fill: #008000; fill-opacity: 0.5"/>
    <path d="M 157.79432 187.606257 
L 156.979195 188.752812 
L 160.189002 188.503604 
L 161.405623 186.782358 
z
" clip-path="url(#pd1fe658a57)" style="fill: #008000; fill-opacity: 0.5"/>
    <path d="M 148.755633 189.228067 
L 147.861745 188.841256 
L 145.114988 189.418344 
L 146.904659 190.194642 
z
" clip-path="url(#pd1fe658a57)" style="fill: #008000; fill-opacity: 0.5"/>
    <path d="M 114.428126 158.950589 
L 118.821968 153.464366 
L 115.60208 147.285049 
L 110.731466 153.278853 
z
" clip-path="url(#pd1fe658a57)" style="fill: #008000; fill-opacity: 0.5"/>
    <path d="M 102.52714 117.30833 
L 113.814627 110.868201 
L 111.29278 101.666991 
L 99.197042 108.457339 
z
" clip-path="url(#pd1fe658a57)" style="fill: #008000; fill-opacity: 0.5"/>
    <path d="M 153.059857 188.986614 
L 152.094652 189.321484 
L 153.600941 190.382244 
L 155.534511 189.709969 
z
" clip-path="url(#pd1fe658a57)" style="fill: #008000; fill-opacity: 0.5"/>
    <path d="M 183.58499 77.913182 
L 200.091342 83.858566 
L 202.98351 73.07186 
L 185.493488 66.889605 
z
" clip-path="url(#pd1fe658a57)" style="fill: #008000; fill-opacity: 0.5"/>
    <path d="M 140.485717 187.953139 
L 139.616012 186.175053 
L 135.939255 184.653531 
L 137.08924 187.023995 
z
" clip-path="url(#pd1fe658a57)" style="fill: #008000; fill-opacity: 0.5"/>
    <path d="M 149.830946 189.448519 
L 148.755633 189.228067 
L 146.904659 190.194642 
L 149.060577 190.637436 
z
" clip-path="url(#pd1fe658a57)" style="fill: #008000; fill-opacity: 0.5"/>
    <path d="M 152.094652 189.321484 
L 150.981788 189.480725 
L 151.369145 190.702146 
L 153.600941 190.382244 
z
" clip-path="url(#pd1fe658a57)" style="fill: #008000; fill-opacity: 0.5"/>
    <path d="M 150.981788 189.480725 
L 149.830946 189.448519 
L 149.060577 190.637436 
L 151.369145 190.702146 
z
" clip-path="url(#pd1fe658a57)" style="fill: #008000; fill-opacity: 0.5"/>
    <path d="M 128.544719 180.112749 
L 129.015812 176.478449 
L 125.393234 172.85893 
L 124.821408 177.085677 
z
" clip-path="url(#pd1fe658a57)" style="fill: #008000; fill-opacity: 0.5"/>
    <path d="M 145.114988 189.418344 
L 143.867447 188.386332 
L 140.485717 187.953139 
L 142.354402 189.503956 
z
" clip-path="url(#pd1fe658a57)" style="fill: #008000; fill-opacity: 0.5"/>
    <path d="M 168.892795 180.599274 
L 168.666598 183.644321 
L 172.321699 181.323325 
L 172.575188 177.676988 
z
" clip-path="url(#pd1fe658a57)" style="fill: #008000; fill-opacity: 0.5"/>
    <path d="M 180.80114 160.710604 
L 183.717541 165.875685 
L 187.4727 160.912982 
L 184.198143 155.206854 
z
" clip-path="url(#pd1fe658a57)" style="fill: #008000; fill-opacity: 0.5"/>
    <path d="M 188.770311 121.36912 
L 197.984837 127.967429 
L 201.494379 119.812028 
L 191.567881 112.815394 
z
" clip-path="url(#pd1fe658a57)" style="fill: #008000; fill-opacity: 0.5"/>
    <path d="M 161.405623 186.782358 
L 160.189002 188.503604 
L 163.414421 187.758629 
L 165.028817 185.462731 
z
" clip-path="url(#pd1fe658a57)" style="fill: #008000; fill-opacity: 0.5"/>
    <path d="M 156.979195 188.752812 
L 155.534511 189.709969 
L 158.02261 189.942579 
L 160.189002 188.503604 
z
" clip-path="url(#pd1fe658a57)" style="fill: #008000; fill-opacity: 0.5"/>
    <path d="M 110.731466 153.278853 
L 115.60208 147.285049 
L 112.365107 140.587343 
L 107.009291 147.077799 
z
" clip-path="url(#pd1fe658a57)" style="fill: #008000; fill-opacity: 0.5"/>
    <path d="M 137.08924 187.023995 
L 135.939255 184.653531 
L 132.24974 182.633939 
L 133.675442 185.59533 
z
" clip-path="url(#pd1fe658a57)" style="fill: #008000; fill-opacity: 0.5"/>
    <path d="M 99.197042 108.457339 
L 111.29278 101.666991 
L 108.751821 91.917897 
L 95.837197 99.043822 
z
" clip-path="url(#pd1fe658a57)" style="fill: #008000; fill-opacity: 0.5"/>
    <path d="M 124.821408 177.085677 
L 125.393234 172.85893 
L 121.756238 168.734529 
L 121.076974 173.54767 
z
" clip-path="url(#pd1fe658a57)" style="fill: #008000; fill-opacity: 0.5"/>
    <path d="M 146.904659 190.194642 
L 145.114988 189.418344 
L 142.354402 189.503956 
L 145.042403 190.671946 
z
" clip-path="url(#pd1fe658a57)" style="fill: #008000; fill-opacity: 0.5"/>
    <path d="M 172.575188 177.676988 
L 172.321699 181.323325 
L 175.996897 178.495175 
L 176.271602 174.252064 
z
" clip-path="url(#pd1fe658a57)" style="fill: #008000; fill-opacity: 0.5"/>
    <path d="M 184.198143 155.206854 
L 187.4727 160.912982 
L 191.253159 155.42511 
L 187.612425 149.187723 
z
" clip-path="url(#pd1fe658a57)" style="fill: #008000; fill-opacity: 0.5"/>
    <path d="M 155.534511 189.709969 
L 153.600941 190.382244 
L 155.116799 190.95439 
L 158.02261 189.942579 
z
" clip-path="url(#pd1fe658a57)" style="fill: #008000; fill-opacity: 0.5"/>
    <path d="M 142.354402 189.503956 
L 140.485717 187.953139 
L 137.08924 187.023995 
L 139.577867 189.094612 
z
" clip-path="url(#pd1fe658a57)" style="fill: #008000; fill-opacity: 0.5"/>
    <path d="M 165.028817 185.462731 
L 163.414421 187.758629 
L 166.657917 186.514077 
L 168.666598 183.644321 
z
" clip-path="url(#pd1fe658a57)" style="fill: #008000; fill-opacity: 0.5"/>
    <path d="M 149.060577 190.637436 
L 146.904659 190.194642 
L 145.042403 190.671946 
L 148.285046 191.338711 
z
" clip-path="url(#pd1fe658a57)" style="fill: #008000; fill-opacity: 0.5"/>
    <path d="M 191.567881 112.815394 
L 201.494379 119.812028 
L 205.034549 111.099643 
L 194.385784 103.719117 
z
" clip-path="url(#pd1fe658a57)" style="fill: #008000; fill-opacity: 0.5"/>
    <path d="M 153.600941 190.382244 
L 151.369145 190.702146 
L 151.759132 191.436186 
L 155.116799 190.95439 
z
" clip-path="url(#pd1fe658a57)" style="fill: #008000; fill-opacity: 0.5"/>
    <path d="M 107.009291 147.077799 
L 112.365107 140.587343 
L 109.108618 133.3641 
L 103.258689 140.339276 
z
" clip-path="url(#pd1fe658a57)" style="fill: #008000; fill-opacity: 0.5"/>
    <path d="M 160.189002 188.503604 
L 158.02261 189.942579 
L 160.526082 189.680783 
L 163.414421 187.758629 
z
" clip-path="url(#pd1fe658a57)" style="fill: #008000; fill-opacity: 0.5"/>
    <path d="M 151.369145 190.702146 
L 149.060577 190.637436 
L 148.285046 191.338711 
L 151.759132 191.436186 
z
" clip-path="url(#pd1fe658a57)" style="fill: #008000; fill-opacity: 0.5"/>
    <path d="M 133.675442 185.59533 
L 132.24974 182.633939 
L 128.544719 180.112749 
L 130.241707 183.662811 
z
" clip-path="url(#pd1fe658a57)" style="fill: #008000; fill-opacity: 0.5"/>
    <path d="M 121.076974 173.54767 
L 121.756238 168.734529 
L 118.102118 164.100316 
L 117.308532 169.49288 
z
" clip-path="url(#pd1fe658a57)" style="fill: #008000; fill-opacity: 0.5"/>
    <path d="M 176.271602 174.252064 
L 175.996897 178.495175 
L 179.695022 175.154521 
L 179.984789 170.32004 
z
" clip-path="url(#pd1fe658a57)" style="fill: #008000; fill-opacity: 0.5"/>
    <path d="M 95.837197 99.043822 
L 108.751821 91.917897 
L 106.189782 81.610485 
L 92.444887 89.056274 
z
" clip-path="url(#pd1fe658a57)" style="fill: #008000; fill-opacity: 0.5"/>
    <path d="M 187.612425 149.187723 
L 191.253159 155.42511 
L 195.061876 149.40441 
L 191.046552 142.646555 
z
" clip-path="url(#pd1fe658a57)" style="fill: #008000; fill-opacity: 0.5"/>
    <path d="M 145.042403 190.671946 
L 142.354402 189.503956 
L 139.577867 189.094612 
L 143.167397 190.656019 
z
" clip-path="url(#pd1fe658a57)" style="fill: #008000; fill-opacity: 0.5"/>
    <path d="M 168.666598 183.644321 
L 166.657917 186.514077 
L 169.922008 184.765368 
L 172.321699 181.323325 
z
" clip-path="url(#pd1fe658a57)" style="fill: #008000; fill-opacity: 0.5"/>
    <path d="M 139.577867 189.094612 
L 137.08924 187.023995 
L 133.675442 185.59533 
L 136.783215 188.186071 
z
" clip-path="url(#pd1fe658a57)" style="fill: #008000; fill-opacity: 0.5"/>
    <path d="M 158.02261 189.942579 
L 155.116799 190.95439 
L 156.643427 191.03385 
L 160.526082 189.680783 
z
" clip-path="url(#pd1fe658a57)" style="fill: #008000; fill-opacity: 0.5"/>
    <path d="M 103.258689 140.339276 
L 109.108618 133.3641 
L 105.830138 125.607362 
L 99.47668 133.054264 
z
" clip-path="url(#pd1fe658a57)" style="fill: #008000; fill-opacity: 0.5"/>
    <path d="M 194.385784 103.719117 
L 205.034549 111.099643 
L 208.608209 101.819307 
L 197.226195 94.070425 
z
" clip-path="url(#pd1fe658a57)" style="fill: #008000; fill-opacity: 0.5"/>
    <path d="M 130.241707 183.662811 
L 128.544719 180.112749 
L 124.821408 177.085677 
L 126.78536 181.221324 
z
" clip-path="url(#pd1fe658a57)" style="fill: #008000; fill-opacity: 0.5"/>
    <path d="M 117.308532 169.49288 
L 118.102118 164.100316 
L 114.428126 158.950589 
L 113.513134 164.914647 
z
" clip-path="url(#pd1fe658a57)" style="fill: #008000; fill-opacity: 0.5"/>
    <path d="M 163.414421 187.758629 
L 160.526082 189.680783 
L 163.0469 188.920153 
L 166.657917 186.514077 
z
" clip-path="url(#pd1fe658a57)" style="fill: #008000; fill-opacity: 0.5"/>
    <path d="M 179.984789 170.32004 
L 179.695022 175.154521 
L 183.418965 171.295211 
L 183.717541 165.875685 
z
" clip-path="url(#pd1fe658a57)" style="fill: #008000; fill-opacity: 0.5"/>
    <path d="M 148.285046 191.338711 
L 145.042403 190.671946 
L 143.167397 190.656019 
L 147.503733 191.548119 
z
" clip-path="url(#pd1fe658a57)" style="fill: #008000; fill-opacity: 0.5"/>
    <path d="M 155.116799 190.95439 
L 151.759132 191.436186 
L 152.152061 191.678581 
L 156.643427 191.03385 
z
" clip-path="url(#pd1fe658a57)" style="fill: #008000; fill-opacity: 0.5"/>
    <path d="M 191.046552 142.646555 
L 195.061876 149.40441 
L 198.901879 142.842367 
L 194.503136 135.575888 
z
" clip-path="url(#pd1fe658a57)" style="fill: #008000; fill-opacity: 0.5"/>
    <path d="M 151.759132 191.436186 
L 148.285046 191.338711 
L 147.503733 191.548119 
L 152.152061 191.678581 
z
" clip-path="url(#pd1fe658a57)" style="fill: #008000; fill-opacity: 0.5"/>
    <path d="M 92.444887 89.056274 
L 106.189782 81.610485 
L 103.604648 70.733415 
L 89.017316 78.482209 
z
" clip-path="url(#pd1fe658a57)" style="fill: #008000; fill-opacity: 0.5"/>
    <path d="M 172.321699 181.323325 
L 169.922008 184.765368 
L 173.209265 182.507132 
L 175.996897 178.495175 
z
" clip-path="url(#pd1fe658a57)" style="fill: #008000; fill-opacity: 0.5"/>
    <path d="M 136.783215 188.186071 
L 133.675442 185.59533 
L 130.241707 183.662811 
L 133.96823 186.773307 
z
" clip-path="url(#pd1fe658a57)" style="fill: #008000; fill-opacity: 0.5"/>
    <path d="M 143.167397 190.656019 
L 139.577867 189.094612 
L 136.783215 188.186071 
L 141.27814 190.142129 
z
" clip-path="url(#pd1fe658a57)" style="fill: #008000; fill-opacity: 0.5"/>
    <path d="M 99.47668 133.054264 
L 105.830138 125.607362 
L 102.52714 117.30833 
L 95.660204 125.212836 
z
" clip-path="url(#pd1fe658a57)" style="fill: #008000; fill-opacity: 0.5"/>
    <path d="M 126.78536 181.221324 
L 124.821408 177.085677 
L 121.076974 173.54767 
L 123.303669 178.26495 
z
" clip-path="url(#pd1fe658a57)" style="fill: #008000; fill-opacity: 0.5"/>
    <path d="M 113.513134 164.914647 
L 114.428126 158.950589 
L 110.731466 153.278853 
L 109.687764 159.805472 
z
" clip-path="url(#pd1fe658a57)" style="fill: #008000; fill-opacity: 0.5"/>
    <path d="M 197.226195 94.070425 
L 208.608209 101.819307 
L 212.218304 91.959086 
L 200.091342 83.858566 
z
" clip-path="url(#pd1fe658a57)" style="fill: #008000; fill-opacity: 0.5"/>
    <path d="M 183.717541 165.875685 
L 183.418965 171.295211 
L 187.171681 166.910261 
L 187.4727 160.912982 
z
" clip-path="url(#pd1fe658a57)" style="fill: #008000; fill-opacity: 0.5"/>
    <path d="M 160.526082 189.680783 
L 156.643427 191.03385 
L 158.182056 190.615773 
L 163.0469 188.920153 
z
" clip-path="url(#pd1fe658a57)" style="fill: #008000; fill-opacity: 0.5"/>
    <path d="M 166.657917 186.514077 
L 163.0469 188.920153 
L 165.587086 187.655471 
L 169.922008 184.765368 
z
" clip-path="url(#pd1fe658a57)" style="fill: #008000; fill-opacity: 0.5"/>
    <path d="M 194.503136 135.575888 
L 198.901879 142.842367 
L 202.776273 135.729571 
L 197.984837 127.967429 
z
" clip-path="url(#pd1fe658a57)" style="fill: #008000; fill-opacity: 0.5"/>
    <path d="M 147.503733 191.548119 
L 143.167397 190.656019 
L 141.27814 190.142129 
L 146.715999 191.260653 
z
" clip-path="url(#pd1fe658a57)" style="fill: #008000; fill-opacity: 0.5"/>
    <path d="M 156.643427 191.03385 
L 152.152061 191.678581 
L 152.548255 191.424285 
L 158.182056 190.615773 
z
" clip-path="url(#pd1fe658a57)" style="fill: #008000; fill-opacity: 0.5"/>
    <path d="M 175.996897 178.495175 
L 173.209265 182.507132 
L 176.522325 179.733185 
L 179.695022 175.154521 
z
" clip-path="url(#pd1fe658a57)" style="fill: #008000; fill-opacity: 0.5"/>
    <path d="M 152.152061 191.678581 
L 147.503733 191.548119 
L 146.715999 191.260653 
L 152.548255 191.424285 
z
" clip-path="url(#pd1fe658a57)" style="fill: #008000; fill-opacity: 0.5"/>
    <path d="M 133.96823 186.773307 
L 130.241707 183.662811 
L 126.78536 181.221324 
L 131.130636 184.85049 
z
" clip-path="url(#pd1fe658a57)" style="fill: #008000; fill-opacity: 0.5"/>
    <path d="M 109.687764 159.805472 
L 110.731466 153.278853 
L 107.009291 147.077799 
L 105.829329 154.156984 
z
" clip-path="url(#pd1fe658a57)" style="fill: #008000; fill-opacity: 0.5"/>
    <path d="M 123.303669 178.26495 
L 121.076974 173.54767 
L 117.308532 169.49288 
L 119.793832 174.786943 
z
" clip-path="url(#pd1fe658a57)" style="fill: #008000; fill-opacity: 0.5"/>
    <path d="M 95.660204 125.212836 
L 102.52714 117.30833 
L 99.197042 108.457339 
L 91.806118 116.804127 
z
" clip-path="url(#pd1fe658a57)" style="fill: #008000; fill-opacity: 0.5"/>
    <path d="M 187.4727 160.912982 
L 187.171681 166.910261 
L 190.956203 161.991832 
L 191.253159 155.42511 
z
" clip-path="url(#pd1fe658a57)" style="fill: #008000; fill-opacity: 0.5"/>
    <path d="M 141.27814 190.142129 
L 136.783215 188.186071 
L 133.96823 186.773307 
L 139.373087 189.124741 
z
" clip-path="url(#pd1fe658a57)" style="fill: #008000; fill-opacity: 0.5"/>
    <path d="M 200.091342 83.858566 
L 212.218304 91.959086 
L 215.86787 81.506036 
L 202.98351 73.07186 
z
" clip-path="url(#pd1fe658a57)" style="fill: #008000; fill-opacity: 0.5"/>
    <path d="M 197.984837 127.967429 
L 202.776273 135.729571 
L 206.688254 128.055682 
L 201.494379 119.812028 
z
" clip-path="url(#pd1fe658a57)" style="fill: #008000; fill-opacity: 0.5"/>
    <path d="M 163.0469 188.920153 
L 158.182056 190.615773 
L 159.733954 189.694505 
L 165.587086 187.655471 
z
" clip-path="url(#pd1fe658a57)" style="fill: #008000; fill-opacity: 0.5"/>
    <path d="M 169.922008 184.765368 
L 165.587086 187.655471 
L 168.148715 185.880706 
L 173.209265 182.507132 
z
" clip-path="url(#pd1fe658a57)" style="fill: #008000; fill-opacity: 0.5"/>
    <path d="M 179.695022 175.154521 
L 176.522325 179.733185 
L 179.863893 176.436499 
L 183.418965 171.295211 
z
" clip-path="url(#pd1fe658a57)" style="fill: #008000; fill-opacity: 0.5"/>
    <path d="M 146.715999 191.260653 
L 141.27814 190.142129 
L 139.373087 189.124741 
L 145.921191 190.470494 
z
" clip-path="url(#pd1fe658a57)" style="fill: #008000; fill-opacity: 0.5"/>
    <path d="M 105.829329 154.156984 
L 107.009291 147.077799 
L 103.258689 140.339276 
L 101.934647 147.959911 
z
" clip-path="url(#pd1fe658a57)" style="fill: #008000; fill-opacity: 0.5"/>
    <path d="M 119.793832 174.786943 
L 117.308532 169.49288 
L 113.513134 164.914647 
L 116.252972 170.779695 
z
" clip-path="url(#pd1fe658a57)" style="fill: #008000; fill-opacity: 0.5"/>
    <path d="M 91.806118 116.804127 
L 99.197042 108.457339 
L 95.837197 99.043822 
L 87.911179 107.816288 
z
" clip-path="url(#pd1fe658a57)" style="fill: #008000; fill-opacity: 0.5"/>
    <path d="M 131.130636 184.85049 
L 126.78536 181.221324 
L 123.303669 178.26495 
L 128.268097 182.410955 
z
" clip-path="url(#pd1fe658a57)" style="fill: #008000; fill-opacity: 0.5"/>
    <path d="M 158.182056 190.615773 
L 152.548255 191.424285 
L 152.948043 190.667438 
L 159.733954 189.694505 
z
" clip-path="url(#pd1fe658a57)" style="fill: #008000; fill-opacity: 0.5"/>
    <path d="M 191.253159 155.42511 
L 190.956203 161.991832 
L 194.775648 156.531197 
L 195.061876 149.40441 
z
" clip-path="url(#pd1fe658a57)" style="fill: #008000; fill-opacity: 0.5"/>
    <path d="M 152.548255 191.424285 
L 146.715999 191.260653 
L 145.921191 190.470494 
L 152.948043 190.667438 
z
" clip-path="url(#pd1fe658a57)" style="fill: #008000; fill-opacity: 0.5"/>
    <path d="M 139.373087 189.124741 
L 133.96823 186.773307 
L 131.130636 184.85049 
L 137.450648 187.597497 
z
" clip-path="url(#pd1fe658a57)" style="fill: #008000; fill-opacity: 0.5"/>
    <path d="M 201.494379 119.812028 
L 206.688254 128.055682 
L 210.641111 119.809394 
L 205.034549 111.099643 
z
" clip-path="url(#pd1fe658a57)" style="fill: #008000; fill-opacity: 0.5"/>
    <path d="M 173.209265 182.507132 
L 168.148715 185.880706 
L 170.733926 183.588984 
L 176.522325 179.733185 
z
" clip-path="url(#pd1fe658a57)" style="fill: #008000; fill-opacity: 0.5"/>
    <path d="M 165.587086 187.655471 
L 159.733954 189.694505 
L 161.300427 188.263561 
L 168.148715 185.880706 
z
" clip-path="url(#pd1fe658a57)" style="fill: #008000; fill-opacity: 0.5"/>
    <path d="M 183.418965 171.295211 
L 179.863893 176.436499 
L 183.236755 172.609177 
L 187.171681 166.910261 
z
" clip-path="url(#pd1fe658a57)" style="fill: #008000; fill-opacity: 0.5"/>
    <path d="M 101.934647 147.959911 
L 103.258689 140.339276 
L 99.47668 133.054264 
L 98.000443 141.204039 
z
" clip-path="url(#pd1fe658a57)" style="fill: #008000; fill-opacity: 0.5"/>
    <path d="M 116.252972 170.779695 
L 113.513134 164.914647 
L 109.687764 159.805472 
L 112.678124 166.234711 
z
" clip-path="url(#pd1fe658a57)" style="fill: #008000; fill-opacity: 0.5"/>
    <path d="M 195.061876 149.40441 
L 194.775648 156.531197 
L 198.633226 150.518702 
L 198.901879 142.842367 
z
" clip-path="url(#pd1fe658a57)" style="fill: #008000; fill-opacity: 0.5"/>
    <path d="M 87.911179 107.816288 
L 95.837197 99.043822 
L 92.444887 89.056274 
L 83.972042 98.236441 
z
" clip-path="url(#pd1fe658a57)" style="fill: #008000; fill-opacity: 0.5"/>
    <path d="M 128.268097 182.410955 
L 123.303669 178.26495 
L 119.793832 174.786943 
L 125.378204 179.44717 
z
" clip-path="url(#pd1fe658a57)" style="fill: #008000; fill-opacity: 0.5"/>
    <path d="M 145.921191 190.470494 
L 139.373087 189.124741 
L 137.450648 187.597497 
L 145.11863 189.170988 
z
" clip-path="url(#pd1fe658a57)" style="fill: #008000; fill-opacity: 0.5"/>
    <path d="M 159.733954 189.694505 
L 152.948043 190.667438 
L 153.351766 189.401343 
L 161.300427 188.263561 
z
" clip-path="url(#pd1fe658a57)" style="fill: #008000; fill-opacity: 0.5"/>
    <path d="M 205.034549 111.099643 
L 210.641111 119.809394 
L 214.638242 110.978385 
L 208.608209 101.819307 
z
" clip-path="url(#pd1fe658a57)" style="fill: #008000; fill-opacity: 0.5"/>
    <path d="M 137.450648 187.597497 
L 131.130636 184.85049 
L 128.268097 182.410955 
L 135.509184 185.553178 
z
" clip-path="url(#pd1fe658a57)" style="fill: #008000; fill-opacity: 0.5"/>
    <path d="M 152.948043 190.667438 
L 145.921191 190.470494 
L 145.11863 189.170988 
L 153.351766 189.401343 
z
" clip-path="url(#pd1fe658a57)" style="fill: #008000; fill-opacity: 0.5"/>
    <path d="M 176.522325 179.733185 
L 170.733926 183.588984 
L 173.344922 180.772556 
L 179.863893 176.436499 
z
" clip-path="url(#pd1fe658a57)" style="fill: #008000; fill-opacity: 0.5"/>
    <path d="M 187.171681 166.910261 
L 183.236755 172.609177 
L 186.643783 168.242411 
L 190.956203 161.991832 
z
" clip-path="url(#pd1fe658a57)" style="fill: #008000; fill-opacity: 0.5"/>
    <path d="M 168.148715 185.880706 
L 161.300427 188.263561 
L 162.882822 186.31559 
L 170.733926 183.588984 
z
" clip-path="url(#pd1fe658a57)" style="fill: #008000; fill-opacity: 0.5"/>
    <path d="M 98.000443 141.204039 
L 99.47668 133.054264 
L 95.660204 125.212836 
L 94.023336 133.878174 
z
" clip-path="url(#pd1fe658a57)" style="fill: #008000; fill-opacity: 0.5"/>
    <path d="M 112.678124 166.234711 
L 109.687764 159.805472 
L 105.829329 154.156984 
L 109.066234 161.142567 
z
" clip-path="url(#pd1fe658a57)" style="fill: #008000; fill-opacity: 0.5"/>
    <path d="M 198.901879 142.842367 
L 198.633226 150.518702 
L 202.53225 143.94373 
L 202.776273 135.729571 
z
" clip-path="url(#pd1fe658a57)" style="fill: #008000; fill-opacity: 0.5"/>
    <path d="M 83.972042 98.236441 
L 92.444887 89.056274 
L 89.017316 78.482209 
L 79.985244 88.050632 
z
" clip-path="url(#pd1fe658a57)" style="fill: #008000; fill-opacity: 0.5"/>
    <path d="M 125.378204 179.44717 
L 119.793832 174.786943 
L 116.252972 170.779695 
L 122.458471 175.950707 
z
" clip-path="url(#pd1fe658a57)" style="fill: #008000; fill-opacity: 0.5"/>
    <path d="M 145.11863 189.170988 
L 137.450648 187.597497 
L 135.509184 185.553178 
L 144.307618 187.354608 
z
" clip-path="url(#pd1fe658a57)" style="fill: #008000; fill-opacity: 0.5"/>
    <path d="M 208.608209 101.819307 
L 214.638242 110.978385 
L 218.683162 101.549274 
L 212.218304 91.959086 
z
" clip-path="url(#pd1fe658a57)" style="fill: #008000; fill-opacity: 0.5"/>
    <path d="M 161.300427 188.263561 
L 153.351766 189.401343 
L 153.759779 187.618427 
L 162.882822 186.31559 
z
" clip-path="url(#pd1fe658a57)" style="fill: #008000; fill-opacity: 0.5"/>
    <path d="M 135.509184 185.553178 
L 128.268097 182.410955 
L 125.378204 179.44717 
L 133.546998 182.983673 
z
" clip-path="url(#pd1fe658a57)" style="fill: #008000; fill-opacity: 0.5"/>
    <path d="M 153.351766 189.401343 
L 145.11863 189.170988 
L 144.307618 187.354608 
L 153.759779 187.618427 
z
" clip-path="url(#pd1fe658a57)" style="fill: #008000; fill-opacity: 0.5"/>
    <path d="M 179.863893 176.436499 
L 173.344922 180.772556 
L 175.983985 177.42276 
L 183.236755 172.609177 
z
" clip-path="url(#pd1fe658a57)" style="fill: #008000; fill-opacity: 0.5"/>
    <path d="M 190.956203 161.991832 
L 186.643783 168.242411 
L 190.087946 163.326449 
L 194.775648 156.531197 
z
" clip-path="url(#pd1fe658a57)" style="fill: #008000; fill-opacity: 0.5"/>
    <path d="M 94.023336 133.878174 
L 95.660204 125.212836 
L 91.806118 116.804127 
L 89.999827 125.970093 
z
" clip-path="url(#pd1fe658a57)" style="fill: #008000; fill-opacity: 0.5"/>
    <path d="M 109.066234 161.142567 
L 105.829329 154.156984 
L 101.934647 147.959911 
L 105.414141 155.492869 
z
" clip-path="url(#pd1fe658a57)" style="fill: #008000; fill-opacity: 0.5"/>
    <path d="M 170.733926 183.588984 
L 162.882822 186.31559 
L 164.482536 183.842344 
L 173.344922 180.772556 
z
" clip-path="url(#pd1fe658a57)" style="fill: #008000; fill-opacity: 0.5"/>
    <path d="M 202.776273 135.729571 
L 202.53225 143.94373 
L 206.476146 136.794654 
L 206.688254 128.055682 
z
" clip-path="url(#pd1fe658a57)" style="fill: #008000; fill-opacity: 0.5"/>
    <path d="M 122.458471 175.950707 
L 116.252972 170.779695 
L 112.678124 166.234711 
L 119.506325 171.912197 
z
" clip-path="url(#pd1fe658a57)" style="fill: #008000; fill-opacity: 0.5"/>
    <path d="M 212.218304 91.959086 
L 218.683162 101.549274 
L 222.779514 91.50756 
L 215.86787 81.506036 
z
" clip-path="url(#pd1fe658a57)" style="fill: #008000; fill-opacity: 0.5"/>
    <path d="M 144.307618 187.354608 
L 135.509184 185.553178 
L 133.546998 182.983673 
L 143.487431 185.012916 
z
" clip-path="url(#pd1fe658a57)" style="fill: #008000; fill-opacity: 0.5"/>
    <path d="M 162.882822 186.31559 
L 153.759779 187.618427 
L 154.172446 185.310207 
L 164.482536 183.842344 
z
" clip-path="url(#pd1fe658a57)" style="fill: #008000; fill-opacity: 0.5"/>
    <path d="M 133.546998 182.983673 
L 125.378204 179.44717 
L 122.458471 175.950707 
L 131.562335 179.879939 
z
" clip-path="url(#pd1fe658a57)" style="fill: #008000; fill-opacity: 0.5"/>
    <path d="M 194.775648 156.531197 
L 190.087946 163.326449 
L 193.572317 157.850548 
L 198.633226 150.518702 
z
" clip-path="url(#pd1fe658a57)" style="fill: #008000; fill-opacity: 0.5"/>
    <path d="M 183.236755 172.609177 
L 175.983985 177.42276 
L 178.653473 173.529982 
L 186.643783 168.242411 
z
" clip-path="url(#pd1fe658a57)" style="fill: #008000; fill-opacity: 0.5"/>
    <path d="M 89.999827 125.970093 
L 91.806118 116.804127 
L 87.911179 107.816288 
L 85.926292 117.466495 
z
" clip-path="url(#pd1fe658a57)" style="fill: #008000; fill-opacity: 0.5"/>
    <path d="M 153.759779 187.618427 
L 144.307618 187.354608 
L 143.487431 185.012916 
L 154.172446 185.310207 
z
" clip-path="url(#pd1fe658a57)" style="fill: #008000; fill-opacity: 0.5"/>
    <path d="M 206.688254 128.055682 
L 206.476146 136.794654 
L 210.468465 129.058788 
L 210.641111 119.809394 
z
" clip-path="url(#pd1fe658a57)" style="fill: #008000; fill-opacity: 0.5"/>
    <path d="M 105.414141 155.492869 
L 101.934647 147.959911 
L 98.000443 141.204039 
L 101.718573 149.274211 
z
" clip-path="url(#pd1fe658a57)" style="fill: #008000; fill-opacity: 0.5"/>
    <path d="M 173.344922 180.772556 
L 164.482536 183.842344 
L 166.101014 180.834632 
L 175.983985 177.42276 
z
" clip-path="url(#pd1fe658a57)" style="fill: #008000; fill-opacity: 0.5"/>
    <path d="M 119.506325 171.912197 
L 112.678124 166.234711 
L 109.066234 161.142567 
L 116.519102 167.32129 
z
" clip-path="url(#pd1fe658a57)" style="fill: #008000; fill-opacity: 0.5"/>
    <path d="M 143.487431 185.012916 
L 133.546998 182.983673 
L 131.562335 179.879939 
L 142.657316 182.136525 
z
" clip-path="url(#pd1fe658a57)" style="fill: #008000; fill-opacity: 0.5"/>
    <path d="M 85.926292 117.466495 
L 87.911179 107.816288 
L 83.972042 98.236441 
L 81.798967 108.352942 
z
" clip-path="url(#pd1fe658a57)" style="fill: #008000; fill-opacity: 0.5"/>
    <path d="M 131.562335 179.879939 
L 122.458471 175.950707 
L 119.506325 171.912197 
L 129.553372 176.231957 
z
" clip-path="url(#pd1fe658a57)" style="fill: #008000; fill-opacity: 0.5"/>
    <path d="M 198.633226 150.518702 
L 193.572317 157.850548 
L 197.100084 151.802927 
L 202.53225 143.94373 
z
" clip-path="url(#pd1fe658a57)" style="fill: #008000; fill-opacity: 0.5"/>
    <path d="M 164.482536 183.842344 
L 154.172446 185.310207 
L 154.590147 182.467245 
L 166.101014 180.834632 
z
" clip-path="url(#pd1fe658a57)" style="fill: #008000; fill-opacity: 0.5"/>
    <path d="M 186.643783 168.242411 
L 178.653473 173.529982 
L 181.355838 169.083612 
L 190.087946 163.326449 
z
" clip-path="url(#pd1fe658a57)" style="fill: #008000; fill-opacity: 0.5"/>
    <path d="M 210.641111 119.809394 
L 210.468465 129.058788 
L 214.512891 120.722333 
L 214.638242 110.978385 
z
" clip-path="url(#pd1fe658a57)" style="fill: #008000; fill-opacity: 0.5"/>
    <path d="M 101.718573 149.274211 
L 98.000443 141.204039 
L 94.023336 133.878174 
L 97.976133 142.47412 
z
" clip-path="url(#pd1fe658a57)" style="fill: #008000; fill-opacity: 0.5"/>
    <path d="M 154.172446 185.310207 
L 143.487431 185.012916 
L 142.657316 182.136525 
L 154.590147 182.467245 
z
" clip-path="url(#pd1fe658a57)" style="fill: #008000; fill-opacity: 0.5"/>
    <path d="M 175.983985 177.42276 
L 166.101014 180.834632 
L 167.739759 177.282279 
L 178.653473 173.529982 
z
" clip-path="url(#pd1fe658a57)" style="fill: #008000; fill-opacity: 0.5"/>
    <path d="M 116.519102 167.32129 
L 109.066234 161.142567 
L 105.414141 155.492869 
L 113.494033 162.166604 
z
" clip-path="url(#pd1fe658a57)" style="fill: #008000; fill-opacity: 0.5"/>
    <path d="M 81.798967 108.352942 
L 83.972042 98.236441 
L 79.985244 88.050632 
L 77.613938 98.6138 
z
" clip-path="url(#pd1fe658a57)" style="fill: #008000; fill-opacity: 0.5"/>
    <path d="M 142.657316 182.136525 
L 131.562335 179.879939 
L 129.553372 176.231957 
L 141.816491 178.715046 
z
" clip-path="url(#pd1fe658a57)" style="fill: #008000; fill-opacity: 0.5"/>
    <path d="M 202.53225 143.94373 
L 197.100084 151.802927 
L 200.674562 145.170711 
L 206.476146 136.794654 
z
" clip-path="url(#pd1fe658a57)" style="fill: #008000; fill-opacity: 0.5"/>
    <path d="M 129.553372 176.231957 
L 119.506325 171.912197 
L 116.519102 167.32129 
L 127.518211 172.028681 
z
" clip-path="url(#pd1fe658a57)" style="fill: #008000; fill-opacity: 0.5"/>
    <path d="M 214.638242 110.978385 
L 214.512891 120.722333 
L 218.61326 111.770316 
L 218.683162 101.549274 
z
" clip-path="url(#pd1fe658a57)" style="fill: #008000; fill-opacity: 0.5"/>
    <path d="M 190.087946 163.326449 
L 181.355838 169.083612 
L 184.093626 164.071987 
L 193.572317 157.850548 
z
" clip-path="url(#pd1fe658a57)" style="fill: #008000; fill-opacity: 0.5"/>
    <path d="M 97.976133 142.47412 
L 94.023336 133.878174 
L 89.999827 125.970093 
L 94.18329 135.079004 
z
" clip-path="url(#pd1fe658a57)" style="fill: #008000; fill-opacity: 0.5"/>
    <path d="M 166.101014 180.834632 
L 154.590147 182.467245 
L 155.013278 179.079098 
L 167.739759 177.282279 
z
" clip-path="url(#pd1fe658a57)" style="fill: #008000; fill-opacity: 0.5"/>
    <path d="M 154.590147 182.467245 
L 142.657316 182.136525 
L 141.816491 178.715046 
L 155.013278 179.079098 
z
" clip-path="url(#pd1fe658a57)" style="fill: #008000; fill-opacity: 0.5"/>
    <path d="M 178.653473 173.529982 
L 167.739759 177.282279 
L 169.400334 173.174073 
L 181.355838 169.083612 
z
" clip-path="url(#pd1fe658a57)" style="fill: #008000; fill-opacity: 0.5"/>
    <path d="M 113.494033 162.166604 
L 105.414141 155.492869 
L 101.718573 149.274211 
L 110.428239 156.435675 
z
" clip-path="url(#pd1fe658a57)" style="fill: #008000; fill-opacity: 0.5"/>
    <path d="M 206.476146 136.794654 
L 200.674562 145.170711 
L 204.299203 137.939876 
L 210.468465 129.058788 
z
" clip-path="url(#pd1fe658a57)" style="fill: #008000; fill-opacity: 0.5"/>
    <path d="M 218.683162 101.549274 
L 218.61326 111.770316 
L 222.773567 102.186526 
L 222.779514 91.50756 
z
" clip-path="url(#pd1fe658a57)" style="fill: #008000; fill-opacity: 0.5"/>
    <path d="M 141.816491 178.715046 
L 129.553372 176.231957 
L 127.518211 172.028681 
L 140.964142 174.737043 
z
" clip-path="url(#pd1fe658a57)" style="fill: #008000; fill-opacity: 0.5"/>
    <path d="M 94.18329 135.079004 
L 89.999827 125.970093 
L 85.926292 117.466495 
L 90.336364 127.074087 
z
" clip-path="url(#pd1fe658a57)" style="fill: #008000; fill-opacity: 0.5"/>
    <path d="M 193.572317 157.850548 
L 184.093626 164.071987 
L 186.869493 158.482344 
L 197.100084 151.802927 
z
" clip-path="url(#pd1fe658a57)" style="fill: #008000; fill-opacity: 0.5"/>
    <path d="M 127.518211 172.028681 
L 116.519102 167.32129 
L 113.494033 162.166604 
L 125.454878 167.257988 
z
" clip-path="url(#pd1fe658a57)" style="fill: #008000; fill-opacity: 0.5"/>
    <path d="M 167.739759 177.282279 
L 155.013278 179.079098 
L 155.442249 175.134274 
L 169.400334 173.174073 
z
" clip-path="url(#pd1fe658a57)" style="fill: #008000; fill-opacity: 0.5"/>
    <path d="M 155.013278 179.079098 
L 141.816491 178.715046 
L 140.964142 174.737043 
L 155.442249 175.134274 
z
" clip-path="url(#pd1fe658a57)" style="fill: #008000; fill-opacity: 0.5"/>
    <path d="M 110.428239 156.435675 
L 101.718573 149.274211 
L 97.976133 142.47412 
L 107.318715 150.114895 
z
" clip-path="url(#pd1fe658a57)" style="fill: #008000; fill-opacity: 0.5"/>
    <path d="M 181.355838 169.083612 
L 169.400334 173.174073 
L 171.084372 168.49771 
L 184.093626 164.071987 
z
" clip-path="url(#pd1fe658a57)" style="fill: #008000; fill-opacity: 0.5"/>
    <path d="M 210.468465 129.058788 
L 204.299203 137.939876 
L 207.977609 130.09518 
L 214.512891 120.722333 
z
" clip-path="url(#pd1fe658a57)" style="fill: #008000; fill-opacity: 0.5"/>
    <path d="M 90.336364 127.074087 
L 85.926292 117.466495 
L 81.798967 108.352942 
L 86.431516 118.443342 
z
" clip-path="url(#pd1fe658a57)" style="fill: #008000; fill-opacity: 0.5"/>
    <path d="M 197.100084 151.802927 
L 186.869493 158.482344 
L 189.686208 152.30075 
L 200.674562 145.170711 
z
" clip-path="url(#pd1fe658a57)" style="fill: #008000; fill-opacity: 0.5"/>
    <path d="M 140.964142 174.737043 
L 127.518211 172.028681 
L 125.454878 167.257988 
L 140.099418 170.189969 
z
" clip-path="url(#pd1fe658a57)" style="fill: #008000; fill-opacity: 0.5"/>
    <path d="M 125.454878 167.257988 
L 113.494033 162.166604 
L 110.428239 156.435675 
L 123.361309 161.906613 
z
" clip-path="url(#pd1fe658a57)" style="fill: #008000; fill-opacity: 0.5"/>
    <path d="M 169.400334 173.174073 
L 155.442249 175.134274 
L 155.877492 170.620163 
L 171.084372 168.49771 
z
" clip-path="url(#pd1fe658a57)" style="fill: #008000; fill-opacity: 0.5"/>
    <path d="M 107.318715 150.114895 
L 97.976133 142.47412 
L 94.18329 135.079004 
L 104.162325 143.189446 
z
" clip-path="url(#pd1fe658a57)" style="fill: #008000; fill-opacity: 0.5"/>
    <path d="M 155.442249 175.134274 
L 140.964142 174.737043 
L 140.099418 170.189969 
L 155.877492 170.620163 
z
" clip-path="url(#pd1fe658a57)" style="fill: #008000; fill-opacity: 0.5"/>
    <path d="M 184.093626 164.071987 
L 171.084372 168.49771 
L 172.793576 163.239734 
L 186.869493 158.482344 
z
" clip-path="url(#pd1fe658a57)" style="fill: #008000; fill-opacity: 0.5"/>
    <path d="M 214.512891 120.722333 
L 207.977609 130.09518 
L 211.713544 121.620092 
L 218.61326 111.770316 
z
" clip-path="url(#pd1fe658a57)" style="fill: #008000; fill-opacity: 0.5"/>
    <path d="M 86.431516 118.443342 
L 81.798967 108.352942 
L 77.613938 98.6138 
L 82.464731 109.169417 
z
" clip-path="url(#pd1fe658a57)" style="fill: #008000; fill-opacity: 0.5"/>
    <path d="M 200.674562 145.170711 
L 189.686208 152.30075 
L 192.546669 145.51204 
L 204.299203 137.939876 
z
" clip-path="url(#pd1fe658a57)" style="fill: #008000; fill-opacity: 0.5"/>
    <path d="M 123.361309 161.906613 
L 110.428239 156.435675 
L 107.318715 150.114895 
L 121.235348 155.960087 
z
" clip-path="url(#pd1fe658a57)" style="fill: #008000; fill-opacity: 0.5"/>
    <path d="M 140.099418 170.189969 
L 125.454878 167.257988 
L 123.361309 161.906613 
L 139.221428 165.060106 
z
" clip-path="url(#pd1fe658a57)" style="fill: #008000; fill-opacity: 0.5"/>
    <path d="M 171.084372 168.49771 
L 155.877492 170.620163 
L 156.319454 165.522982 
L 172.793576 163.239734 
z
" clip-path="url(#pd1fe658a57)" style="fill: #008000; fill-opacity: 0.5"/>
    <path d="M 104.162325 143.189446 
L 94.18329 135.079004 
L 90.336364 127.074087 
L 100.95579 135.643229 
z
" clip-path="url(#pd1fe658a57)" style="fill: #008000; fill-opacity: 0.5"/>
    <path d="M 186.869493 158.482344 
L 172.793576 163.239734 
L 174.529729 157.385467 
L 189.686208 152.30075 
z
" clip-path="url(#pd1fe658a57)" style="fill: #008000; fill-opacity: 0.5"/>
    <path d="M 155.877492 170.620163 
L 140.099418 170.189969 
L 139.221428 165.060106 
L 156.319454 165.522982 
z
" clip-path="url(#pd1fe658a57)" style="fill: #008000; fill-opacity: 0.5"/>
    <path d="M 218.61326 111.770316 
L 211.713544 121.620092 
L 215.510953 112.496711 
L 222.773567 102.186526 
z
" clip-path="url(#pd1fe658a57)" style="fill: #008000; fill-opacity: 0.5"/>
    <path d="M 204.299203 137.939876 
L 192.546669 145.51204 
L 195.45391 138.099734 
L 207.977609 130.09518 
z
" clip-path="url(#pd1fe658a57)" style="fill: #008000; fill-opacity: 0.5"/>
    <path d="M 121.235348 155.960087 
L 107.318715 150.114895 
L 104.162325 143.189446 
L 119.074733 149.40266 
z
" clip-path="url(#pd1fe658a57)" style="fill: #008000; fill-opacity: 0.5"/>
    <path d="M 139.221428 165.060106 
L 123.361309 161.906613 
L 121.235348 155.960087 
L 138.329242 159.332492 
z
" clip-path="url(#pd1fe658a57)" style="fill: #008000; fill-opacity: 0.5"/>
    <path d="M 100.95579 135.643229 
L 90.336364 127.074087 
L 86.431516 118.443342 
L 97.695667 127.458785 
z
" clip-path="url(#pd1fe658a57)" style="fill: #008000; fill-opacity: 0.5"/>
    <path d="M 172.793576 163.239734 
L 156.319454 165.522982 
L 156.768609 159.827697 
L 174.529729 157.385467 
z
" clip-path="url(#pd1fe658a57)" style="fill: #008000; fill-opacity: 0.5"/>
    <path d="M 189.686208 152.30075 
L 174.529729 157.385467 
L 176.294702 150.918933 
L 192.546669 145.51204 
z
" clip-path="url(#pd1fe658a57)" style="fill: #008000; fill-opacity: 0.5"/>
    <path d="M 156.319454 165.522982 
L 139.221428 165.060106 
L 138.329242 159.332492 
L 156.768609 159.827697 
z
" clip-path="url(#pd1fe658a57)" style="fill: #008000; fill-opacity: 0.5"/>
    <path d="M 207.977609 130.09518 
L 195.45391 138.099734 
L 198.411117 130.045962 
L 211.713544 121.620092 
z
" clip-path="url(#pd1fe658a57)" style="fill: #008000; fill-opacity: 0.5"/>
    <path d="M 119.074733 149.40266 
L 104.162325 143.189446 
L 100.95579 135.643229 
L 116.877094 142.217221 
z
" clip-path="url(#pd1fe658a57)" style="fill: #008000; fill-opacity: 0.5"/>
    <path d="M 138.329242 159.332492 
L 121.235348 155.960087 
L 119.074733 149.40266 
L 137.42188 152.990844 
z
" clip-path="url(#pd1fe658a57)" style="fill: #008000; fill-opacity: 0.5"/>
    <path d="M 97.695667 127.458785 
L 86.431516 118.443342 
L 82.464731 109.169417 
L 94.378347 118.617202 
z
" clip-path="url(#pd1fe658a57)" style="fill: #008000; fill-opacity: 0.5"/>
    <path d="M 174.529729 157.385467 
L 156.768609 159.827697 
L 157.22545 153.517946 
L 176.294702 150.918933 
z
" clip-path="url(#pd1fe658a57)" style="fill: #008000; fill-opacity: 0.5"/>
    <path d="M 192.546669 145.51204 
L 176.294702 150.918933 
L 178.090458 143.822775 
L 195.45391 138.099734 
z
" clip-path="url(#pd1fe658a57)" style="fill: #008000; fill-opacity: 0.5"/>
    <path d="M 156.768609 159.827697 
L 138.329242 159.332492 
L 137.42188 152.990844 
L 157.22545 153.517946 
z
" clip-path="url(#pd1fe658a57)" style="fill: #008000; fill-opacity: 0.5"/>
    <path d="M 211.713544 121.620092 
L 198.411117 130.045962 
L 201.421637 121.331364 
L 215.510953 112.496711 
z
" clip-path="url(#pd1fe658a57)" style="fill: #008000; fill-opacity: 0.5"/>
    <path d="M 116.877094 142.217221 
L 100.95579 135.643229 
L 97.695667 127.458785 
L 114.639934 134.385209 
z
" clip-path="url(#pd1fe658a57)" style="fill: #008000; fill-opacity: 0.5"/>
    <path d="M 137.42188 152.990844 
L 119.074733 149.40266 
L 116.877094 142.217221 
L 136.498314 146.017469 
z
" clip-path="url(#pd1fe658a57)" style="fill: #008000; fill-opacity: 0.5"/>
    <path d="M 176.294702 150.918933 
L 157.22545 153.517946 
L 157.690498 146.575953 
L 178.090458 143.822775 
z
" clip-path="url(#pd1fe658a57)" style="fill: #008000; fill-opacity: 0.5"/>
    <path d="M 195.45391 138.099734 
L 178.090458 143.822775 
L 179.919066 136.078164 
L 198.411117 130.045962 
z
" clip-path="url(#pd1fe658a57)" style="fill: #008000; fill-opacity: 0.5"/>
    <path d="M 157.22545 153.517946 
L 137.42188 152.990844 
L 136.498314 146.017469 
L 157.690498 146.575953 
z
" clip-path="url(#pd1fe658a57)" style="fill: #008000; fill-opacity: 0.5"/>
    <path d="M 114.639934 134.385209 
L 97.695667 127.458785 
L 94.378347 118.617202 
L 112.360626 125.886513 
z
" clip-path="url(#pd1fe658a57)" style="fill: #008000; fill-opacity: 0.5"/>
    <path d="M 136.498314 146.017469 
L 116.877094 142.217221 
L 114.639934 134.385209 
L 135.55746 138.393174 
z
" clip-path="url(#pd1fe658a57)" style="fill: #008000; fill-opacity: 0.5"/>
    <path d="M 178.090458 143.822775 
L 157.690498 146.575953 
L 158.164301 138.98243 
L 179.919066 136.078164 
z
" clip-path="url(#pd1fe658a57)" style="fill: #008000; fill-opacity: 0.5"/>
    <path d="M 198.411117 130.045962 
L 179.919066 136.078164 
L 181.782704 127.664696 
L 201.421637 121.331364 
z
" clip-path="url(#pd1fe658a57)" style="fill: #008000; fill-opacity: 0.5"/>
    <path d="M 157.690498 146.575953 
L 136.498314 146.017469 
L 135.55746 138.393174 
L 158.164301 138.98243 
z
" clip-path="url(#pd1fe658a57)" style="fill: #008000; fill-opacity: 0.5"/>
    <path d="M 135.55746 138.393174 
L 114.639934 134.385209 
L 112.360626 125.886513 
L 134.598174 130.097153 
z
" clip-path="url(#pd1fe658a57)" style="fill: #008000; fill-opacity: 0.5"/>
    <path d="M 179.919066 136.078164 
L 158.164301 138.98243 
L 158.647439 130.71647 
L 181.782704 127.664696 
z
" clip-path="url(#pd1fe658a57)" style="fill: #008000; fill-opacity: 0.5"/>
    <path d="M 158.164301 138.98243 
L 135.55746 138.393174 
L 134.598174 130.097153 
L 158.647439 130.71647 
z
" clip-path="url(#pd1fe658a57)" style="fill: #008000; fill-opacity: 0.5"/>
   </g>
  </g>
 </g>
 <defs>
  <clipPath id="pd1fe658a57">
   <rect x="36.72" y="34.56" width="221.76" height="221.76"/>
  </clipPath>
 </defs>
</svg>
