<?xml version="1.0" encoding="utf-8" standalone="no"?>
<!DOCTYPE svg PUBLIC "-//W3C//DTD SVG 1.1//EN"
  "http://www.w3.org/Graphics/SVG/1.1/DTD/svg11.dtd">
<svg xmlns:xlink="http://www.w3.org/1999/xlink" width="288pt" height="288pt" viewBox="0 0 288 288" xmlns="http://www.w3.org/2000/svg" version="1.1">
 <metadata>
  <rdf:RDF xmlns:dc="http://purl.org/dc/elements/1.1/" xmlns:cc="http://creativecommons.org/ns#" xmlns:rdf="http://www.w3.org/1999/02/22-rdf-syntax-ns#">
   <cc:Work>
    <dc:type rdf:resource="http://purl.org/dc/dcmitype/StillImage"/>
    <dc:date>2025-04-27T18:22:47.552703</dc:date>
    <dc:format>image/svg+xml</dc:format>
    <dc:creator>
     <cc:Agent>
      <dc:title>Matplotlib v3.10.1, https://matplotlib.org/</dc:title>
     </cc:Agent>
    </dc:creator>
   </cc:Work>
  </rdf:RDF>
 </metadata>
 <defs>
  <style type="text/css">*{stroke-linejoin: round; stroke-linecap: butt}</style>
 </defs>
 <g id="figure_1">
  <g id="patch_1">
   <path d="M 0 288 
L 288 288 
L 288 0 
L 0 0 
z
" style="fill: #ffffff"/>
  </g>
  <g id="patch_2">
   <path d="M 18.84 277.2 
L 269.16 277.2 
L 269.16 26.88 
L 18.84 26.88 
z
" style="fill: #ffffff"/>
  </g>
  <g id="pane3d_1">
   <g id="patch_3">
    <path d="M 37.740886 215.47911 
L 120.404725 146.188641 
L 119.255619 46.259398 
L 32.635889 109.470532 
" style="fill: #f2f2f2; opacity: 0.5; stroke: #f2f2f2; stroke-linejoin: miter"/>
   </g>
  </g>
  <g id="pane3d_2">
   <g id="patch_4">
    <path d="M 120.404725 146.188641 
L 253.050692 184.743587 
L 257.784359 81.372396 
L 119.255619 46.259398 
" style="fill: #e6e6e6; opacity: 0.5; stroke: #e6e6e6; stroke-linejoin: miter"/>
   </g>
  </g>
  <g id="pane3d_3">
   <g id="patch_5">
    <path d="M 37.740886 215.47911 
L 178.35209 261.402729 
L 253.050692 184.743587 
L 120.404725 146.188641 
" style="fill: #ececec; opacity: 0.5; stroke: #ececec; stroke-linejoin: miter"/>
   </g>
  </g>
  <g id="grid3d_1">
   <g id="Line3DCollection_1">
    <path d="M 46.257039 218.260485 
L 128.471847 148.533435 
L 127.663824 48.390633 
" style="fill: none; stroke: #b0b0b0; stroke-width: 0.8"/>
    <path d="M 75.884202 227.936717 
L 156.503214 156.681047 
L 156.897156 55.80043 
" style="fill: none; stroke: #b0b0b0; stroke-width: 0.8"/>
    <path d="M 106.19302 237.835577 
L 185.12555 165.00043 
L 186.77371 63.373266 
" style="fill: none; stroke: #b0b0b0; stroke-width: 0.8"/>
    <path d="M 137.20729 247.964837 
L 214.357742 173.497074 
L 217.31495 71.11458 
" style="fill: none; stroke: #b0b0b0; stroke-width: 0.8"/>
    <path d="M 168.951932 258.332637 
L 244.219491 182.176705 
L 248.543309 79.030059 
" style="fill: none; stroke: #b0b0b0; stroke-width: 0.8"/>
   </g>
  </g>
  <g id="grid3d_2">
   <g id="Line3DCollection_2">
    <path d="M 46.72683 99.187604 
L 51.145599 204.243014 
L 190.51004 248.925682 
" style="fill: none; stroke: #b0b0b0; stroke-width: 0.8"/>
    <path d="M 62.545378 87.643949 
L 66.213502 191.612799 
L 204.15569 234.921887 
" style="fill: none; stroke: #b0b0b0; stroke-width: 0.8"/>
    <path d="M 77.872576 76.458857 
L 80.833308 179.358188 
L 217.374548 221.356087 
" style="fill: none; stroke: #b0b0b0; stroke-width: 0.8"/>
    <path d="M 92.730969 65.615879 
L 95.024712 167.462672 
L 230.186328 208.208049 
" style="fill: none; stroke: #b0b0b0; stroke-width: 0.8"/>
    <path d="M 107.14174 55.099555 
L 108.806273 155.910694 
L 242.609549 195.458768 
" style="fill: none; stroke: #b0b0b0; stroke-width: 0.8"/>
   </g>
  </g>
  <g id="grid3d_3">
   <g id="Line3DCollection_3">
    <path d="M 253.578881 173.209298 
L 120.276266 135.01748 
L 37.172117 203.668246 
" style="fill: none; stroke: #b0b0b0; stroke-width: 0.8"/>
    <path d="M 254.464824 153.862569 
L 120.060934 116.291654 
L 36.217626 183.847634 
" style="fill: none; stroke: #b0b0b0; stroke-width: 0.8"/>
    <path d="M 255.365673 134.190322 
L 119.842153 97.265932 
L 35.246459 163.680705 
" style="fill: none; stroke: #b0b0b0; stroke-width: 0.8"/>
    <path d="M 256.281808 114.184275 
L 119.619841 77.933052 
L 34.258173 143.158304 
" style="fill: none; stroke: #b0b0b0; stroke-width: 0.8"/>
    <path d="M 257.213621 93.835857 
L 119.39391 58.285514 
L 33.252312 122.270948 
" style="fill: none; stroke: #b0b0b0; stroke-width: 0.8"/>
   </g>
  </g>
  <g id="axis3d_1">
   <g id="line2d_1">
    <path d="M 37.740886 215.47911 
L 178.35209 261.402729 
" style="fill: none; stroke: #000000; stroke-width: 0.8; stroke-linecap: square"/>
   </g>
   <g id="xtick_1">
    <g id="line2d_2">
     <path d="M 46.972961 217.653306 
L 44.822123 219.477449 
" style="fill: none; stroke: #000000; stroke-width: 0.8; stroke-linecap: square"/>
    </g>
    <g id="text_1">
     <!-- −1.0 -->
     <g transform="translate(26.584817 241.57332) scale(0.1 -0.1)">
      <defs>
       <path id="DejaVuSans-2212" d="M 678 2272 
L 4684 2272 
L 4684 1741 
L 678 1741 
L 678 2272 
z
" transform="scale(0.015625)"/>
       <path id="DejaVuSans-31" d="M 794 531 
L 1825 531 
L 1825 4091 
L 703 3866 
L 703 4441 
L 1819 4666 
L 2450 4666 
L 2450 531 
L 3481 531 
L 3481 0 
L 794 0 
L 794 531 
z
" transform="scale(0.015625)"/>
       <path id="DejaVuSans-2e" d="M 684 794 
L 1344 794 
L 1344 0 
L 684 0 
L 684 794 
z
" transform="scale(0.015625)"/>
       <path id="DejaVuSans-30" d="M 2034 4250 
Q 1547 4250 1301 3770 
Q 1056 3291 1056 2328 
Q 1056 1369 1301 889 
Q 1547 409 2034 409 
Q 2525 409 2770 889 
Q 3016 1369 3016 2328 
Q 3016 3291 2770 3770 
Q 2525 4250 2034 4250 
z
M 2034 4750 
Q 2819 4750 3233 4129 
Q 3647 3509 3647 2328 
Q 3647 1150 3233 529 
Q 2819 -91 2034 -91 
Q 1250 -91 836 529 
Q 422 1150 422 2328 
Q 422 3509 836 4129 
Q 1250 4750 2034 4750 
z
" transform="scale(0.015625)"/>
      </defs>
      <use xlink:href="#DejaVuSans-2212"/>
      <use xlink:href="#DejaVuSans-31" transform="translate(83.789062 0)"/>
      <use xlink:href="#DejaVuSans-2e" transform="translate(147.412109 0)"/>
      <use xlink:href="#DejaVuSans-30" transform="translate(179.199219 0)"/>
     </g>
    </g>
   </g>
   <g id="xtick_2">
    <g id="line2d_3">
     <path d="M 76.586877 227.315653 
L 74.475804 229.18154 
" style="fill: none; stroke: #000000; stroke-width: 0.8; stroke-linecap: square"/>
    </g>
    <g id="text_2">
     <!-- −0.5 -->
     <g transform="translate(56.244434 251.46767) scale(0.1 -0.1)">
      <defs>
       <path id="DejaVuSans-35" d="M 691 4666 
L 3169 4666 
L 3169 4134 
L 1269 4134 
L 1269 2991 
Q 1406 3038 1543 3061 
Q 1681 3084 1819 3084 
Q 2600 3084 3056 2656 
Q 3513 2228 3513 1497 
Q 3513 744 3044 326 
Q 2575 -91 1722 -91 
Q 1428 -91 1123 -41 
Q 819 9 494 109 
L 494 744 
Q 775 591 1075 516 
Q 1375 441 1709 441 
Q 2250 441 2565 725 
Q 2881 1009 2881 1497 
Q 2881 1984 2565 2268 
Q 2250 2553 1709 2553 
Q 1456 2553 1204 2497 
Q 953 2441 691 2322 
L 691 4666 
z
" transform="scale(0.015625)"/>
      </defs>
      <use xlink:href="#DejaVuSans-2212"/>
      <use xlink:href="#DejaVuSans-30" transform="translate(83.789062 0)"/>
      <use xlink:href="#DejaVuSans-2e" transform="translate(147.412109 0)"/>
      <use xlink:href="#DejaVuSans-35" transform="translate(179.199219 0)"/>
     </g>
    </g>
   </g>
   <g id="xtick_3">
    <g id="line2d_4">
     <path d="M 106.881645 237.200147 
L 104.812747 239.109226 
" style="fill: none; stroke: #000000; stroke-width: 0.8; stroke-linecap: square"/>
    </g>
    <g id="text_3">
     <!-- 0.0 -->
     <g transform="translate(90.779056 261.590588) scale(0.1 -0.1)">
      <use xlink:href="#DejaVuSans-30"/>
      <use xlink:href="#DejaVuSans-2e" transform="translate(63.623047 0)"/>
      <use xlink:href="#DejaVuSans-30" transform="translate(95.410156 0)"/>
     </g>
    </g>
   </g>
   <g id="xtick_4">
    <g id="line2d_5">
     <path d="M 137.881017 247.314537 
L 135.856843 249.268326 
" style="fill: none; stroke: #000000; stroke-width: 0.8; stroke-linecap: square"/>
    </g>
    <g id="text_4">
     <!-- 0.5 -->
     <g transform="translate(121.833013 271.950085) scale(0.1 -0.1)">
      <use xlink:href="#DejaVuSans-30"/>
      <use xlink:href="#DejaVuSans-2e" transform="translate(63.623047 0)"/>
      <use xlink:href="#DejaVuSans-35" transform="translate(95.410156 0)"/>
     </g>
    </g>
   </g>
   <g id="xtick_5">
    <g id="line2d_6">
     <path d="M 169.609866 257.666938 
L 167.633109 259.667027 
" style="fill: none; stroke: #000000; stroke-width: 0.8; stroke-linecap: square"/>
    </g>
    <g id="text_5">
     <!-- 1.0 -->
     <g transform="translate(153.621304 282.554554) scale(0.1 -0.1)">
      <use xlink:href="#DejaVuSans-31"/>
      <use xlink:href="#DejaVuSans-2e" transform="translate(63.623047 0)"/>
      <use xlink:href="#DejaVuSans-30" transform="translate(95.410156 0)"/>
     </g>
    </g>
   </g>
   <g id="text_6">
    <!-- X -->
    <g transform="translate(86.468026 275.885473) scale(0.1 -0.1)">
     <defs>
      <path id="DejaVuSans-58" d="M 403 4666 
L 1081 4666 
L 2241 2931 
L 3406 4666 
L 4084 4666 
L 2584 2425 
L 4184 0 
L 3506 0 
L 2194 1984 
L 872 0 
L 191 0 
L 1856 2491 
L 403 4666 
z
" transform="scale(0.015625)"/>
     </defs>
     <use xlink:href="#DejaVuSans-58"/>
    </g>
   </g>
  </g>
  <g id="axis3d_2">
   <g id="line2d_7">
    <path d="M 253.050692 184.743587 
L 178.35209 261.402729 
" style="fill: none; stroke: #000000; stroke-width: 0.8; stroke-linecap: square"/>
   </g>
   <g id="xtick_6">
    <g id="line2d_8">
     <path d="M 189.336092 248.549294 
L 192.860948 249.679424 
" style="fill: none; stroke: #000000; stroke-width: 0.8; stroke-linecap: square"/>
    </g>
    <g id="text_7">
     <!-- −0.4 -->
     <g transform="translate(191.15013 269.834969) scale(0.1 -0.1)">
      <defs>
       <path id="DejaVuSans-34" d="M 2419 4116 
L 825 1625 
L 2419 1625 
L 2419 4116 
z
M 2253 4666 
L 3047 4666 
L 3047 1625 
L 3713 1625 
L 3713 1100 
L 3047 1100 
L 3047 0 
L 2419 0 
L 2419 1100 
L 313 1100 
L 313 1709 
L 2253 4666 
z
" transform="scale(0.015625)"/>
      </defs>
      <use xlink:href="#DejaVuSans-2212"/>
      <use xlink:href="#DejaVuSans-30" transform="translate(83.789062 0)"/>
      <use xlink:href="#DejaVuSans-2e" transform="translate(147.412109 0)"/>
      <use xlink:href="#DejaVuSans-34" transform="translate(179.199219 0)"/>
     </g>
    </g>
   </g>
   <g id="xtick_7">
    <g id="line2d_9">
     <path d="M 202.994651 234.557361 
L 206.480701 235.65186 
" style="fill: none; stroke: #000000; stroke-width: 0.8; stroke-linecap: square"/>
    </g>
    <g id="text_8">
     <!-- −0.2 -->
     <g transform="translate(204.601076 255.610873) scale(0.1 -0.1)">
      <defs>
       <path id="DejaVuSans-32" d="M 1228 531 
L 3431 531 
L 3431 0 
L 469 0 
L 469 531 
Q 828 903 1448 1529 
Q 2069 2156 2228 2338 
Q 2531 2678 2651 2914 
Q 2772 3150 2772 3378 
Q 2772 3750 2511 3984 
Q 2250 4219 1831 4219 
Q 1534 4219 1204 4116 
Q 875 4013 500 3803 
L 500 4441 
Q 881 4594 1212 4672 
Q 1544 4750 1819 4750 
Q 2544 4750 2975 4387 
Q 3406 4025 3406 3419 
Q 3406 3131 3298 2873 
Q 3191 2616 2906 2266 
Q 2828 2175 2409 1742 
Q 1991 1309 1228 531 
z
" transform="scale(0.015625)"/>
      </defs>
      <use xlink:href="#DejaVuSans-2212"/>
      <use xlink:href="#DejaVuSans-30" transform="translate(83.789062 0)"/>
      <use xlink:href="#DejaVuSans-2e" transform="translate(147.412109 0)"/>
      <use xlink:href="#DejaVuSans-32" transform="translate(179.199219 0)"/>
     </g>
    </g>
   </g>
   <g id="xtick_8">
    <g id="line2d_10">
     <path d="M 216.22619 221.00287 
L 219.674119 222.063398 
" style="fill: none; stroke: #000000; stroke-width: 0.8; stroke-linecap: square"/>
    </g>
    <g id="text_9">
     <!-- 0.0 -->
     <g transform="translate(221.820905 241.831935) scale(0.1 -0.1)">
      <use xlink:href="#DejaVuSans-30"/>
      <use xlink:href="#DejaVuSans-2e" transform="translate(63.623047 0)"/>
      <use xlink:href="#DejaVuSans-30" transform="translate(95.410156 0)"/>
     </g>
    </g>
   </g>
   <g id="xtick_9">
    <g id="line2d_11">
     <path d="M 229.050427 207.865624 
L 232.460911 208.893737 
" style="fill: none; stroke: #000000; stroke-width: 0.8; stroke-linecap: square"/>
    </g>
    <g id="text_10">
     <!-- 0.2 -->
     <g transform="translate(234.449387 228.477578) scale(0.1 -0.1)">
      <use xlink:href="#DejaVuSans-30"/>
      <use xlink:href="#DejaVuSans-2e" transform="translate(63.623047 0)"/>
      <use xlink:href="#DejaVuSans-32" transform="translate(95.410156 0)"/>
     </g>
    </g>
   </g>
   <g id="xtick_10">
    <g id="line2d_12">
     <path d="M 241.485883 195.126647 
L 244.85959 196.12381 
" style="fill: none; stroke: #000000; stroke-width: 0.8; stroke-linecap: square"/>
    </g>
    <g id="text_11">
     <!-- 0.4 -->
     <g transform="translate(246.694643 215.528475) scale(0.1 -0.1)">
      <use xlink:href="#DejaVuSans-30"/>
      <use xlink:href="#DejaVuSans-2e" transform="translate(63.623047 0)"/>
      <use xlink:href="#DejaVuSans-34" transform="translate(95.410156 0)"/>
     </g>
    </g>
   </g>
   <g id="text_12">
    <!-- Y -->
    <g transform="translate(241.292007 252.129948) scale(0.1 -0.1)">
     <defs>
      <path id="DejaVuSans-59" d="M -13 4666 
L 666 4666 
L 1959 2747 
L 3244 4666 
L 3922 4666 
L 2272 2222 
L 2272 0 
L 1638 0 
L 1638 2222 
L -13 4666 
z
" transform="scale(0.015625)"/>
     </defs>
     <use xlink:href="#DejaVuSans-59"/>
    </g>
   </g>
  </g>
  <g id="axis3d_3">
   <g id="line2d_13">
    <path d="M 253.050692 184.743587 
L 257.784359 81.372396 
" style="fill: none; stroke: #000000; stroke-width: 0.8; stroke-linecap: square"/>
   </g>
   <g id="xtick_11">
    <g id="line2d_14">
     <path d="M 252.459843 172.888689 
L 255.819631 173.851284 
" style="fill: none; stroke: #000000; stroke-width: 0.8; stroke-linecap: square"/>
    </g>
    <g id="text_13">
     <!-- −0.4 -->
     <g transform="translate(259.771879 178.227194) scale(0.1 -0.1)">
      <use xlink:href="#DejaVuSans-2212"/>
      <use xlink:href="#DejaVuSans-30" transform="translate(83.789062 0)"/>
      <use xlink:href="#DejaVuSans-2e" transform="translate(147.412109 0)"/>
      <use xlink:href="#DejaVuSans-34" transform="translate(179.199219 0)"/>
     </g>
    </g>
   </g>
   <g id="xtick_12">
    <g id="line2d_15">
     <path d="M 253.336099 153.547048 
L 256.724994 154.494371 
" style="fill: none; stroke: #000000; stroke-width: 0.8; stroke-linecap: square"/>
    </g>
    <g id="text_14">
     <!-- −0.2 -->
     <g transform="translate(260.807422 158.921482) scale(0.1 -0.1)">
      <use xlink:href="#DejaVuSans-2212"/>
      <use xlink:href="#DejaVuSans-30" transform="translate(83.789062 0)"/>
      <use xlink:href="#DejaVuSans-2e" transform="translate(147.412109 0)"/>
      <use xlink:href="#DejaVuSans-32" transform="translate(179.199219 0)"/>
     </g>
    </g>
   </g>
   <g id="xtick_13">
    <g id="line2d_16">
     <path d="M 254.227092 133.880107 
L 257.645603 134.811506 
" style="fill: none; stroke: #000000; stroke-width: 0.8; stroke-linecap: square"/>
    </g>
    <g id="text_15">
     <!-- 0.0 -->
     <g transform="translate(266.050176 139.292001) scale(0.1 -0.1)">
      <use xlink:href="#DejaVuSans-30"/>
      <use xlink:href="#DejaVuSans-2e" transform="translate(63.623047 0)"/>
      <use xlink:href="#DejaVuSans-30" transform="translate(95.410156 0)"/>
     </g>
    </g>
   </g>
   <g id="xtick_14">
    <g id="line2d_17">
     <path d="M 255.133197 113.879592 
L 258.581845 114.794387 
" style="fill: none; stroke: #000000; stroke-width: 0.8; stroke-linecap: square"/>
    </g>
    <g id="text_16">
     <!-- 0.2 -->
     <g transform="translate(267.120893 119.330538) scale(0.1 -0.1)">
      <use xlink:href="#DejaVuSans-30"/>
      <use xlink:href="#DejaVuSans-2e" transform="translate(63.623047 0)"/>
      <use xlink:href="#DejaVuSans-32" transform="translate(95.410156 0)"/>
     </g>
    </g>
   </g>
   <g id="xtick_15">
    <g id="line2d_18">
     <path d="M 256.054803 93.536942 
L 259.534123 94.434427 
" style="fill: none; stroke: #000000; stroke-width: 0.8; stroke-linecap: square"/>
    </g>
    <g id="text_17">
     <!-- 0.4 -->
     <g transform="translate(268.209872 99.028599) scale(0.1 -0.1)">
      <use xlink:href="#DejaVuSans-30"/>
      <use xlink:href="#DejaVuSans-2e" transform="translate(63.623047 0)"/>
      <use xlink:href="#DejaVuSans-34" transform="translate(95.410156 0)"/>
     </g>
    </g>
   </g>
   <g id="text_18">
    <!-- Z -->
    <g transform="translate(292.299579 131.542629) scale(0.1 -0.1)">
     <defs>
      <path id="DejaVuSans-5a" d="M 359 4666 
L 4025 4666 
L 4025 4184 
L 1075 531 
L 4097 531 
L 4097 0 
L 288 0 
L 288 481 
L 3238 4134 
L 359 4134 
L 359 4666 
z
" transform="scale(0.015625)"/>
     </defs>
     <use xlink:href="#DejaVuSans-5a"/>
    </g>
   </g>
  </g>
  <g id="axes_1">
   <g id="Poly3DCollection_1">
    <path d="M 123.624014 150.699251 
L 123.144375 103.427963 
L 151.86613 111.309775 
L 151.776479 158.919581 
z
" clip-path="url(#p4a77b467e6)" style="fill: #90ee90; fill-opacity: 0.6; stroke: #000000"/>
    <path d="M 89.071048 179.931288 
L 117.909333 188.780128 
L 151.776479 158.919581 
L 123.624014 150.699251 
z
" clip-path="url(#p4a77b467e6)" style="fill: #90ee90; fill-opacity: 0.6; stroke: #000000"/>
    <path d="M 151.776479 158.919581 
L 151.86613 111.309775 
L 181.20973 119.362232 
L 180.526146 167.314289 
z
" clip-path="url(#p4a77b467e6)" style="fill: #90ee90; fill-opacity: 0.6; stroke: #000000"/>
    <path d="M 89.071048 179.931288 
L 123.624014 150.699251 
L 123.144375 103.427963 
L 87.849002 131.471398 
z
" clip-path="url(#p4a77b467e6)" style="fill: #90ee90; fill-opacity: 0.6; stroke: #000000"/>
    <path d="M 117.909333 188.780128 
L 147.382703 197.82384 
L 180.526146 167.314289 
L 151.776479 158.919581 
z
" clip-path="url(#p4a77b467e6)" style="fill: #90ee90; fill-opacity: 0.6; stroke: #000000"/>
    <path d="M 123.144375 103.427963 
L 122.644972 54.208732 
L 151.959516 61.716628 
L 151.86613 111.309775 
z
" clip-path="url(#p4a77b467e6)" style="fill: #90ee90; fill-opacity: 0.6; stroke: #000000"/>
    <path d="M 180.526146 167.314289 
L 181.20973 119.362232 
L 211.195589 127.590939 
L 209.892221 175.888984 
z
" clip-path="url(#p4a77b467e6)" style="fill: #90ee90; fill-opacity: 0.6; stroke: #000000"/>
    <path d="M 147.382703 197.82384 
L 177.512369 207.068932 
L 209.892221 175.888984 
L 180.526146 167.314289 
z
" clip-path="url(#p4a77b467e6)" style="fill: #90ee90; fill-opacity: 0.6; stroke: #000000"/>
    <path d="M 151.86613 111.309775 
L 151.959516 61.716628 
L 181.922105 69.390498 
L 181.20973 119.362232 
z
" clip-path="url(#p4a77b467e6)" style="fill: #90ee90; fill-opacity: 0.6; stroke: #000000"/>
    <path d="M 209.892221 175.888984 
L 211.195589 127.590939 
L 241.845029 136.001745 
L 239.894743 184.649518 
z
" clip-path="url(#p4a77b467e6)" style="fill: #90ee90; fill-opacity: 0.6; stroke: #000000"/>
    <path d="M 87.849002 131.471398 
L 123.144375 103.427963 
L 122.644972 54.208732 
L 86.574638 80.936867 
z
" clip-path="url(#p4a77b467e6)" style="fill: #90ee90; fill-opacity: 0.6; stroke: #000000"/>
    <path d="M 177.512369 207.068932 
L 208.3205 216.522207 
L 239.894743 184.649518 
L 209.892221 175.888984 
z
" clip-path="url(#p4a77b467e6)" style="fill: #90ee90; fill-opacity: 0.6; stroke: #000000"/>
    <path d="M 181.20973 119.362232 
L 181.922105 69.390498 
L 212.554467 77.235907 
L 211.195589 127.590939 
z
" clip-path="url(#p4a77b467e6)" style="fill: #90ee90; fill-opacity: 0.6; stroke: #000000"/>
    <path d="M 51.838937 211.429899 
L 81.386497 220.982188 
L 117.909333 188.780128 
L 89.071048 179.931288 
z
" clip-path="url(#p4a77b467e6)" style="fill: #90ee90; fill-opacity: 0.6; stroke: #000000"/>
    <path d="M 86.574638 80.936867 
L 116.633196 89.043993 
L 151.959516 61.716628 
L 122.644972 54.208732 
z
" clip-path="url(#p4a77b467e6)" style="fill: #90ee90; fill-opacity: 0.6; stroke: #000000"/>
    <path d="M 51.838937 211.429899 
L 89.071048 179.931288 
L 87.849002 131.471398 
L 49.757292 161.736622 
z
" clip-path="url(#p4a77b467e6)" style="fill: #90ee90; fill-opacity: 0.6; stroke: #000000"/>
    <path d="M 211.195589 127.590939 
L 212.554467 77.235907 
L 243.879315 85.258672 
L 241.845029 136.001745 
z
" clip-path="url(#p4a77b467e6)" style="fill: #90ee90; fill-opacity: 0.6; stroke: #000000"/>
    <path d="M 208.3205 216.522207 
L 239.894743 184.649518 
L 241.845029 136.001745 
L 209.656359 166.634153 
z
" clip-path="url(#p4a77b467e6)" style="fill: #90ee90; fill-opacity: 0.6; stroke: #000000"/>
    <path d="M 81.386497 220.982188 
L 111.610566 230.753183 
L 147.382703 197.82384 
L 117.909333 188.780128 
z
" clip-path="url(#p4a77b467e6)" style="fill: #90ee90; fill-opacity: 0.6; stroke: #000000"/>
    <path d="M 116.633196 89.043993 
L 147.382703 97.337476 
L 181.922105 69.390498 
L 151.959516 61.716628 
z
" clip-path="url(#p4a77b467e6)" style="fill: #90ee90; fill-opacity: 0.6; stroke: #000000"/>
    <path d="M 111.610566 230.753183 
L 142.534646 240.750481 
L 177.512369 207.068932 
L 147.382703 197.82384 
z
" clip-path="url(#p4a77b467e6)" style="fill: #90ee90; fill-opacity: 0.6; stroke: #000000"/>
    <path d="M 147.382703 97.337476 
L 178.847259 105.823815 
L 212.554467 77.235907 
L 181.922105 69.390498 
z
" clip-path="url(#p4a77b467e6)" style="fill: #90ee90; fill-opacity: 0.6; stroke: #000000"/>
    <path d="M 49.757292 161.736622 
L 87.849002 131.471398 
L 86.574638 80.936867 
L 47.58292 109.829748 
z
" clip-path="url(#p4a77b467e6)" style="fill: #90ee90; fill-opacity: 0.6; stroke: #000000"/>
    <path d="M 51.838937 211.429899 
L 49.757292 161.736622 
L 79.931982 170.924603 
L 81.386497 220.982188 
z
" clip-path="url(#p4a77b467e6)" style="fill: #90ee90; fill-opacity: 0.6; stroke: #000000"/>
    <path d="M 209.656359 166.634153 
L 241.845029 136.001745 
L 243.879315 85.258672 
L 211.052099 114.509817 
z
" clip-path="url(#p4a77b467e6)" style="fill: #90ee90; fill-opacity: 0.6; stroke: #000000"/>
    <path d="M 142.534646 240.750481 
L 174.183341 250.982036 
L 208.3205 216.522207 
L 177.512369 207.068932 
z
" clip-path="url(#p4a77b467e6)" style="fill: #90ee90; fill-opacity: 0.6; stroke: #000000"/>
    <path d="M 178.847259 105.823815 
L 211.052099 114.509817 
L 243.879315 85.258672 
L 212.554467 77.235907 
z
" clip-path="url(#p4a77b467e6)" style="fill: #90ee90; fill-opacity: 0.6; stroke: #000000"/>
    <path d="M 81.386497 220.982188 
L 79.931982 170.924603 
L 110.812944 180.327638 
L 111.610566 230.753183 
z
" clip-path="url(#p4a77b467e6)" style="fill: #90ee90; fill-opacity: 0.6; stroke: #000000"/>
    <path d="M 47.58292 109.829748 
L 78.411909 118.610816 
L 116.633196 89.043993 
L 86.574638 80.936867 
z
" clip-path="url(#p4a77b467e6)" style="fill: #90ee90; fill-opacity: 0.6; stroke: #000000"/>
    <path d="M 174.183341 250.982036 
L 208.3205 216.522207 
L 209.656359 166.634153 
L 174.795245 199.809797 
z
" clip-path="url(#p4a77b467e6)" style="fill: #90ee90; fill-opacity: 0.6; stroke: #000000"/>
    <path d="M 49.757292 161.736622 
L 47.58292 109.829748 
L 78.411909 118.610816 
L 79.931982 170.924603 
z
" clip-path="url(#p4a77b467e6)" style="fill: #90ee90; fill-opacity: 0.6; stroke: #000000"/>
    <path d="M 111.610566 230.753183 
L 110.812944 180.327638 
L 142.425267 189.953367 
L 142.534646 240.750481 
z
" clip-path="url(#p4a77b467e6)" style="fill: #90ee90; fill-opacity: 0.6; stroke: #000000"/>
    <path d="M 78.411909 118.610816 
L 109.978941 127.602102 
L 147.382703 97.337476 
L 116.633196 89.043993 
z
" clip-path="url(#p4a77b467e6)" style="fill: #90ee90; fill-opacity: 0.6; stroke: #000000"/>
    <path d="M 79.931982 170.924603 
L 78.411909 118.610816 
L 109.978941 127.602102 
L 110.812944 180.327638 
z
" clip-path="url(#p4a77b467e6)" style="fill: #90ee90; fill-opacity: 0.6; stroke: #000000"/>
    <path d="M 142.534646 240.750481 
L 142.425267 189.953367 
L 174.795245 199.809797 
L 174.183341 250.982036 
z
" clip-path="url(#p4a77b467e6)" style="fill: #90ee90; fill-opacity: 0.6; stroke: #000000"/>
    <path d="M 109.978941 127.602102 
L 142.310839 136.811246 
L 178.847259 105.823815 
L 147.382703 97.337476 
z
" clip-path="url(#p4a77b467e6)" style="fill: #90ee90; fill-opacity: 0.6; stroke: #000000"/>
    <path d="M 174.795245 199.809797 
L 209.656359 166.634153 
L 211.052099 114.509817 
L 175.435743 146.246263 
z
" clip-path="url(#p4a77b467e6)" style="fill: #90ee90; fill-opacity: 0.6; stroke: #000000"/>
    <path d="M 110.812944 180.327638 
L 109.978941 127.602102 
L 142.310839 136.811246 
L 142.425267 189.953367 
z
" clip-path="url(#p4a77b467e6)" style="fill: #90ee90; fill-opacity: 0.6; stroke: #000000"/>
    <path d="M 142.310839 136.811246 
L 175.435743 146.246263 
L 211.052099 114.509817 
L 178.847259 105.823815 
z
" clip-path="url(#p4a77b467e6)" style="fill: #90ee90; fill-opacity: 0.6; stroke: #000000"/>
    <path d="M 142.425267 189.953367 
L 142.310839 136.811246 
L 175.435743 146.246263 
L 174.795245 199.809797 
z
" clip-path="url(#p4a77b467e6)" style="fill: #90ee90; fill-opacity: 0.6; stroke: #000000"/>
   </g>
   <g id="text_19">
    <!-- Cuboid Mesh with Resolution -->
    <g transform="translate(57.455625 20.88) scale(0.12 -0.12)">
     <defs>
      <path id="DejaVuSans-43" d="M 4122 4306 
L 4122 3641 
Q 3803 3938 3442 4084 
Q 3081 4231 2675 4231 
Q 1875 4231 1450 3742 
Q 1025 3253 1025 2328 
Q 1025 1406 1450 917 
Q 1875 428 2675 428 
Q 3081 428 3442 575 
Q 3803 722 4122 1019 
L 4122 359 
Q 3791 134 3420 21 
Q 3050 -91 2638 -91 
Q 1578 -91 968 557 
Q 359 1206 359 2328 
Q 359 3453 968 4101 
Q 1578 4750 2638 4750 
Q 3056 4750 3426 4639 
Q 3797 4528 4122 4306 
z
" transform="scale(0.015625)"/>
      <path id="DejaVuSans-75" d="M 544 1381 
L 544 3500 
L 1119 3500 
L 1119 1403 
Q 1119 906 1312 657 
Q 1506 409 1894 409 
Q 2359 409 2629 706 
Q 2900 1003 2900 1516 
L 2900 3500 
L 3475 3500 
L 3475 0 
L 2900 0 
L 2900 538 
Q 2691 219 2414 64 
Q 2138 -91 1772 -91 
Q 1169 -91 856 284 
Q 544 659 544 1381 
z
M 1991 3584 
L 1991 3584 
z
" transform="scale(0.015625)"/>
      <path id="DejaVuSans-62" d="M 3116 1747 
Q 3116 2381 2855 2742 
Q 2594 3103 2138 3103 
Q 1681 3103 1420 2742 
Q 1159 2381 1159 1747 
Q 1159 1113 1420 752 
Q 1681 391 2138 391 
Q 2594 391 2855 752 
Q 3116 1113 3116 1747 
z
M 1159 2969 
Q 1341 3281 1617 3432 
Q 1894 3584 2278 3584 
Q 2916 3584 3314 3078 
Q 3713 2572 3713 1747 
Q 3713 922 3314 415 
Q 2916 -91 2278 -91 
Q 1894 -91 1617 61 
Q 1341 213 1159 525 
L 1159 0 
L 581 0 
L 581 4863 
L 1159 4863 
L 1159 2969 
z
" transform="scale(0.015625)"/>
      <path id="DejaVuSans-6f" d="M 1959 3097 
Q 1497 3097 1228 2736 
Q 959 2375 959 1747 
Q 959 1119 1226 758 
Q 1494 397 1959 397 
Q 2419 397 2687 759 
Q 2956 1122 2956 1747 
Q 2956 2369 2687 2733 
Q 2419 3097 1959 3097 
z
M 1959 3584 
Q 2709 3584 3137 3096 
Q 3566 2609 3566 1747 
Q 3566 888 3137 398 
Q 2709 -91 1959 -91 
Q 1206 -91 779 398 
Q 353 888 353 1747 
Q 353 2609 779 3096 
Q 1206 3584 1959 3584 
z
" transform="scale(0.015625)"/>
      <path id="DejaVuSans-69" d="M 603 3500 
L 1178 3500 
L 1178 0 
L 603 0 
L 603 3500 
z
M 603 4863 
L 1178 4863 
L 1178 4134 
L 603 4134 
L 603 4863 
z
" transform="scale(0.015625)"/>
      <path id="DejaVuSans-64" d="M 2906 2969 
L 2906 4863 
L 3481 4863 
L 3481 0 
L 2906 0 
L 2906 525 
Q 2725 213 2448 61 
Q 2172 -91 1784 -91 
Q 1150 -91 751 415 
Q 353 922 353 1747 
Q 353 2572 751 3078 
Q 1150 3584 1784 3584 
Q 2172 3584 2448 3432 
Q 2725 3281 2906 2969 
z
M 947 1747 
Q 947 1113 1208 752 
Q 1469 391 1925 391 
Q 2381 391 2643 752 
Q 2906 1113 2906 1747 
Q 2906 2381 2643 2742 
Q 2381 3103 1925 3103 
Q 1469 3103 1208 2742 
Q 947 2381 947 1747 
z
" transform="scale(0.015625)"/>
      <path id="DejaVuSans-20" transform="scale(0.015625)"/>
      <path id="DejaVuSans-4d" d="M 628 4666 
L 1569 4666 
L 2759 1491 
L 3956 4666 
L 4897 4666 
L 4897 0 
L 4281 0 
L 4281 4097 
L 3078 897 
L 2444 897 
L 1241 4097 
L 1241 0 
L 628 0 
L 628 4666 
z
" transform="scale(0.015625)"/>
      <path id="DejaVuSans-65" d="M 3597 1894 
L 3597 1613 
L 953 1613 
Q 991 1019 1311 708 
Q 1631 397 2203 397 
Q 2534 397 2845 478 
Q 3156 559 3463 722 
L 3463 178 
Q 3153 47 2828 -22 
Q 2503 -91 2169 -91 
Q 1331 -91 842 396 
Q 353 884 353 1716 
Q 353 2575 817 3079 
Q 1281 3584 2069 3584 
Q 2775 3584 3186 3129 
Q 3597 2675 3597 1894 
z
M 3022 2063 
Q 3016 2534 2758 2815 
Q 2500 3097 2075 3097 
Q 1594 3097 1305 2825 
Q 1016 2553 972 2059 
L 3022 2063 
z
" transform="scale(0.015625)"/>
      <path id="DejaVuSans-73" d="M 2834 3397 
L 2834 2853 
Q 2591 2978 2328 3040 
Q 2066 3103 1784 3103 
Q 1356 3103 1142 2972 
Q 928 2841 928 2578 
Q 928 2378 1081 2264 
Q 1234 2150 1697 2047 
L 1894 2003 
Q 2506 1872 2764 1633 
Q 3022 1394 3022 966 
Q 3022 478 2636 193 
Q 2250 -91 1575 -91 
Q 1294 -91 989 -36 
Q 684 19 347 128 
L 347 722 
Q 666 556 975 473 
Q 1284 391 1588 391 
Q 1994 391 2212 530 
Q 2431 669 2431 922 
Q 2431 1156 2273 1281 
Q 2116 1406 1581 1522 
L 1381 1569 
Q 847 1681 609 1914 
Q 372 2147 372 2553 
Q 372 3047 722 3315 
Q 1072 3584 1716 3584 
Q 2034 3584 2315 3537 
Q 2597 3491 2834 3397 
z
" transform="scale(0.015625)"/>
      <path id="DejaVuSans-68" d="M 3513 2113 
L 3513 0 
L 2938 0 
L 2938 2094 
Q 2938 2591 2744 2837 
Q 2550 3084 2163 3084 
Q 1697 3084 1428 2787 
Q 1159 2491 1159 1978 
L 1159 0 
L 581 0 
L 581 4863 
L 1159 4863 
L 1159 2956 
Q 1366 3272 1645 3428 
Q 1925 3584 2291 3584 
Q 2894 3584 3203 3211 
Q 3513 2838 3513 2113 
z
" transform="scale(0.015625)"/>
      <path id="DejaVuSans-77" d="M 269 3500 
L 844 3500 
L 1563 769 
L 2278 3500 
L 2956 3500 
L 3675 769 
L 4391 3500 
L 4966 3500 
L 4050 0 
L 3372 0 
L 2619 2869 
L 1863 0 
L 1184 0 
L 269 3500 
z
" transform="scale(0.015625)"/>
      <path id="DejaVuSans-74" d="M 1172 4494 
L 1172 3500 
L 2356 3500 
L 2356 3053 
L 1172 3053 
L 1172 1153 
Q 1172 725 1289 603 
Q 1406 481 1766 481 
L 2356 481 
L 2356 0 
L 1766 0 
Q 1100 0 847 248 
Q 594 497 594 1153 
L 594 3053 
L 172 3053 
L 172 3500 
L 594 3500 
L 594 4494 
L 1172 4494 
z
" transform="scale(0.015625)"/>
      <path id="DejaVuSans-52" d="M 2841 2188 
Q 3044 2119 3236 1894 
Q 3428 1669 3622 1275 
L 4263 0 
L 3584 0 
L 2988 1197 
Q 2756 1666 2539 1819 
Q 2322 1972 1947 1972 
L 1259 1972 
L 1259 0 
L 628 0 
L 628 4666 
L 2053 4666 
Q 2853 4666 3247 4331 
Q 3641 3997 3641 3322 
Q 3641 2881 3436 2590 
Q 3231 2300 2841 2188 
z
M 1259 4147 
L 1259 2491 
L 2053 2491 
Q 2509 2491 2742 2702 
Q 2975 2913 2975 3322 
Q 2975 3731 2742 3939 
Q 2509 4147 2053 4147 
L 1259 4147 
z
" transform="scale(0.015625)"/>
      <path id="DejaVuSans-6c" d="M 603 4863 
L 1178 4863 
L 1178 0 
L 603 0 
L 603 4863 
z
" transform="scale(0.015625)"/>
      <path id="DejaVuSans-6e" d="M 3513 2113 
L 3513 0 
L 2938 0 
L 2938 2094 
Q 2938 2591 2744 2837 
Q 2550 3084 2163 3084 
Q 1697 3084 1428 2787 
Q 1159 2491 1159 1978 
L 1159 0 
L 581 0 
L 581 3500 
L 1159 3500 
L 1159 2956 
Q 1366 3272 1645 3428 
Q 1925 3584 2291 3584 
Q 2894 3584 3203 3211 
Q 3513 2838 3513 2113 
z
" transform="scale(0.015625)"/>
     </defs>
     <use xlink:href="#DejaVuSans-43"/>
     <use xlink:href="#DejaVuSans-75" transform="translate(69.824219 0)"/>
     <use xlink:href="#DejaVuSans-62" transform="translate(133.203125 0)"/>
     <use xlink:href="#DejaVuSans-6f" transform="translate(196.679688 0)"/>
     <use xlink:href="#DejaVuSans-69" transform="translate(257.861328 0)"/>
     <use xlink:href="#DejaVuSans-64" transform="translate(285.644531 0)"/>
     <use xlink:href="#DejaVuSans-20" transform="translate(349.121094 0)"/>
     <use xlink:href="#DejaVuSans-4d" transform="translate(380.908203 0)"/>
     <use xlink:href="#DejaVuSans-65" transform="translate(467.1875 0)"/>
     <use xlink:href="#DejaVuSans-73" transform="translate(528.710938 0)"/>
     <use xlink:href="#DejaVuSans-68" transform="translate(580.810547 0)"/>
     <use xlink:href="#DejaVuSans-20" transform="translate(644.189453 0)"/>
     <use xlink:href="#DejaVuSans-77" transform="translate(675.976562 0)"/>
     <use xlink:href="#DejaVuSans-69" transform="translate(757.763672 0)"/>
     <use xlink:href="#DejaVuSans-74" transform="translate(785.546875 0)"/>
     <use xlink:href="#DejaVuSans-68" transform="translate(824.755859 0)"/>
     <use xlink:href="#DejaVuSans-20" transform="translate(888.134766 0)"/>
     <use xlink:href="#DejaVuSans-52" transform="translate(919.921875 0)"/>
     <use xlink:href="#DejaVuSans-65" transform="translate(984.904297 0)"/>
     <use xlink:href="#DejaVuSans-73" transform="translate(1046.427734 0)"/>
     <use xlink:href="#DejaVuSans-6f" transform="translate(1098.527344 0)"/>
     <use xlink:href="#DejaVuSans-6c" transform="translate(1159.708984 0)"/>
     <use xlink:href="#DejaVuSans-75" transform="translate(1187.492188 0)"/>
     <use xlink:href="#DejaVuSans-74" transform="translate(1250.871094 0)"/>
     <use xlink:href="#DejaVuSans-69" transform="translate(1290.080078 0)"/>
     <use xlink:href="#DejaVuSans-6f" transform="translate(1317.863281 0)"/>
     <use xlink:href="#DejaVuSans-6e" transform="translate(1379.044922 0)"/>
    </g>
   </g>
  </g>
 </g>
 <defs>
  <clipPath id="p4a77b467e6">
   <rect x="18.84" y="26.88" width="250.32" height="250.32"/>
  </clipPath>
 </defs>
</svg>
