<?xml version="1.0" encoding="utf-8" standalone="no"?>
<!DOCTYPE svg PUBLIC "-//W3C//DTD SVG 1.1//EN"
  "http://www.w3.org/Graphics/SVG/1.1/DTD/svg11.dtd">
<svg xmlns:xlink="http://www.w3.org/1999/xlink" width="281.756875pt" height="267.95625pt" viewBox="0 0 281.756875 267.95625" xmlns="http://www.w3.org/2000/svg" version="1.1">
 <metadata>
  <rdf:RDF xmlns:dc="http://purl.org/dc/elements/1.1/" xmlns:cc="http://creativecommons.org/ns#" xmlns:rdf="http://www.w3.org/1999/02/22-rdf-syntax-ns#">
   <cc:Work>
    <dc:type rdf:resource="http://purl.org/dc/dcmitype/StillImage"/>
    <dc:date>2025-04-27T18:22:47.000288</dc:date>
    <dc:format>image/svg+xml</dc:format>
    <dc:creator>
     <cc:Agent>
      <dc:title>Matplotlib v3.10.1, https://matplotlib.org/</dc:title>
     </cc:Agent>
    </dc:creator>
   </cc:Work>
  </rdf:RDF>
 </metadata>
 <defs>
  <style type="text/css">*{stroke-linejoin: round; stroke-linecap: butt}</style>
 </defs>
 <g id="figure_1">
  <g id="patch_1">
   <path d="M 0 267.95625 
L 281.756875 267.95625 
L 281.756875 0 
L 0 0 
z
" style="fill: #ffffff"/>
  </g>
  <g id="axes_1">
   <g id="patch_2">
    <path d="M 44.845313 244.078125 
L 266.605313 244.078125 
L 266.605313 22.318125 
L 44.845313 22.318125 
z
" style="fill: #ffffff"/>
   </g>
   <g id="PatchCollection_1">
    <path d="M 155.725313 133.198125 
L 166.813313 133.198125 
L 166.270627 129.771745 
z
" clip-path="url(#p80c5cc1a22)" style="fill: #add8e6; fill-opacity: 0.7; stroke: #000000; stroke-opacity: 0.7"/>
    <path d="M 155.725313 133.198125 
L 166.270627 129.771745 
L 164.695693 126.680762 
z
" clip-path="url(#p80c5cc1a22)" style="fill: #add8e6; fill-opacity: 0.7; stroke: #000000; stroke-opacity: 0.7"/>
    <path d="M 155.725313 133.198125 
L 164.695693 126.680762 
L 162.242675 124.227745 
z
" clip-path="url(#p80c5cc1a22)" style="fill: #add8e6; fill-opacity: 0.7; stroke: #000000; stroke-opacity: 0.7"/>
    <path d="M 155.725313 133.198125 
L 162.242675 124.227745 
L 159.151693 122.65281 
z
" clip-path="url(#p80c5cc1a22)" style="fill: #add8e6; fill-opacity: 0.7; stroke: #000000; stroke-opacity: 0.7"/>
    <path d="M 155.725313 133.198125 
L 159.151693 122.65281 
L 155.725313 122.110125 
z
" clip-path="url(#p80c5cc1a22)" style="fill: #add8e6; fill-opacity: 0.7; stroke: #000000; stroke-opacity: 0.7"/>
    <path d="M 155.725313 133.198125 
L 155.725313 122.110125 
L 152.298932 122.65281 
z
" clip-path="url(#p80c5cc1a22)" style="fill: #add8e6; fill-opacity: 0.7; stroke: #000000; stroke-opacity: 0.7"/>
    <path d="M 155.725313 133.198125 
L 152.298932 122.65281 
L 149.20795 124.227745 
z
" clip-path="url(#p80c5cc1a22)" style="fill: #add8e6; fill-opacity: 0.7; stroke: #000000; stroke-opacity: 0.7"/>
    <path d="M 155.725313 133.198125 
L 149.20795 124.227745 
L 146.754932 126.680762 
z
" clip-path="url(#p80c5cc1a22)" style="fill: #add8e6; fill-opacity: 0.7; stroke: #000000; stroke-opacity: 0.7"/>
    <path d="M 155.725313 133.198125 
L 146.754932 126.680762 
L 145.179998 129.771745 
z
" clip-path="url(#p80c5cc1a22)" style="fill: #add8e6; fill-opacity: 0.7; stroke: #000000; stroke-opacity: 0.7"/>
    <path d="M 155.725313 133.198125 
L 145.179998 129.771745 
L 144.637313 133.198125 
z
" clip-path="url(#p80c5cc1a22)" style="fill: #add8e6; fill-opacity: 0.7; stroke: #000000; stroke-opacity: 0.7"/>
    <path d="M 155.725313 133.198125 
L 144.637313 133.198125 
L 145.179998 136.624505 
z
" clip-path="url(#p80c5cc1a22)" style="fill: #add8e6; fill-opacity: 0.7; stroke: #000000; stroke-opacity: 0.7"/>
    <path d="M 155.725313 133.198125 
L 145.179998 136.624505 
L 146.754932 139.715488 
z
" clip-path="url(#p80c5cc1a22)" style="fill: #add8e6; fill-opacity: 0.7; stroke: #000000; stroke-opacity: 0.7"/>
    <path d="M 155.725313 133.198125 
L 146.754932 139.715488 
L 149.20795 142.168505 
z
" clip-path="url(#p80c5cc1a22)" style="fill: #add8e6; fill-opacity: 0.7; stroke: #000000; stroke-opacity: 0.7"/>
    <path d="M 155.725313 133.198125 
L 149.20795 142.168505 
L 152.298932 143.74344 
z
" clip-path="url(#p80c5cc1a22)" style="fill: #add8e6; fill-opacity: 0.7; stroke: #000000; stroke-opacity: 0.7"/>
    <path d="M 155.725313 133.198125 
L 152.298932 143.74344 
L 155.725313 144.286125 
z
" clip-path="url(#p80c5cc1a22)" style="fill: #add8e6; fill-opacity: 0.7; stroke: #000000; stroke-opacity: 0.7"/>
    <path d="M 155.725313 133.198125 
L 155.725313 144.286125 
L 159.151693 143.74344 
z
" clip-path="url(#p80c5cc1a22)" style="fill: #add8e6; fill-opacity: 0.7; stroke: #000000; stroke-opacity: 0.7"/>
    <path d="M 155.725313 133.198125 
L 159.151693 143.74344 
L 162.242675 142.168505 
z
" clip-path="url(#p80c5cc1a22)" style="fill: #add8e6; fill-opacity: 0.7; stroke: #000000; stroke-opacity: 0.7"/>
    <path d="M 155.725313 133.198125 
L 162.242675 142.168505 
L 164.695693 139.715488 
z
" clip-path="url(#p80c5cc1a22)" style="fill: #add8e6; fill-opacity: 0.7; stroke: #000000; stroke-opacity: 0.7"/>
    <path d="M 155.725313 133.198125 
L 164.695693 139.715488 
L 166.270627 136.624505 
z
" clip-path="url(#p80c5cc1a22)" style="fill: #add8e6; fill-opacity: 0.7; stroke: #000000; stroke-opacity: 0.7"/>
    <path d="M 155.725313 133.198125 
L 166.270627 136.624505 
L 166.813313 133.198125 
z
" clip-path="url(#p80c5cc1a22)" style="fill: #add8e6; fill-opacity: 0.7; stroke: #000000; stroke-opacity: 0.7"/>
    <path d="M 166.813313 133.198125 
L 177.901313 133.198125 
L 176.815942 126.345364 
L 166.270627 129.771745 
z
" clip-path="url(#p80c5cc1a22)" style="fill: #add8e6; fill-opacity: 0.7; stroke: #000000; stroke-opacity: 0.7"/>
    <path d="M 166.270627 129.771745 
L 176.815942 126.345364 
L 173.666073 120.163399 
L 164.695693 126.680762 
z
" clip-path="url(#p80c5cc1a22)" style="fill: #add8e6; fill-opacity: 0.7; stroke: #000000; stroke-opacity: 0.7"/>
    <path d="M 164.695693 126.680762 
L 173.666073 120.163399 
L 168.760038 115.257364 
L 162.242675 124.227745 
z
" clip-path="url(#p80c5cc1a22)" style="fill: #add8e6; fill-opacity: 0.7; stroke: #000000; stroke-opacity: 0.7"/>
    <path d="M 162.242675 124.227745 
L 168.760038 115.257364 
L 162.578073 112.107496 
L 159.151693 122.65281 
z
" clip-path="url(#p80c5cc1a22)" style="fill: #add8e6; fill-opacity: 0.7; stroke: #000000; stroke-opacity: 0.7"/>
    <path d="M 159.151693 122.65281 
L 162.578073 112.107496 
L 155.725313 111.022125 
L 155.725313 122.110125 
z
" clip-path="url(#p80c5cc1a22)" style="fill: #add8e6; fill-opacity: 0.7; stroke: #000000; stroke-opacity: 0.7"/>
    <path d="M 155.725313 122.110125 
L 155.725313 111.022125 
L 148.872552 112.107496 
L 152.298932 122.65281 
z
" clip-path="url(#p80c5cc1a22)" style="fill: #add8e6; fill-opacity: 0.7; stroke: #000000; stroke-opacity: 0.7"/>
    <path d="M 152.298932 122.65281 
L 148.872552 112.107496 
L 142.690587 115.257364 
L 149.20795 124.227745 
z
" clip-path="url(#p80c5cc1a22)" style="fill: #add8e6; fill-opacity: 0.7; stroke: #000000; stroke-opacity: 0.7"/>
    <path d="M 149.20795 124.227745 
L 142.690587 115.257364 
L 137.784552 120.163399 
L 146.754932 126.680762 
z
" clip-path="url(#p80c5cc1a22)" style="fill: #add8e6; fill-opacity: 0.7; stroke: #000000; stroke-opacity: 0.7"/>
    <path d="M 146.754932 126.680762 
L 137.784552 120.163399 
L 134.634683 126.345364 
L 145.179998 129.771745 
z
" clip-path="url(#p80c5cc1a22)" style="fill: #add8e6; fill-opacity: 0.7; stroke: #000000; stroke-opacity: 0.7"/>
    <path d="M 145.179998 129.771745 
L 134.634683 126.345364 
L 133.549313 133.198125 
L 144.637313 133.198125 
z
" clip-path="url(#p80c5cc1a22)" style="fill: #add8e6; fill-opacity: 0.7; stroke: #000000; stroke-opacity: 0.7"/>
    <path d="M 144.637313 133.198125 
L 133.549313 133.198125 
L 134.634683 140.050886 
L 145.179998 136.624505 
z
" clip-path="url(#p80c5cc1a22)" style="fill: #add8e6; fill-opacity: 0.7; stroke: #000000; stroke-opacity: 0.7"/>
    <path d="M 145.179998 136.624505 
L 134.634683 140.050886 
L 137.784552 146.232851 
L 146.754932 139.715488 
z
" clip-path="url(#p80c5cc1a22)" style="fill: #add8e6; fill-opacity: 0.7; stroke: #000000; stroke-opacity: 0.7"/>
    <path d="M 146.754932 139.715488 
L 137.784552 146.232851 
L 142.690587 151.138886 
L 149.20795 142.168505 
z
" clip-path="url(#p80c5cc1a22)" style="fill: #add8e6; fill-opacity: 0.7; stroke: #000000; stroke-opacity: 0.7"/>
    <path d="M 149.20795 142.168505 
L 142.690587 151.138886 
L 148.872552 154.288754 
L 152.298932 143.74344 
z
" clip-path="url(#p80c5cc1a22)" style="fill: #add8e6; fill-opacity: 0.7; stroke: #000000; stroke-opacity: 0.7"/>
    <path d="M 152.298932 143.74344 
L 148.872552 154.288754 
L 155.725313 155.374125 
L 155.725313 144.286125 
z
" clip-path="url(#p80c5cc1a22)" style="fill: #add8e6; fill-opacity: 0.7; stroke: #000000; stroke-opacity: 0.7"/>
    <path d="M 155.725313 144.286125 
L 155.725313 155.374125 
L 162.578073 154.288754 
L 159.151693 143.74344 
z
" clip-path="url(#p80c5cc1a22)" style="fill: #add8e6; fill-opacity: 0.7; stroke: #000000; stroke-opacity: 0.7"/>
    <path d="M 159.151693 143.74344 
L 162.578073 154.288754 
L 168.760038 151.138886 
L 162.242675 142.168505 
z
" clip-path="url(#p80c5cc1a22)" style="fill: #add8e6; fill-opacity: 0.7; stroke: #000000; stroke-opacity: 0.7"/>
    <path d="M 162.242675 142.168505 
L 168.760038 151.138886 
L 173.666073 146.232851 
L 164.695693 139.715488 
z
" clip-path="url(#p80c5cc1a22)" style="fill: #add8e6; fill-opacity: 0.7; stroke: #000000; stroke-opacity: 0.7"/>
    <path d="M 164.695693 139.715488 
L 173.666073 146.232851 
L 176.815942 140.050886 
L 166.270627 136.624505 
z
" clip-path="url(#p80c5cc1a22)" style="fill: #add8e6; fill-opacity: 0.7; stroke: #000000; stroke-opacity: 0.7"/>
    <path d="M 166.270627 136.624505 
L 176.815942 140.050886 
L 177.901313 133.198125 
L 166.813313 133.198125 
z
" clip-path="url(#p80c5cc1a22)" style="fill: #add8e6; fill-opacity: 0.7; stroke: #000000; stroke-opacity: 0.7"/>
    <path d="M 177.901313 133.198125 
L 188.989313 133.198125 
L 187.361256 122.918984 
L 176.815942 126.345364 
z
" clip-path="url(#p80c5cc1a22)" style="fill: #add8e6; fill-opacity: 0.7; stroke: #000000; stroke-opacity: 0.7"/>
    <path d="M 176.815942 126.345364 
L 187.361256 122.918984 
L 182.636454 113.646036 
L 173.666073 120.163399 
z
" clip-path="url(#p80c5cc1a22)" style="fill: #add8e6; fill-opacity: 0.7; stroke: #000000; stroke-opacity: 0.7"/>
    <path d="M 173.666073 120.163399 
L 182.636454 113.646036 
L 175.277401 106.286984 
L 168.760038 115.257364 
z
" clip-path="url(#p80c5cc1a22)" style="fill: #add8e6; fill-opacity: 0.7; stroke: #000000; stroke-opacity: 0.7"/>
    <path d="M 168.760038 115.257364 
L 175.277401 106.286984 
L 166.004454 101.562181 
L 162.578073 112.107496 
z
" clip-path="url(#p80c5cc1a22)" style="fill: #add8e6; fill-opacity: 0.7; stroke: #000000; stroke-opacity: 0.7"/>
    <path d="M 162.578073 112.107496 
L 166.004454 101.562181 
L 155.725313 99.934125 
L 155.725313 111.022125 
z
" clip-path="url(#p80c5cc1a22)" style="fill: #add8e6; fill-opacity: 0.7; stroke: #000000; stroke-opacity: 0.7"/>
    <path d="M 155.725313 111.022125 
L 155.725313 99.934125 
L 145.446171 101.562181 
L 148.872552 112.107496 
z
" clip-path="url(#p80c5cc1a22)" style="fill: #add8e6; fill-opacity: 0.7; stroke: #000000; stroke-opacity: 0.7"/>
    <path d="M 148.872552 112.107496 
L 145.446171 101.562181 
L 136.173224 106.286984 
L 142.690587 115.257364 
z
" clip-path="url(#p80c5cc1a22)" style="fill: #add8e6; fill-opacity: 0.7; stroke: #000000; stroke-opacity: 0.7"/>
    <path d="M 142.690587 115.257364 
L 136.173224 106.286984 
L 128.814171 113.646036 
L 137.784552 120.163399 
z
" clip-path="url(#p80c5cc1a22)" style="fill: #add8e6; fill-opacity: 0.7; stroke: #000000; stroke-opacity: 0.7"/>
    <path d="M 137.784552 120.163399 
L 128.814171 113.646036 
L 124.089369 122.918984 
L 134.634683 126.345364 
z
" clip-path="url(#p80c5cc1a22)" style="fill: #add8e6; fill-opacity: 0.7; stroke: #000000; stroke-opacity: 0.7"/>
    <path d="M 134.634683 126.345364 
L 124.089369 122.918984 
L 122.461313 133.198125 
L 133.549313 133.198125 
z
" clip-path="url(#p80c5cc1a22)" style="fill: #add8e6; fill-opacity: 0.7; stroke: #000000; stroke-opacity: 0.7"/>
    <path d="M 133.549313 133.198125 
L 122.461313 133.198125 
L 124.089369 143.477266 
L 134.634683 140.050886 
z
" clip-path="url(#p80c5cc1a22)" style="fill: #add8e6; fill-opacity: 0.7; stroke: #000000; stroke-opacity: 0.7"/>
    <path d="M 134.634683 140.050886 
L 124.089369 143.477266 
L 128.814171 152.750214 
L 137.784552 146.232851 
z
" clip-path="url(#p80c5cc1a22)" style="fill: #add8e6; fill-opacity: 0.7; stroke: #000000; stroke-opacity: 0.7"/>
    <path d="M 137.784552 146.232851 
L 128.814171 152.750214 
L 136.173224 160.109266 
L 142.690587 151.138886 
z
" clip-path="url(#p80c5cc1a22)" style="fill: #add8e6; fill-opacity: 0.7; stroke: #000000; stroke-opacity: 0.7"/>
    <path d="M 142.690587 151.138886 
L 136.173224 160.109266 
L 145.446171 164.834069 
L 148.872552 154.288754 
z
" clip-path="url(#p80c5cc1a22)" style="fill: #add8e6; fill-opacity: 0.7; stroke: #000000; stroke-opacity: 0.7"/>
    <path d="M 148.872552 154.288754 
L 145.446171 164.834069 
L 155.725313 166.462125 
L 155.725313 155.374125 
z
" clip-path="url(#p80c5cc1a22)" style="fill: #add8e6; fill-opacity: 0.7; stroke: #000000; stroke-opacity: 0.7"/>
    <path d="M 155.725313 155.374125 
L 155.725313 166.462125 
L 166.004454 164.834069 
L 162.578073 154.288754 
z
" clip-path="url(#p80c5cc1a22)" style="fill: #add8e6; fill-opacity: 0.7; stroke: #000000; stroke-opacity: 0.7"/>
    <path d="M 162.578073 154.288754 
L 166.004454 164.834069 
L 175.277401 160.109266 
L 168.760038 151.138886 
z
" clip-path="url(#p80c5cc1a22)" style="fill: #add8e6; fill-opacity: 0.7; stroke: #000000; stroke-opacity: 0.7"/>
    <path d="M 168.760038 151.138886 
L 175.277401 160.109266 
L 182.636454 152.750214 
L 173.666073 146.232851 
z
" clip-path="url(#p80c5cc1a22)" style="fill: #add8e6; fill-opacity: 0.7; stroke: #000000; stroke-opacity: 0.7"/>
    <path d="M 173.666073 146.232851 
L 182.636454 152.750214 
L 187.361256 143.477266 
L 176.815942 140.050886 
z
" clip-path="url(#p80c5cc1a22)" style="fill: #add8e6; fill-opacity: 0.7; stroke: #000000; stroke-opacity: 0.7"/>
    <path d="M 176.815942 140.050886 
L 187.361256 143.477266 
L 188.989313 133.198125 
L 177.901313 133.198125 
z
" clip-path="url(#p80c5cc1a22)" style="fill: #add8e6; fill-opacity: 0.7; stroke: #000000; stroke-opacity: 0.7"/>
    <path d="M 188.989313 133.198125 
L 200.077313 133.198125 
L 197.906571 119.492603 
L 187.361256 122.918984 
z
" clip-path="url(#p80c5cc1a22)" style="fill: #add8e6; fill-opacity: 0.7; stroke: #000000; stroke-opacity: 0.7"/>
    <path d="M 187.361256 122.918984 
L 197.906571 119.492603 
L 191.606834 107.128673 
L 182.636454 113.646036 
z
" clip-path="url(#p80c5cc1a22)" style="fill: #add8e6; fill-opacity: 0.7; stroke: #000000; stroke-opacity: 0.7"/>
    <path d="M 182.636454 113.646036 
L 191.606834 107.128673 
L 181.794764 97.316603 
L 175.277401 106.286984 
z
" clip-path="url(#p80c5cc1a22)" style="fill: #add8e6; fill-opacity: 0.7; stroke: #000000; stroke-opacity: 0.7"/>
    <path d="M 175.277401 106.286984 
L 181.794764 97.316603 
L 169.430834 91.016866 
L 166.004454 101.562181 
z
" clip-path="url(#p80c5cc1a22)" style="fill: #add8e6; fill-opacity: 0.7; stroke: #000000; stroke-opacity: 0.7"/>
    <path d="M 166.004454 101.562181 
L 169.430834 91.016866 
L 155.725313 88.846125 
L 155.725313 99.934125 
z
" clip-path="url(#p80c5cc1a22)" style="fill: #add8e6; fill-opacity: 0.7; stroke: #000000; stroke-opacity: 0.7"/>
    <path d="M 155.725313 99.934125 
L 155.725313 88.846125 
L 142.019791 91.016866 
L 145.446171 101.562181 
z
" clip-path="url(#p80c5cc1a22)" style="fill: #add8e6; fill-opacity: 0.7; stroke: #000000; stroke-opacity: 0.7"/>
    <path d="M 145.446171 101.562181 
L 142.019791 91.016866 
L 129.655861 97.316603 
L 136.173224 106.286984 
z
" clip-path="url(#p80c5cc1a22)" style="fill: #add8e6; fill-opacity: 0.7; stroke: #000000; stroke-opacity: 0.7"/>
    <path d="M 136.173224 106.286984 
L 129.655861 97.316603 
L 119.843791 107.128673 
L 128.814171 113.646036 
z
" clip-path="url(#p80c5cc1a22)" style="fill: #add8e6; fill-opacity: 0.7; stroke: #000000; stroke-opacity: 0.7"/>
    <path d="M 128.814171 113.646036 
L 119.843791 107.128673 
L 113.544054 119.492603 
L 124.089369 122.918984 
z
" clip-path="url(#p80c5cc1a22)" style="fill: #add8e6; fill-opacity: 0.7; stroke: #000000; stroke-opacity: 0.7"/>
    <path d="M 124.089369 122.918984 
L 113.544054 119.492603 
L 111.373313 133.198125 
L 122.461313 133.198125 
z
" clip-path="url(#p80c5cc1a22)" style="fill: #add8e6; fill-opacity: 0.7; stroke: #000000; stroke-opacity: 0.7"/>
    <path d="M 122.461313 133.198125 
L 111.373313 133.198125 
L 113.544054 146.903647 
L 124.089369 143.477266 
z
" clip-path="url(#p80c5cc1a22)" style="fill: #add8e6; fill-opacity: 0.7; stroke: #000000; stroke-opacity: 0.7"/>
    <path d="M 124.089369 143.477266 
L 113.544054 146.903647 
L 119.843791 159.267577 
L 128.814171 152.750214 
z
" clip-path="url(#p80c5cc1a22)" style="fill: #add8e6; fill-opacity: 0.7; stroke: #000000; stroke-opacity: 0.7"/>
    <path d="M 128.814171 152.750214 
L 119.843791 159.267577 
L 129.655861 169.079647 
L 136.173224 160.109266 
z
" clip-path="url(#p80c5cc1a22)" style="fill: #add8e6; fill-opacity: 0.7; stroke: #000000; stroke-opacity: 0.7"/>
    <path d="M 136.173224 160.109266 
L 129.655861 169.079647 
L 142.019791 175.379384 
L 145.446171 164.834069 
z
" clip-path="url(#p80c5cc1a22)" style="fill: #add8e6; fill-opacity: 0.7; stroke: #000000; stroke-opacity: 0.7"/>
    <path d="M 145.446171 164.834069 
L 142.019791 175.379384 
L 155.725313 177.550125 
L 155.725313 166.462125 
z
" clip-path="url(#p80c5cc1a22)" style="fill: #add8e6; fill-opacity: 0.7; stroke: #000000; stroke-opacity: 0.7"/>
    <path d="M 155.725313 166.462125 
L 155.725313 177.550125 
L 169.430834 175.379384 
L 166.004454 164.834069 
z
" clip-path="url(#p80c5cc1a22)" style="fill: #add8e6; fill-opacity: 0.7; stroke: #000000; stroke-opacity: 0.7"/>
    <path d="M 166.004454 164.834069 
L 169.430834 175.379384 
L 181.794764 169.079647 
L 175.277401 160.109266 
z
" clip-path="url(#p80c5cc1a22)" style="fill: #add8e6; fill-opacity: 0.7; stroke: #000000; stroke-opacity: 0.7"/>
    <path d="M 175.277401 160.109266 
L 181.794764 169.079647 
L 191.606834 159.267577 
L 182.636454 152.750214 
z
" clip-path="url(#p80c5cc1a22)" style="fill: #add8e6; fill-opacity: 0.7; stroke: #000000; stroke-opacity: 0.7"/>
    <path d="M 182.636454 152.750214 
L 191.606834 159.267577 
L 197.906571 146.903647 
L 187.361256 143.477266 
z
" clip-path="url(#p80c5cc1a22)" style="fill: #add8e6; fill-opacity: 0.7; stroke: #000000; stroke-opacity: 0.7"/>
    <path d="M 187.361256 143.477266 
L 197.906571 146.903647 
L 200.077313 133.198125 
L 188.989313 133.198125 
z
" clip-path="url(#p80c5cc1a22)" style="fill: #add8e6; fill-opacity: 0.7; stroke: #000000; stroke-opacity: 0.7"/>
    <path d="M 200.077313 133.198125 
L 211.165313 133.198125 
L 208.451886 116.066223 
L 197.906571 119.492603 
z
" clip-path="url(#p80c5cc1a22)" style="fill: #add8e6; fill-opacity: 0.7; stroke: #000000; stroke-opacity: 0.7"/>
    <path d="M 197.906571 119.492603 
L 208.451886 116.066223 
L 200.577215 100.611311 
L 191.606834 107.128673 
z
" clip-path="url(#p80c5cc1a22)" style="fill: #add8e6; fill-opacity: 0.7; stroke: #000000; stroke-opacity: 0.7"/>
    <path d="M 191.606834 107.128673 
L 200.577215 100.611311 
L 188.312127 88.346223 
L 181.794764 97.316603 
z
" clip-path="url(#p80c5cc1a22)" style="fill: #add8e6; fill-opacity: 0.7; stroke: #000000; stroke-opacity: 0.7"/>
    <path d="M 181.794764 97.316603 
L 188.312127 88.346223 
L 172.857215 80.471552 
L 169.430834 91.016866 
z
" clip-path="url(#p80c5cc1a22)" style="fill: #add8e6; fill-opacity: 0.7; stroke: #000000; stroke-opacity: 0.7"/>
    <path d="M 169.430834 91.016866 
L 172.857215 80.471552 
L 155.725313 77.758125 
L 155.725313 88.846125 
z
" clip-path="url(#p80c5cc1a22)" style="fill: #add8e6; fill-opacity: 0.7; stroke: #000000; stroke-opacity: 0.7"/>
    <path d="M 155.725313 88.846125 
L 155.725313 77.758125 
L 138.59341 80.471552 
L 142.019791 91.016866 
z
" clip-path="url(#p80c5cc1a22)" style="fill: #add8e6; fill-opacity: 0.7; stroke: #000000; stroke-opacity: 0.7"/>
    <path d="M 142.019791 91.016866 
L 138.59341 80.471552 
L 123.138498 88.346223 
L 129.655861 97.316603 
z
" clip-path="url(#p80c5cc1a22)" style="fill: #add8e6; fill-opacity: 0.7; stroke: #000000; stroke-opacity: 0.7"/>
    <path d="M 129.655861 97.316603 
L 123.138498 88.346223 
L 110.87341 100.611311 
L 119.843791 107.128673 
z
" clip-path="url(#p80c5cc1a22)" style="fill: #add8e6; fill-opacity: 0.7; stroke: #000000; stroke-opacity: 0.7"/>
    <path d="M 119.843791 107.128673 
L 110.87341 100.611311 
L 102.998739 116.066223 
L 113.544054 119.492603 
z
" clip-path="url(#p80c5cc1a22)" style="fill: #add8e6; fill-opacity: 0.7; stroke: #000000; stroke-opacity: 0.7"/>
    <path d="M 113.544054 119.492603 
L 102.998739 116.066223 
L 100.285313 133.198125 
L 111.373313 133.198125 
z
" clip-path="url(#p80c5cc1a22)" style="fill: #add8e6; fill-opacity: 0.7; stroke: #000000; stroke-opacity: 0.7"/>
    <path d="M 111.373313 133.198125 
L 100.285313 133.198125 
L 102.998739 150.330027 
L 113.544054 146.903647 
z
" clip-path="url(#p80c5cc1a22)" style="fill: #add8e6; fill-opacity: 0.7; stroke: #000000; stroke-opacity: 0.7"/>
    <path d="M 113.544054 146.903647 
L 102.998739 150.330027 
L 110.87341 165.784939 
L 119.843791 159.267577 
z
" clip-path="url(#p80c5cc1a22)" style="fill: #add8e6; fill-opacity: 0.7; stroke: #000000; stroke-opacity: 0.7"/>
    <path d="M 119.843791 159.267577 
L 110.87341 165.784939 
L 123.138498 178.050027 
L 129.655861 169.079647 
z
" clip-path="url(#p80c5cc1a22)" style="fill: #add8e6; fill-opacity: 0.7; stroke: #000000; stroke-opacity: 0.7"/>
    <path d="M 129.655861 169.079647 
L 123.138498 178.050027 
L 138.59341 185.924698 
L 142.019791 175.379384 
z
" clip-path="url(#p80c5cc1a22)" style="fill: #add8e6; fill-opacity: 0.7; stroke: #000000; stroke-opacity: 0.7"/>
    <path d="M 142.019791 175.379384 
L 138.59341 185.924698 
L 155.725313 188.638125 
L 155.725313 177.550125 
z
" clip-path="url(#p80c5cc1a22)" style="fill: #add8e6; fill-opacity: 0.7; stroke: #000000; stroke-opacity: 0.7"/>
    <path d="M 155.725313 177.550125 
L 155.725313 188.638125 
L 172.857215 185.924698 
L 169.430834 175.379384 
z
" clip-path="url(#p80c5cc1a22)" style="fill: #add8e6; fill-opacity: 0.7; stroke: #000000; stroke-opacity: 0.7"/>
    <path d="M 169.430834 175.379384 
L 172.857215 185.924698 
L 188.312127 178.050027 
L 181.794764 169.079647 
z
" clip-path="url(#p80c5cc1a22)" style="fill: #add8e6; fill-opacity: 0.7; stroke: #000000; stroke-opacity: 0.7"/>
    <path d="M 181.794764 169.079647 
L 188.312127 178.050027 
L 200.577215 165.784939 
L 191.606834 159.267577 
z
" clip-path="url(#p80c5cc1a22)" style="fill: #add8e6; fill-opacity: 0.7; stroke: #000000; stroke-opacity: 0.7"/>
    <path d="M 191.606834 159.267577 
L 200.577215 165.784939 
L 208.451886 150.330027 
L 197.906571 146.903647 
z
" clip-path="url(#p80c5cc1a22)" style="fill: #add8e6; fill-opacity: 0.7; stroke: #000000; stroke-opacity: 0.7"/>
    <path d="M 197.906571 146.903647 
L 208.451886 150.330027 
L 211.165313 133.198125 
L 200.077313 133.198125 
z
" clip-path="url(#p80c5cc1a22)" style="fill: #add8e6; fill-opacity: 0.7; stroke: #000000; stroke-opacity: 0.7"/>
    <path d="M 211.165313 133.198125 
L 222.253313 133.198125 
L 218.9972 112.639842 
L 208.451886 116.066223 
z
" clip-path="url(#p80c5cc1a22)" style="fill: #add8e6; fill-opacity: 0.7; stroke: #000000; stroke-opacity: 0.7"/>
    <path d="M 208.451886 116.066223 
L 218.9972 112.639842 
L 209.547595 94.093948 
L 200.577215 100.611311 
z
" clip-path="url(#p80c5cc1a22)" style="fill: #add8e6; fill-opacity: 0.7; stroke: #000000; stroke-opacity: 0.7"/>
    <path d="M 200.577215 100.611311 
L 209.547595 94.093948 
L 194.82949 79.375842 
L 188.312127 88.346223 
z
" clip-path="url(#p80c5cc1a22)" style="fill: #add8e6; fill-opacity: 0.7; stroke: #000000; stroke-opacity: 0.7"/>
    <path d="M 188.312127 88.346223 
L 194.82949 79.375842 
L 176.283595 69.926237 
L 172.857215 80.471552 
z
" clip-path="url(#p80c5cc1a22)" style="fill: #add8e6; fill-opacity: 0.7; stroke: #000000; stroke-opacity: 0.7"/>
    <path d="M 172.857215 80.471552 
L 176.283595 69.926237 
L 155.725313 66.670125 
L 155.725313 77.758125 
z
" clip-path="url(#p80c5cc1a22)" style="fill: #add8e6; fill-opacity: 0.7; stroke: #000000; stroke-opacity: 0.7"/>
    <path d="M 155.725313 77.758125 
L 155.725313 66.670125 
L 135.16703 69.926237 
L 138.59341 80.471552 
z
" clip-path="url(#p80c5cc1a22)" style="fill: #add8e6; fill-opacity: 0.7; stroke: #000000; stroke-opacity: 0.7"/>
    <path d="M 138.59341 80.471552 
L 135.16703 69.926237 
L 116.621135 79.375842 
L 123.138498 88.346223 
z
" clip-path="url(#p80c5cc1a22)" style="fill: #add8e6; fill-opacity: 0.7; stroke: #000000; stroke-opacity: 0.7"/>
    <path d="M 123.138498 88.346223 
L 116.621135 79.375842 
L 101.90303 94.093948 
L 110.87341 100.611311 
z
" clip-path="url(#p80c5cc1a22)" style="fill: #add8e6; fill-opacity: 0.7; stroke: #000000; stroke-opacity: 0.7"/>
    <path d="M 110.87341 100.611311 
L 101.90303 94.093948 
L 92.453425 112.639842 
L 102.998739 116.066223 
z
" clip-path="url(#p80c5cc1a22)" style="fill: #add8e6; fill-opacity: 0.7; stroke: #000000; stroke-opacity: 0.7"/>
    <path d="M 102.998739 116.066223 
L 92.453425 112.639842 
L 89.197313 133.198125 
L 100.285313 133.198125 
z
" clip-path="url(#p80c5cc1a22)" style="fill: #add8e6; fill-opacity: 0.7; stroke: #000000; stroke-opacity: 0.7"/>
    <path d="M 100.285313 133.198125 
L 89.197313 133.198125 
L 92.453425 153.756408 
L 102.998739 150.330027 
z
" clip-path="url(#p80c5cc1a22)" style="fill: #add8e6; fill-opacity: 0.7; stroke: #000000; stroke-opacity: 0.7"/>
    <path d="M 102.998739 150.330027 
L 92.453425 153.756408 
L 101.90303 172.302302 
L 110.87341 165.784939 
z
" clip-path="url(#p80c5cc1a22)" style="fill: #add8e6; fill-opacity: 0.7; stroke: #000000; stroke-opacity: 0.7"/>
    <path d="M 110.87341 165.784939 
L 101.90303 172.302302 
L 116.621135 187.020408 
L 123.138498 178.050027 
z
" clip-path="url(#p80c5cc1a22)" style="fill: #add8e6; fill-opacity: 0.7; stroke: #000000; stroke-opacity: 0.7"/>
    <path d="M 123.138498 178.050027 
L 116.621135 187.020408 
L 135.16703 196.470013 
L 138.59341 185.924698 
z
" clip-path="url(#p80c5cc1a22)" style="fill: #add8e6; fill-opacity: 0.7; stroke: #000000; stroke-opacity: 0.7"/>
    <path d="M 138.59341 185.924698 
L 135.16703 196.470013 
L 155.725313 199.726125 
L 155.725313 188.638125 
z
" clip-path="url(#p80c5cc1a22)" style="fill: #add8e6; fill-opacity: 0.7; stroke: #000000; stroke-opacity: 0.7"/>
    <path d="M 155.725313 188.638125 
L 155.725313 199.726125 
L 176.283595 196.470013 
L 172.857215 185.924698 
z
" clip-path="url(#p80c5cc1a22)" style="fill: #add8e6; fill-opacity: 0.7; stroke: #000000; stroke-opacity: 0.7"/>
    <path d="M 172.857215 185.924698 
L 176.283595 196.470013 
L 194.82949 187.020408 
L 188.312127 178.050027 
z
" clip-path="url(#p80c5cc1a22)" style="fill: #add8e6; fill-opacity: 0.7; stroke: #000000; stroke-opacity: 0.7"/>
    <path d="M 188.312127 178.050027 
L 194.82949 187.020408 
L 209.547595 172.302302 
L 200.577215 165.784939 
z
" clip-path="url(#p80c5cc1a22)" style="fill: #add8e6; fill-opacity: 0.7; stroke: #000000; stroke-opacity: 0.7"/>
    <path d="M 200.577215 165.784939 
L 209.547595 172.302302 
L 218.9972 153.756408 
L 208.451886 150.330027 
z
" clip-path="url(#p80c5cc1a22)" style="fill: #add8e6; fill-opacity: 0.7; stroke: #000000; stroke-opacity: 0.7"/>
    <path d="M 208.451886 150.330027 
L 218.9972 153.756408 
L 222.253313 133.198125 
L 211.165313 133.198125 
z
" clip-path="url(#p80c5cc1a22)" style="fill: #add8e6; fill-opacity: 0.7; stroke: #000000; stroke-opacity: 0.7"/>
    <path d="M 222.253313 133.198125 
L 233.341313 133.198125 
L 229.542515 109.213462 
L 218.9972 112.639842 
z
" clip-path="url(#p80c5cc1a22)" style="fill: #add8e6; fill-opacity: 0.7; stroke: #000000; stroke-opacity: 0.7"/>
    <path d="M 218.9972 112.639842 
L 229.542515 109.213462 
L 218.517976 87.576585 
L 209.547595 94.093948 
z
" clip-path="url(#p80c5cc1a22)" style="fill: #add8e6; fill-opacity: 0.7; stroke: #000000; stroke-opacity: 0.7"/>
    <path d="M 209.547595 94.093948 
L 218.517976 87.576585 
L 201.346853 70.405462 
L 194.82949 79.375842 
z
" clip-path="url(#p80c5cc1a22)" style="fill: #add8e6; fill-opacity: 0.7; stroke: #000000; stroke-opacity: 0.7"/>
    <path d="M 194.82949 79.375842 
L 201.346853 70.405462 
L 179.709976 59.380922 
L 176.283595 69.926237 
z
" clip-path="url(#p80c5cc1a22)" style="fill: #add8e6; fill-opacity: 0.7; stroke: #000000; stroke-opacity: 0.7"/>
    <path d="M 176.283595 69.926237 
L 179.709976 59.380922 
L 155.725313 55.582125 
L 155.725313 66.670125 
z
" clip-path="url(#p80c5cc1a22)" style="fill: #add8e6; fill-opacity: 0.7; stroke: #000000; stroke-opacity: 0.7"/>
    <path d="M 155.725313 66.670125 
L 155.725313 55.582125 
L 131.740649 59.380922 
L 135.16703 69.926237 
z
" clip-path="url(#p80c5cc1a22)" style="fill: #add8e6; fill-opacity: 0.7; stroke: #000000; stroke-opacity: 0.7"/>
    <path d="M 135.16703 69.926237 
L 131.740649 59.380922 
L 110.103772 70.405462 
L 116.621135 79.375842 
z
" clip-path="url(#p80c5cc1a22)" style="fill: #add8e6; fill-opacity: 0.7; stroke: #000000; stroke-opacity: 0.7"/>
    <path d="M 116.621135 79.375842 
L 110.103772 70.405462 
L 92.932649 87.576585 
L 101.90303 94.093948 
z
" clip-path="url(#p80c5cc1a22)" style="fill: #add8e6; fill-opacity: 0.7; stroke: #000000; stroke-opacity: 0.7"/>
    <path d="M 101.90303 94.093948 
L 92.932649 87.576585 
L 81.90811 109.213462 
L 92.453425 112.639842 
z
" clip-path="url(#p80c5cc1a22)" style="fill: #add8e6; fill-opacity: 0.7; stroke: #000000; stroke-opacity: 0.7"/>
    <path d="M 92.453425 112.639842 
L 81.90811 109.213462 
L 78.109313 133.198125 
L 89.197313 133.198125 
z
" clip-path="url(#p80c5cc1a22)" style="fill: #add8e6; fill-opacity: 0.7; stroke: #000000; stroke-opacity: 0.7"/>
    <path d="M 89.197313 133.198125 
L 78.109313 133.198125 
L 81.90811 157.182788 
L 92.453425 153.756408 
z
" clip-path="url(#p80c5cc1a22)" style="fill: #add8e6; fill-opacity: 0.7; stroke: #000000; stroke-opacity: 0.7"/>
    <path d="M 92.453425 153.756408 
L 81.90811 157.182788 
L 92.932649 178.819665 
L 101.90303 172.302302 
z
" clip-path="url(#p80c5cc1a22)" style="fill: #add8e6; fill-opacity: 0.7; stroke: #000000; stroke-opacity: 0.7"/>
    <path d="M 101.90303 172.302302 
L 92.932649 178.819665 
L 110.103772 195.990788 
L 116.621135 187.020408 
z
" clip-path="url(#p80c5cc1a22)" style="fill: #add8e6; fill-opacity: 0.7; stroke: #000000; stroke-opacity: 0.7"/>
    <path d="M 116.621135 187.020408 
L 110.103772 195.990788 
L 131.740649 207.015328 
L 135.16703 196.470013 
z
" clip-path="url(#p80c5cc1a22)" style="fill: #add8e6; fill-opacity: 0.7; stroke: #000000; stroke-opacity: 0.7"/>
    <path d="M 135.16703 196.470013 
L 131.740649 207.015328 
L 155.725313 210.814125 
L 155.725313 199.726125 
z
" clip-path="url(#p80c5cc1a22)" style="fill: #add8e6; fill-opacity: 0.7; stroke: #000000; stroke-opacity: 0.7"/>
    <path d="M 155.725313 199.726125 
L 155.725313 210.814125 
L 179.709976 207.015328 
L 176.283595 196.470013 
z
" clip-path="url(#p80c5cc1a22)" style="fill: #add8e6; fill-opacity: 0.7; stroke: #000000; stroke-opacity: 0.7"/>
    <path d="M 176.283595 196.470013 
L 179.709976 207.015328 
L 201.346853 195.990788 
L 194.82949 187.020408 
z
" clip-path="url(#p80c5cc1a22)" style="fill: #add8e6; fill-opacity: 0.7; stroke: #000000; stroke-opacity: 0.7"/>
    <path d="M 194.82949 187.020408 
L 201.346853 195.990788 
L 218.517976 178.819665 
L 209.547595 172.302302 
z
" clip-path="url(#p80c5cc1a22)" style="fill: #add8e6; fill-opacity: 0.7; stroke: #000000; stroke-opacity: 0.7"/>
    <path d="M 209.547595 172.302302 
L 218.517976 178.819665 
L 229.542515 157.182788 
L 218.9972 153.756408 
z
" clip-path="url(#p80c5cc1a22)" style="fill: #add8e6; fill-opacity: 0.7; stroke: #000000; stroke-opacity: 0.7"/>
    <path d="M 218.9972 153.756408 
L 229.542515 157.182788 
L 233.341313 133.198125 
L 222.253313 133.198125 
z
" clip-path="url(#p80c5cc1a22)" style="fill: #add8e6; fill-opacity: 0.7; stroke: #000000; stroke-opacity: 0.7"/>
    <path d="M 233.341313 133.198125 
L 244.429313 133.198125 
L 240.08783 105.787082 
L 229.542515 109.213462 
z
" clip-path="url(#p80c5cc1a22)" style="fill: #add8e6; fill-opacity: 0.7; stroke: #000000; stroke-opacity: 0.7"/>
    <path d="M 229.542515 109.213462 
L 240.08783 105.787082 
L 227.488356 81.059222 
L 218.517976 87.576585 
z
" clip-path="url(#p80c5cc1a22)" style="fill: #add8e6; fill-opacity: 0.7; stroke: #000000; stroke-opacity: 0.7"/>
    <path d="M 218.517976 87.576585 
L 227.488356 81.059222 
L 207.864216 61.435082 
L 201.346853 70.405462 
z
" clip-path="url(#p80c5cc1a22)" style="fill: #add8e6; fill-opacity: 0.7; stroke: #000000; stroke-opacity: 0.7"/>
    <path d="M 201.346853 70.405462 
L 207.864216 61.435082 
L 183.136356 48.835608 
L 179.709976 59.380922 
z
" clip-path="url(#p80c5cc1a22)" style="fill: #add8e6; fill-opacity: 0.7; stroke: #000000; stroke-opacity: 0.7"/>
    <path d="M 179.709976 59.380922 
L 183.136356 48.835608 
L 155.725313 44.494125 
L 155.725313 55.582125 
z
" clip-path="url(#p80c5cc1a22)" style="fill: #add8e6; fill-opacity: 0.7; stroke: #000000; stroke-opacity: 0.7"/>
    <path d="M 155.725313 55.582125 
L 155.725313 44.494125 
L 128.314269 48.835608 
L 131.740649 59.380922 
z
" clip-path="url(#p80c5cc1a22)" style="fill: #add8e6; fill-opacity: 0.7; stroke: #000000; stroke-opacity: 0.7"/>
    <path d="M 131.740649 59.380922 
L 128.314269 48.835608 
L 103.586409 61.435082 
L 110.103772 70.405462 
z
" clip-path="url(#p80c5cc1a22)" style="fill: #add8e6; fill-opacity: 0.7; stroke: #000000; stroke-opacity: 0.7"/>
    <path d="M 110.103772 70.405462 
L 103.586409 61.435082 
L 83.962269 81.059222 
L 92.932649 87.576585 
z
" clip-path="url(#p80c5cc1a22)" style="fill: #add8e6; fill-opacity: 0.7; stroke: #000000; stroke-opacity: 0.7"/>
    <path d="M 92.932649 87.576585 
L 83.962269 81.059222 
L 71.362795 105.787082 
L 81.90811 109.213462 
z
" clip-path="url(#p80c5cc1a22)" style="fill: #add8e6; fill-opacity: 0.7; stroke: #000000; stroke-opacity: 0.7"/>
    <path d="M 81.90811 109.213462 
L 71.362795 105.787082 
L 67.021313 133.198125 
L 78.109313 133.198125 
z
" clip-path="url(#p80c5cc1a22)" style="fill: #add8e6; fill-opacity: 0.7; stroke: #000000; stroke-opacity: 0.7"/>
    <path d="M 78.109313 133.198125 
L 67.021313 133.198125 
L 71.362795 160.609168 
L 81.90811 157.182788 
z
" clip-path="url(#p80c5cc1a22)" style="fill: #add8e6; fill-opacity: 0.7; stroke: #000000; stroke-opacity: 0.7"/>
    <path d="M 81.90811 157.182788 
L 71.362795 160.609168 
L 83.962269 185.337028 
L 92.932649 178.819665 
z
" clip-path="url(#p80c5cc1a22)" style="fill: #add8e6; fill-opacity: 0.7; stroke: #000000; stroke-opacity: 0.7"/>
    <path d="M 92.932649 178.819665 
L 83.962269 185.337028 
L 103.586409 204.961168 
L 110.103772 195.990788 
z
" clip-path="url(#p80c5cc1a22)" style="fill: #add8e6; fill-opacity: 0.7; stroke: #000000; stroke-opacity: 0.7"/>
    <path d="M 110.103772 195.990788 
L 103.586409 204.961168 
L 128.314269 217.560642 
L 131.740649 207.015328 
z
" clip-path="url(#p80c5cc1a22)" style="fill: #add8e6; fill-opacity: 0.7; stroke: #000000; stroke-opacity: 0.7"/>
    <path d="M 131.740649 207.015328 
L 128.314269 217.560642 
L 155.725313 221.902125 
L 155.725313 210.814125 
z
" clip-path="url(#p80c5cc1a22)" style="fill: #add8e6; fill-opacity: 0.7; stroke: #000000; stroke-opacity: 0.7"/>
    <path d="M 155.725313 210.814125 
L 155.725313 221.902125 
L 183.136356 217.560642 
L 179.709976 207.015328 
z
" clip-path="url(#p80c5cc1a22)" style="fill: #add8e6; fill-opacity: 0.7; stroke: #000000; stroke-opacity: 0.7"/>
    <path d="M 179.709976 207.015328 
L 183.136356 217.560642 
L 207.864216 204.961168 
L 201.346853 195.990788 
z
" clip-path="url(#p80c5cc1a22)" style="fill: #add8e6; fill-opacity: 0.7; stroke: #000000; stroke-opacity: 0.7"/>
    <path d="M 201.346853 195.990788 
L 207.864216 204.961168 
L 227.488356 185.337028 
L 218.517976 178.819665 
z
" clip-path="url(#p80c5cc1a22)" style="fill: #add8e6; fill-opacity: 0.7; stroke: #000000; stroke-opacity: 0.7"/>
    <path d="M 218.517976 178.819665 
L 227.488356 185.337028 
L 240.08783 160.609168 
L 229.542515 157.182788 
z
" clip-path="url(#p80c5cc1a22)" style="fill: #add8e6; fill-opacity: 0.7; stroke: #000000; stroke-opacity: 0.7"/>
    <path d="M 229.542515 157.182788 
L 240.08783 160.609168 
L 244.429313 133.198125 
L 233.341313 133.198125 
z
" clip-path="url(#p80c5cc1a22)" style="fill: #add8e6; fill-opacity: 0.7; stroke: #000000; stroke-opacity: 0.7"/>
    <path d="M 244.429313 133.198125 
L 255.517313 133.198125 
L 250.633144 102.360701 
L 240.08783 105.787082 
z
" clip-path="url(#p80c5cc1a22)" style="fill: #add8e6; fill-opacity: 0.7; stroke: #000000; stroke-opacity: 0.7"/>
    <path d="M 240.08783 105.787082 
L 250.633144 102.360701 
L 236.458736 74.541859 
L 227.488356 81.059222 
z
" clip-path="url(#p80c5cc1a22)" style="fill: #add8e6; fill-opacity: 0.7; stroke: #000000; stroke-opacity: 0.7"/>
    <path d="M 227.488356 81.059222 
L 236.458736 74.541859 
L 214.381578 52.464701 
L 207.864216 61.435082 
z
" clip-path="url(#p80c5cc1a22)" style="fill: #add8e6; fill-opacity: 0.7; stroke: #000000; stroke-opacity: 0.7"/>
    <path d="M 207.864216 61.435082 
L 214.381578 52.464701 
L 186.562736 38.290293 
L 183.136356 48.835608 
z
" clip-path="url(#p80c5cc1a22)" style="fill: #add8e6; fill-opacity: 0.7; stroke: #000000; stroke-opacity: 0.7"/>
    <path d="M 183.136356 48.835608 
L 186.562736 38.290293 
L 155.725313 33.406125 
L 155.725313 44.494125 
z
" clip-path="url(#p80c5cc1a22)" style="fill: #add8e6; fill-opacity: 0.7; stroke: #000000; stroke-opacity: 0.7"/>
    <path d="M 155.725313 44.494125 
L 155.725313 33.406125 
L 124.887889 38.290293 
L 128.314269 48.835608 
z
" clip-path="url(#p80c5cc1a22)" style="fill: #add8e6; fill-opacity: 0.7; stroke: #000000; stroke-opacity: 0.7"/>
    <path d="M 128.314269 48.835608 
L 124.887889 38.290293 
L 97.069047 52.464701 
L 103.586409 61.435082 
z
" clip-path="url(#p80c5cc1a22)" style="fill: #add8e6; fill-opacity: 0.7; stroke: #000000; stroke-opacity: 0.7"/>
    <path d="M 103.586409 61.435082 
L 97.069047 52.464701 
L 74.991889 74.541859 
L 83.962269 81.059222 
z
" clip-path="url(#p80c5cc1a22)" style="fill: #add8e6; fill-opacity: 0.7; stroke: #000000; stroke-opacity: 0.7"/>
    <path d="M 83.962269 81.059222 
L 74.991889 74.541859 
L 60.817481 102.360701 
L 71.362795 105.787082 
z
" clip-path="url(#p80c5cc1a22)" style="fill: #add8e6; fill-opacity: 0.7; stroke: #000000; stroke-opacity: 0.7"/>
    <path d="M 71.362795 105.787082 
L 60.817481 102.360701 
L 55.933313 133.198125 
L 67.021313 133.198125 
z
" clip-path="url(#p80c5cc1a22)" style="fill: #add8e6; fill-opacity: 0.7; stroke: #000000; stroke-opacity: 0.7"/>
    <path d="M 67.021313 133.198125 
L 55.933313 133.198125 
L 60.817481 164.035549 
L 71.362795 160.609168 
z
" clip-path="url(#p80c5cc1a22)" style="fill: #add8e6; fill-opacity: 0.7; stroke: #000000; stroke-opacity: 0.7"/>
    <path d="M 71.362795 160.609168 
L 60.817481 164.035549 
L 74.991889 191.854391 
L 83.962269 185.337028 
z
" clip-path="url(#p80c5cc1a22)" style="fill: #add8e6; fill-opacity: 0.7; stroke: #000000; stroke-opacity: 0.7"/>
    <path d="M 83.962269 185.337028 
L 74.991889 191.854391 
L 97.069047 213.931549 
L 103.586409 204.961168 
z
" clip-path="url(#p80c5cc1a22)" style="fill: #add8e6; fill-opacity: 0.7; stroke: #000000; stroke-opacity: 0.7"/>
    <path d="M 103.586409 204.961168 
L 97.069047 213.931549 
L 124.887889 228.105957 
L 128.314269 217.560642 
z
" clip-path="url(#p80c5cc1a22)" style="fill: #add8e6; fill-opacity: 0.7; stroke: #000000; stroke-opacity: 0.7"/>
    <path d="M 128.314269 217.560642 
L 124.887889 228.105957 
L 155.725313 232.990125 
L 155.725313 221.902125 
z
" clip-path="url(#p80c5cc1a22)" style="fill: #add8e6; fill-opacity: 0.7; stroke: #000000; stroke-opacity: 0.7"/>
    <path d="M 155.725313 221.902125 
L 155.725313 232.990125 
L 186.562736 228.105957 
L 183.136356 217.560642 
z
" clip-path="url(#p80c5cc1a22)" style="fill: #add8e6; fill-opacity: 0.7; stroke: #000000; stroke-opacity: 0.7"/>
    <path d="M 183.136356 217.560642 
L 186.562736 228.105957 
L 214.381578 213.931549 
L 207.864216 204.961168 
z
" clip-path="url(#p80c5cc1a22)" style="fill: #add8e6; fill-opacity: 0.7; stroke: #000000; stroke-opacity: 0.7"/>
    <path d="M 207.864216 204.961168 
L 214.381578 213.931549 
L 236.458736 191.854391 
L 227.488356 185.337028 
z
" clip-path="url(#p80c5cc1a22)" style="fill: #add8e6; fill-opacity: 0.7; stroke: #000000; stroke-opacity: 0.7"/>
    <path d="M 227.488356 185.337028 
L 236.458736 191.854391 
L 250.633144 164.035549 
L 240.08783 160.609168 
z
" clip-path="url(#p80c5cc1a22)" style="fill: #add8e6; fill-opacity: 0.7; stroke: #000000; stroke-opacity: 0.7"/>
    <path d="M 240.08783 160.609168 
L 250.633144 164.035549 
L 255.517313 133.198125 
L 244.429313 133.198125 
z
" clip-path="url(#p80c5cc1a22)" style="fill: #add8e6; fill-opacity: 0.7; stroke: #000000; stroke-opacity: 0.7"/>
    <path d="M 255.517313 133.198125 
L 266.605313 133.198125 
L 261.178459 98.934321 
L 250.633144 102.360701 
z
" clip-path="url(#p80c5cc1a22)" style="fill: #add8e6; fill-opacity: 0.7; stroke: #000000; stroke-opacity: 0.7"/>
    <path d="M 250.633144 102.360701 
L 261.178459 98.934321 
L 245.429117 68.024496 
L 236.458736 74.541859 
z
" clip-path="url(#p80c5cc1a22)" style="fill: #add8e6; fill-opacity: 0.7; stroke: #000000; stroke-opacity: 0.7"/>
    <path d="M 236.458736 74.541859 
L 245.429117 68.024496 
L 220.898941 43.494321 
L 214.381578 52.464701 
z
" clip-path="url(#p80c5cc1a22)" style="fill: #add8e6; fill-opacity: 0.7; stroke: #000000; stroke-opacity: 0.7"/>
    <path d="M 214.381578 52.464701 
L 220.898941 43.494321 
L 189.989117 27.744978 
L 186.562736 38.290293 
z
" clip-path="url(#p80c5cc1a22)" style="fill: #add8e6; fill-opacity: 0.7; stroke: #000000; stroke-opacity: 0.7"/>
    <path d="M 186.562736 38.290293 
L 189.989117 27.744978 
L 155.725313 22.318125 
L 155.725313 33.406125 
z
" clip-path="url(#p80c5cc1a22)" style="fill: #add8e6; fill-opacity: 0.7; stroke: #000000; stroke-opacity: 0.7"/>
    <path d="M 155.725313 33.406125 
L 155.725313 22.318125 
L 121.461508 27.744978 
L 124.887889 38.290293 
z
" clip-path="url(#p80c5cc1a22)" style="fill: #add8e6; fill-opacity: 0.7; stroke: #000000; stroke-opacity: 0.7"/>
    <path d="M 124.887889 38.290293 
L 121.461508 27.744978 
L 90.551684 43.494321 
L 97.069047 52.464701 
z
" clip-path="url(#p80c5cc1a22)" style="fill: #add8e6; fill-opacity: 0.7; stroke: #000000; stroke-opacity: 0.7"/>
    <path d="M 97.069047 52.464701 
L 90.551684 43.494321 
L 66.021508 68.024496 
L 74.991889 74.541859 
z
" clip-path="url(#p80c5cc1a22)" style="fill: #add8e6; fill-opacity: 0.7; stroke: #000000; stroke-opacity: 0.7"/>
    <path d="M 74.991889 74.541859 
L 66.021508 68.024496 
L 50.272166 98.934321 
L 60.817481 102.360701 
z
" clip-path="url(#p80c5cc1a22)" style="fill: #add8e6; fill-opacity: 0.7; stroke: #000000; stroke-opacity: 0.7"/>
    <path d="M 60.817481 102.360701 
L 50.272166 98.934321 
L 44.845313 133.198125 
L 55.933313 133.198125 
z
" clip-path="url(#p80c5cc1a22)" style="fill: #add8e6; fill-opacity: 0.7; stroke: #000000; stroke-opacity: 0.7"/>
    <path d="M 55.933313 133.198125 
L 44.845313 133.198125 
L 50.272166 167.461929 
L 60.817481 164.035549 
z
" clip-path="url(#p80c5cc1a22)" style="fill: #add8e6; fill-opacity: 0.7; stroke: #000000; stroke-opacity: 0.7"/>
    <path d="M 60.817481 164.035549 
L 50.272166 167.461929 
L 66.021508 198.371754 
L 74.991889 191.854391 
z
" clip-path="url(#p80c5cc1a22)" style="fill: #add8e6; fill-opacity: 0.7; stroke: #000000; stroke-opacity: 0.7"/>
    <path d="M 74.991889 191.854391 
L 66.021508 198.371754 
L 90.551684 222.901929 
L 97.069047 213.931549 
z
" clip-path="url(#p80c5cc1a22)" style="fill: #add8e6; fill-opacity: 0.7; stroke: #000000; stroke-opacity: 0.7"/>
    <path d="M 97.069047 213.931549 
L 90.551684 222.901929 
L 121.461508 238.651272 
L 124.887889 228.105957 
z
" clip-path="url(#p80c5cc1a22)" style="fill: #add8e6; fill-opacity: 0.7; stroke: #000000; stroke-opacity: 0.7"/>
    <path d="M 124.887889 228.105957 
L 121.461508 238.651272 
L 155.725313 244.078125 
L 155.725313 232.990125 
z
" clip-path="url(#p80c5cc1a22)" style="fill: #add8e6; fill-opacity: 0.7; stroke: #000000; stroke-opacity: 0.7"/>
    <path d="M 155.725313 232.990125 
L 155.725313 244.078125 
L 189.989117 238.651272 
L 186.562736 228.105957 
z
" clip-path="url(#p80c5cc1a22)" style="fill: #add8e6; fill-opacity: 0.7; stroke: #000000; stroke-opacity: 0.7"/>
    <path d="M 186.562736 228.105957 
L 189.989117 238.651272 
L 220.898941 222.901929 
L 214.381578 213.931549 
z
" clip-path="url(#p80c5cc1a22)" style="fill: #add8e6; fill-opacity: 0.7; stroke: #000000; stroke-opacity: 0.7"/>
    <path d="M 214.381578 213.931549 
L 220.898941 222.901929 
L 245.429117 198.371754 
L 236.458736 191.854391 
z
" clip-path="url(#p80c5cc1a22)" style="fill: #add8e6; fill-opacity: 0.7; stroke: #000000; stroke-opacity: 0.7"/>
    <path d="M 236.458736 191.854391 
L 245.429117 198.371754 
L 261.178459 167.461929 
L 250.633144 164.035549 
z
" clip-path="url(#p80c5cc1a22)" style="fill: #add8e6; fill-opacity: 0.7; stroke: #000000; stroke-opacity: 0.7"/>
    <path d="M 250.633144 164.035549 
L 261.178459 167.461929 
L 266.605313 133.198125 
L 255.517313 133.198125 
z
" clip-path="url(#p80c5cc1a22)" style="fill: #add8e6; fill-opacity: 0.7; stroke: #000000; stroke-opacity: 0.7"/>
   </g>
   <g id="matplotlib.axis_1">
    <g id="xtick_1">
     <g id="line2d_1">
      <defs>
       <path id="m1f2b07a72b" d="M 0 0 
L 0 3.5 
" style="stroke: #000000; stroke-width: 0.8"/>
      </defs>
      <g>
       <use xlink:href="#m1f2b07a72b" x="44.845313" y="244.078125" style="stroke: #000000; stroke-width: 0.8"/>
      </g>
     </g>
     <g id="text_1">
      <!-- −1.0 -->
      <g transform="translate(32.703906 258.676562) scale(0.1 -0.1)">
       <defs>
        <path id="DejaVuSans-2212" d="M 678 2272 
L 4684 2272 
L 4684 1741 
L 678 1741 
L 678 2272 
z
" transform="scale(0.015625)"/>
        <path id="DejaVuSans-31" d="M 794 531 
L 1825 531 
L 1825 4091 
L 703 3866 
L 703 4441 
L 1819 4666 
L 2450 4666 
L 2450 531 
L 3481 531 
L 3481 0 
L 794 0 
L 794 531 
z
" transform="scale(0.015625)"/>
        <path id="DejaVuSans-2e" d="M 684 794 
L 1344 794 
L 1344 0 
L 684 0 
L 684 794 
z
" transform="scale(0.015625)"/>
        <path id="DejaVuSans-30" d="M 2034 4250 
Q 1547 4250 1301 3770 
Q 1056 3291 1056 2328 
Q 1056 1369 1301 889 
Q 1547 409 2034 409 
Q 2525 409 2770 889 
Q 3016 1369 3016 2328 
Q 3016 3291 2770 3770 
Q 2525 4250 2034 4250 
z
M 2034 4750 
Q 2819 4750 3233 4129 
Q 3647 3509 3647 2328 
Q 3647 1150 3233 529 
Q 2819 -91 2034 -91 
Q 1250 -91 836 529 
Q 422 1150 422 2328 
Q 422 3509 836 4129 
Q 1250 4750 2034 4750 
z
" transform="scale(0.015625)"/>
       </defs>
       <use xlink:href="#DejaVuSans-2212"/>
       <use xlink:href="#DejaVuSans-31" transform="translate(83.789062 0)"/>
       <use xlink:href="#DejaVuSans-2e" transform="translate(147.412109 0)"/>
       <use xlink:href="#DejaVuSans-30" transform="translate(179.199219 0)"/>
      </g>
     </g>
    </g>
    <g id="xtick_2">
     <g id="line2d_2">
      <g>
       <use xlink:href="#m1f2b07a72b" x="100.285313" y="244.078125" style="stroke: #000000; stroke-width: 0.8"/>
      </g>
     </g>
     <g id="text_2">
      <!-- −0.5 -->
      <g transform="translate(88.143906 258.676562) scale(0.1 -0.1)">
       <defs>
        <path id="DejaVuSans-35" d="M 691 4666 
L 3169 4666 
L 3169 4134 
L 1269 4134 
L 1269 2991 
Q 1406 3038 1543 3061 
Q 1681 3084 1819 3084 
Q 2600 3084 3056 2656 
Q 3513 2228 3513 1497 
Q 3513 744 3044 326 
Q 2575 -91 1722 -91 
Q 1428 -91 1123 -41 
Q 819 9 494 109 
L 494 744 
Q 775 591 1075 516 
Q 1375 441 1709 441 
Q 2250 441 2565 725 
Q 2881 1009 2881 1497 
Q 2881 1984 2565 2268 
Q 2250 2553 1709 2553 
Q 1456 2553 1204 2497 
Q 953 2441 691 2322 
L 691 4666 
z
" transform="scale(0.015625)"/>
       </defs>
       <use xlink:href="#DejaVuSans-2212"/>
       <use xlink:href="#DejaVuSans-30" transform="translate(83.789062 0)"/>
       <use xlink:href="#DejaVuSans-2e" transform="translate(147.412109 0)"/>
       <use xlink:href="#DejaVuSans-35" transform="translate(179.199219 0)"/>
      </g>
     </g>
    </g>
    <g id="xtick_3">
     <g id="line2d_3">
      <g>
       <use xlink:href="#m1f2b07a72b" x="155.725313" y="244.078125" style="stroke: #000000; stroke-width: 0.8"/>
      </g>
     </g>
     <g id="text_3">
      <!-- 0.0 -->
      <g transform="translate(147.77375 258.676562) scale(0.1 -0.1)">
       <use xlink:href="#DejaVuSans-30"/>
       <use xlink:href="#DejaVuSans-2e" transform="translate(63.623047 0)"/>
       <use xlink:href="#DejaVuSans-30" transform="translate(95.410156 0)"/>
      </g>
     </g>
    </g>
    <g id="xtick_4">
     <g id="line2d_4">
      <g>
       <use xlink:href="#m1f2b07a72b" x="211.165313" y="244.078125" style="stroke: #000000; stroke-width: 0.8"/>
      </g>
     </g>
     <g id="text_4">
      <!-- 0.5 -->
      <g transform="translate(203.21375 258.676562) scale(0.1 -0.1)">
       <use xlink:href="#DejaVuSans-30"/>
       <use xlink:href="#DejaVuSans-2e" transform="translate(63.623047 0)"/>
       <use xlink:href="#DejaVuSans-35" transform="translate(95.410156 0)"/>
      </g>
     </g>
    </g>
    <g id="xtick_5">
     <g id="line2d_5">
      <g>
       <use xlink:href="#m1f2b07a72b" x="266.605313" y="244.078125" style="stroke: #000000; stroke-width: 0.8"/>
      </g>
     </g>
     <g id="text_5">
      <!-- 1.0 -->
      <g transform="translate(258.65375 258.676562) scale(0.1 -0.1)">
       <use xlink:href="#DejaVuSans-31"/>
       <use xlink:href="#DejaVuSans-2e" transform="translate(63.623047 0)"/>
       <use xlink:href="#DejaVuSans-30" transform="translate(95.410156 0)"/>
      </g>
     </g>
    </g>
   </g>
   <g id="matplotlib.axis_2">
    <g id="ytick_1">
     <g id="line2d_6">
      <defs>
       <path id="mbbe53a54e0" d="M 0 0 
L -3.5 0 
" style="stroke: #000000; stroke-width: 0.8"/>
      </defs>
      <g>
       <use xlink:href="#mbbe53a54e0" x="44.845313" y="244.078125" style="stroke: #000000; stroke-width: 0.8"/>
      </g>
     </g>
     <g id="text_6">
      <!-- −1.00 -->
      <g transform="translate(7.2 247.877344) scale(0.1 -0.1)">
       <use xlink:href="#DejaVuSans-2212"/>
       <use xlink:href="#DejaVuSans-31" transform="translate(83.789062 0)"/>
       <use xlink:href="#DejaVuSans-2e" transform="translate(147.412109 0)"/>
       <use xlink:href="#DejaVuSans-30" transform="translate(179.199219 0)"/>
       <use xlink:href="#DejaVuSans-30" transform="translate(242.822266 0)"/>
      </g>
     </g>
    </g>
    <g id="ytick_2">
     <g id="line2d_7">
      <g>
       <use xlink:href="#mbbe53a54e0" x="44.845313" y="216.358125" style="stroke: #000000; stroke-width: 0.8"/>
      </g>
     </g>
     <g id="text_7">
      <!-- −0.75 -->
      <g transform="translate(7.2 220.157344) scale(0.1 -0.1)">
       <defs>
        <path id="DejaVuSans-37" d="M 525 4666 
L 3525 4666 
L 3525 4397 
L 1831 0 
L 1172 0 
L 2766 4134 
L 525 4134 
L 525 4666 
z
" transform="scale(0.015625)"/>
       </defs>
       <use xlink:href="#DejaVuSans-2212"/>
       <use xlink:href="#DejaVuSans-30" transform="translate(83.789062 0)"/>
       <use xlink:href="#DejaVuSans-2e" transform="translate(147.412109 0)"/>
       <use xlink:href="#DejaVuSans-37" transform="translate(179.199219 0)"/>
       <use xlink:href="#DejaVuSans-35" transform="translate(242.822266 0)"/>
      </g>
     </g>
    </g>
    <g id="ytick_3">
     <g id="line2d_8">
      <g>
       <use xlink:href="#mbbe53a54e0" x="44.845313" y="188.638125" style="stroke: #000000; stroke-width: 0.8"/>
      </g>
     </g>
     <g id="text_8">
      <!-- −0.50 -->
      <g transform="translate(7.2 192.437344) scale(0.1 -0.1)">
       <use xlink:href="#DejaVuSans-2212"/>
       <use xlink:href="#DejaVuSans-30" transform="translate(83.789062 0)"/>
       <use xlink:href="#DejaVuSans-2e" transform="translate(147.412109 0)"/>
       <use xlink:href="#DejaVuSans-35" transform="translate(179.199219 0)"/>
       <use xlink:href="#DejaVuSans-30" transform="translate(242.822266 0)"/>
      </g>
     </g>
    </g>
    <g id="ytick_4">
     <g id="line2d_9">
      <g>
       <use xlink:href="#mbbe53a54e0" x="44.845313" y="160.918125" style="stroke: #000000; stroke-width: 0.8"/>
      </g>
     </g>
     <g id="text_9">
      <!-- −0.25 -->
      <g transform="translate(7.2 164.717344) scale(0.1 -0.1)">
       <defs>
        <path id="DejaVuSans-32" d="M 1228 531 
L 3431 531 
L 3431 0 
L 469 0 
L 469 531 
Q 828 903 1448 1529 
Q 2069 2156 2228 2338 
Q 2531 2678 2651 2914 
Q 2772 3150 2772 3378 
Q 2772 3750 2511 3984 
Q 2250 4219 1831 4219 
Q 1534 4219 1204 4116 
Q 875 4013 500 3803 
L 500 4441 
Q 881 4594 1212 4672 
Q 1544 4750 1819 4750 
Q 2544 4750 2975 4387 
Q 3406 4025 3406 3419 
Q 3406 3131 3298 2873 
Q 3191 2616 2906 2266 
Q 2828 2175 2409 1742 
Q 1991 1309 1228 531 
z
" transform="scale(0.015625)"/>
       </defs>
       <use xlink:href="#DejaVuSans-2212"/>
       <use xlink:href="#DejaVuSans-30" transform="translate(83.789062 0)"/>
       <use xlink:href="#DejaVuSans-2e" transform="translate(147.412109 0)"/>
       <use xlink:href="#DejaVuSans-32" transform="translate(179.199219 0)"/>
       <use xlink:href="#DejaVuSans-35" transform="translate(242.822266 0)"/>
      </g>
     </g>
    </g>
    <g id="ytick_5">
     <g id="line2d_10">
      <g>
       <use xlink:href="#mbbe53a54e0" x="44.845313" y="133.198125" style="stroke: #000000; stroke-width: 0.8"/>
      </g>
     </g>
     <g id="text_10">
      <!-- 0.00 -->
      <g transform="translate(15.579688 136.997344) scale(0.1 -0.1)">
       <use xlink:href="#DejaVuSans-30"/>
       <use xlink:href="#DejaVuSans-2e" transform="translate(63.623047 0)"/>
       <use xlink:href="#DejaVuSans-30" transform="translate(95.410156 0)"/>
       <use xlink:href="#DejaVuSans-30" transform="translate(159.033203 0)"/>
      </g>
     </g>
    </g>
    <g id="ytick_6">
     <g id="line2d_11">
      <g>
       <use xlink:href="#mbbe53a54e0" x="44.845313" y="105.478125" style="stroke: #000000; stroke-width: 0.8"/>
      </g>
     </g>
     <g id="text_11">
      <!-- 0.25 -->
      <g transform="translate(15.579688 109.277344) scale(0.1 -0.1)">
       <use xlink:href="#DejaVuSans-30"/>
       <use xlink:href="#DejaVuSans-2e" transform="translate(63.623047 0)"/>
       <use xlink:href="#DejaVuSans-32" transform="translate(95.410156 0)"/>
       <use xlink:href="#DejaVuSans-35" transform="translate(159.033203 0)"/>
      </g>
     </g>
    </g>
    <g id="ytick_7">
     <g id="line2d_12">
      <g>
       <use xlink:href="#mbbe53a54e0" x="44.845313" y="77.758125" style="stroke: #000000; stroke-width: 0.8"/>
      </g>
     </g>
     <g id="text_12">
      <!-- 0.50 -->
      <g transform="translate(15.579688 81.557344) scale(0.1 -0.1)">
       <use xlink:href="#DejaVuSans-30"/>
       <use xlink:href="#DejaVuSans-2e" transform="translate(63.623047 0)"/>
       <use xlink:href="#DejaVuSans-35" transform="translate(95.410156 0)"/>
       <use xlink:href="#DejaVuSans-30" transform="translate(159.033203 0)"/>
      </g>
     </g>
    </g>
    <g id="ytick_8">
     <g id="line2d_13">
      <g>
       <use xlink:href="#mbbe53a54e0" x="44.845313" y="50.038125" style="stroke: #000000; stroke-width: 0.8"/>
      </g>
     </g>
     <g id="text_13">
      <!-- 0.75 -->
      <g transform="translate(15.579688 53.837344) scale(0.1 -0.1)">
       <use xlink:href="#DejaVuSans-30"/>
       <use xlink:href="#DejaVuSans-2e" transform="translate(63.623047 0)"/>
       <use xlink:href="#DejaVuSans-37" transform="translate(95.410156 0)"/>
       <use xlink:href="#DejaVuSans-35" transform="translate(159.033203 0)"/>
      </g>
     </g>
    </g>
    <g id="ytick_9">
     <g id="line2d_14">
      <g>
       <use xlink:href="#mbbe53a54e0" x="44.845313" y="22.318125" style="stroke: #000000; stroke-width: 0.8"/>
      </g>
     </g>
     <g id="text_14">
      <!-- 1.00 -->
      <g transform="translate(15.579688 26.117344) scale(0.1 -0.1)">
       <use xlink:href="#DejaVuSans-31"/>
       <use xlink:href="#DejaVuSans-2e" transform="translate(63.623047 0)"/>
       <use xlink:href="#DejaVuSans-30" transform="translate(95.410156 0)"/>
       <use xlink:href="#DejaVuSans-30" transform="translate(159.033203 0)"/>
      </g>
     </g>
    </g>
   </g>
   <g id="patch_3">
    <path d="M 44.845313 244.078125 
L 44.845313 22.318125 
" style="fill: none; stroke: #000000; stroke-width: 0.8; stroke-linejoin: miter; stroke-linecap: square"/>
   </g>
   <g id="patch_4">
    <path d="M 266.605313 244.078125 
L 266.605313 22.318125 
" style="fill: none; stroke: #000000; stroke-width: 0.8; stroke-linejoin: miter; stroke-linecap: square"/>
   </g>
   <g id="patch_5">
    <path d="M 44.845313 244.078125 
L 266.605313 244.078125 
" style="fill: none; stroke: #000000; stroke-width: 0.8; stroke-linejoin: miter; stroke-linecap: square"/>
   </g>
   <g id="patch_6">
    <path d="M 44.845313 22.318125 
L 266.605313 22.318125 
" style="fill: none; stroke: #000000; stroke-width: 0.8; stroke-linejoin: miter; stroke-linecap: square"/>
   </g>
   <g id="text_15">
    <!-- Radial Disk Mesh -->
    <g transform="translate(104.697188 16.318125) scale(0.12 -0.12)">
     <defs>
      <path id="DejaVuSans-52" d="M 2841 2188 
Q 3044 2119 3236 1894 
Q 3428 1669 3622 1275 
L 4263 0 
L 3584 0 
L 2988 1197 
Q 2756 1666 2539 1819 
Q 2322 1972 1947 1972 
L 1259 1972 
L 1259 0 
L 628 0 
L 628 4666 
L 2053 4666 
Q 2853 4666 3247 4331 
Q 3641 3997 3641 3322 
Q 3641 2881 3436 2590 
Q 3231 2300 2841 2188 
z
M 1259 4147 
L 1259 2491 
L 2053 2491 
Q 2509 2491 2742 2702 
Q 2975 2913 2975 3322 
Q 2975 3731 2742 3939 
Q 2509 4147 2053 4147 
L 1259 4147 
z
" transform="scale(0.015625)"/>
      <path id="DejaVuSans-61" d="M 2194 1759 
Q 1497 1759 1228 1600 
Q 959 1441 959 1056 
Q 959 750 1161 570 
Q 1363 391 1709 391 
Q 2188 391 2477 730 
Q 2766 1069 2766 1631 
L 2766 1759 
L 2194 1759 
z
M 3341 1997 
L 3341 0 
L 2766 0 
L 2766 531 
Q 2569 213 2275 61 
Q 1981 -91 1556 -91 
Q 1019 -91 701 211 
Q 384 513 384 1019 
Q 384 1609 779 1909 
Q 1175 2209 1959 2209 
L 2766 2209 
L 2766 2266 
Q 2766 2663 2505 2880 
Q 2244 3097 1772 3097 
Q 1472 3097 1187 3025 
Q 903 2953 641 2809 
L 641 3341 
Q 956 3463 1253 3523 
Q 1550 3584 1831 3584 
Q 2591 3584 2966 3190 
Q 3341 2797 3341 1997 
z
" transform="scale(0.015625)"/>
      <path id="DejaVuSans-64" d="M 2906 2969 
L 2906 4863 
L 3481 4863 
L 3481 0 
L 2906 0 
L 2906 525 
Q 2725 213 2448 61 
Q 2172 -91 1784 -91 
Q 1150 -91 751 415 
Q 353 922 353 1747 
Q 353 2572 751 3078 
Q 1150 3584 1784 3584 
Q 2172 3584 2448 3432 
Q 2725 3281 2906 2969 
z
M 947 1747 
Q 947 1113 1208 752 
Q 1469 391 1925 391 
Q 2381 391 2643 752 
Q 2906 1113 2906 1747 
Q 2906 2381 2643 2742 
Q 2381 3103 1925 3103 
Q 1469 3103 1208 2742 
Q 947 2381 947 1747 
z
" transform="scale(0.015625)"/>
      <path id="DejaVuSans-69" d="M 603 3500 
L 1178 3500 
L 1178 0 
L 603 0 
L 603 3500 
z
M 603 4863 
L 1178 4863 
L 1178 4134 
L 603 4134 
L 603 4863 
z
" transform="scale(0.015625)"/>
      <path id="DejaVuSans-6c" d="M 603 4863 
L 1178 4863 
L 1178 0 
L 603 0 
L 603 4863 
z
" transform="scale(0.015625)"/>
      <path id="DejaVuSans-20" transform="scale(0.015625)"/>
      <path id="DejaVuSans-44" d="M 1259 4147 
L 1259 519 
L 2022 519 
Q 2988 519 3436 956 
Q 3884 1394 3884 2338 
Q 3884 3275 3436 3711 
Q 2988 4147 2022 4147 
L 1259 4147 
z
M 628 4666 
L 1925 4666 
Q 3281 4666 3915 4102 
Q 4550 3538 4550 2338 
Q 4550 1131 3912 565 
Q 3275 0 1925 0 
L 628 0 
L 628 4666 
z
" transform="scale(0.015625)"/>
      <path id="DejaVuSans-73" d="M 2834 3397 
L 2834 2853 
Q 2591 2978 2328 3040 
Q 2066 3103 1784 3103 
Q 1356 3103 1142 2972 
Q 928 2841 928 2578 
Q 928 2378 1081 2264 
Q 1234 2150 1697 2047 
L 1894 2003 
Q 2506 1872 2764 1633 
Q 3022 1394 3022 966 
Q 3022 478 2636 193 
Q 2250 -91 1575 -91 
Q 1294 -91 989 -36 
Q 684 19 347 128 
L 347 722 
Q 666 556 975 473 
Q 1284 391 1588 391 
Q 1994 391 2212 530 
Q 2431 669 2431 922 
Q 2431 1156 2273 1281 
Q 2116 1406 1581 1522 
L 1381 1569 
Q 847 1681 609 1914 
Q 372 2147 372 2553 
Q 372 3047 722 3315 
Q 1072 3584 1716 3584 
Q 2034 3584 2315 3537 
Q 2597 3491 2834 3397 
z
" transform="scale(0.015625)"/>
      <path id="DejaVuSans-6b" d="M 581 4863 
L 1159 4863 
L 1159 1991 
L 2875 3500 
L 3609 3500 
L 1753 1863 
L 3688 0 
L 2938 0 
L 1159 1709 
L 1159 0 
L 581 0 
L 581 4863 
z
" transform="scale(0.015625)"/>
      <path id="DejaVuSans-4d" d="M 628 4666 
L 1569 4666 
L 2759 1491 
L 3956 4666 
L 4897 4666 
L 4897 0 
L 4281 0 
L 4281 4097 
L 3078 897 
L 2444 897 
L 1241 4097 
L 1241 0 
L 628 0 
L 628 4666 
z
" transform="scale(0.015625)"/>
      <path id="DejaVuSans-65" d="M 3597 1894 
L 3597 1613 
L 953 1613 
Q 991 1019 1311 708 
Q 1631 397 2203 397 
Q 2534 397 2845 478 
Q 3156 559 3463 722 
L 3463 178 
Q 3153 47 2828 -22 
Q 2503 -91 2169 -91 
Q 1331 -91 842 396 
Q 353 884 353 1716 
Q 353 2575 817 3079 
Q 1281 3584 2069 3584 
Q 2775 3584 3186 3129 
Q 3597 2675 3597 1894 
z
M 3022 2063 
Q 3016 2534 2758 2815 
Q 2500 3097 2075 3097 
Q 1594 3097 1305 2825 
Q 1016 2553 972 2059 
L 3022 2063 
z
" transform="scale(0.015625)"/>
      <path id="DejaVuSans-68" d="M 3513 2113 
L 3513 0 
L 2938 0 
L 2938 2094 
Q 2938 2591 2744 2837 
Q 2550 3084 2163 3084 
Q 1697 3084 1428 2787 
Q 1159 2491 1159 1978 
L 1159 0 
L 581 0 
L 581 4863 
L 1159 4863 
L 1159 2956 
Q 1366 3272 1645 3428 
Q 1925 3584 2291 3584 
Q 2894 3584 3203 3211 
Q 3513 2838 3513 2113 
z
" transform="scale(0.015625)"/>
     </defs>
     <use xlink:href="#DejaVuSans-52"/>
     <use xlink:href="#DejaVuSans-61" transform="translate(67.232422 0)"/>
     <use xlink:href="#DejaVuSans-64" transform="translate(128.511719 0)"/>
     <use xlink:href="#DejaVuSans-69" transform="translate(191.988281 0)"/>
     <use xlink:href="#DejaVuSans-61" transform="translate(219.771484 0)"/>
     <use xlink:href="#DejaVuSans-6c" transform="translate(281.050781 0)"/>
     <use xlink:href="#DejaVuSans-20" transform="translate(308.833984 0)"/>
     <use xlink:href="#DejaVuSans-44" transform="translate(340.621094 0)"/>
     <use xlink:href="#DejaVuSans-69" transform="translate(417.623047 0)"/>
     <use xlink:href="#DejaVuSans-73" transform="translate(445.40625 0)"/>
     <use xlink:href="#DejaVuSans-6b" transform="translate(497.505859 0)"/>
     <use xlink:href="#DejaVuSans-20" transform="translate(555.416016 0)"/>
     <use xlink:href="#DejaVuSans-4d" transform="translate(587.203125 0)"/>
     <use xlink:href="#DejaVuSans-65" transform="translate(673.482422 0)"/>
     <use xlink:href="#DejaVuSans-73" transform="translate(735.005859 0)"/>
     <use xlink:href="#DejaVuSans-68" transform="translate(787.105469 0)"/>
    </g>
   </g>
  </g>
 </g>
 <defs>
  <clipPath id="p80c5cc1a22">
   <rect x="44.845313" y="22.318125" width="221.76" height="221.76"/>
  </clipPath>
 </defs>
</svg>
