<?xml version="1.0" encoding="utf-8" standalone="no"?>
<!DOCTYPE svg PUBLIC "-//W3C//DTD SVG 1.1//EN"
  "http://www.w3.org/Graphics/SVG/1.1/DTD/svg11.dtd">
<svg xmlns:xlink="http://www.w3.org/1999/xlink" width="281.756875pt" height="267.95625pt" viewBox="0 0 281.756875 267.95625" xmlns="http://www.w3.org/2000/svg" version="1.1">
 <metadata>
  <rdf:RDF xmlns:dc="http://purl.org/dc/elements/1.1/" xmlns:cc="http://creativecommons.org/ns#" xmlns:rdf="http://www.w3.org/1999/02/22-rdf-syntax-ns#">
   <cc:Work>
    <dc:type rdf:resource="http://purl.org/dc/dcmitype/StillImage"/>
    <dc:date>2025-04-27T18:22:47.194093</dc:date>
    <dc:format>image/svg+xml</dc:format>
    <dc:creator>
     <cc:Agent>
      <dc:title>Matplotlib v3.10.1, https://matplotlib.org/</dc:title>
     </cc:Agent>
    </dc:creator>
   </cc:Work>
  </rdf:RDF>
 </metadata>
 <defs>
  <style type="text/css">*{stroke-linejoin: round; stroke-linecap: butt}</style>
 </defs>
 <g id="figure_1">
  <g id="patch_1">
   <path d="M 0 267.95625 
L 281.756875 267.95625 
L 281.756875 0 
L 0 0 
z
" style="fill: #ffffff"/>
  </g>
  <g id="axes_1">
   <g id="patch_2">
    <path d="M 44.845313 244.078125 
L 266.605313 244.078125 
L 266.605313 22.318125 
L 44.845313 22.318125 
z
" style="fill: #ffffff"/>
   </g>
   <g id="PatchCollection_1">
    <path d="M 128.005313 160.918125 
L 139.093313 160.918125 
L 139.093313 149.830125 
L 128.005313 149.830125 
z
" clip-path="url(#p57daaaa2b8)" style="fill: #90ee90; fill-opacity: 0.7; stroke: #000000; stroke-opacity: 0.7"/>
    <path d="M 128.005313 149.830125 
L 139.093313 149.830125 
L 139.093313 138.742125 
L 128.005313 138.742125 
z
" clip-path="url(#p57daaaa2b8)" style="fill: #90ee90; fill-opacity: 0.7; stroke: #000000; stroke-opacity: 0.7"/>
    <path d="M 128.005313 138.742125 
L 139.093313 138.742125 
L 139.093313 127.654125 
L 128.005313 127.654125 
z
" clip-path="url(#p57daaaa2b8)" style="fill: #90ee90; fill-opacity: 0.7; stroke: #000000; stroke-opacity: 0.7"/>
    <path d="M 128.005313 127.654125 
L 139.093313 127.654125 
L 139.093313 116.566125 
L 128.005313 116.566125 
z
" clip-path="url(#p57daaaa2b8)" style="fill: #90ee90; fill-opacity: 0.7; stroke: #000000; stroke-opacity: 0.7"/>
    <path d="M 128.005313 116.566125 
L 139.093313 116.566125 
L 139.093313 105.478125 
L 128.005313 105.478125 
z
" clip-path="url(#p57daaaa2b8)" style="fill: #90ee90; fill-opacity: 0.7; stroke: #000000; stroke-opacity: 0.7"/>
    <path d="M 139.093313 160.918125 
L 150.181313 160.918125 
L 150.181313 149.830125 
L 139.093313 149.830125 
z
" clip-path="url(#p57daaaa2b8)" style="fill: #90ee90; fill-opacity: 0.7; stroke: #000000; stroke-opacity: 0.7"/>
    <path d="M 139.093313 149.830125 
L 150.181313 149.830125 
L 150.181313 138.742125 
L 139.093313 138.742125 
z
" clip-path="url(#p57daaaa2b8)" style="fill: #90ee90; fill-opacity: 0.7; stroke: #000000; stroke-opacity: 0.7"/>
    <path d="M 139.093313 138.742125 
L 150.181313 138.742125 
L 150.181313 127.654125 
L 139.093313 127.654125 
z
" clip-path="url(#p57daaaa2b8)" style="fill: #90ee90; fill-opacity: 0.7; stroke: #000000; stroke-opacity: 0.7"/>
    <path d="M 139.093313 127.654125 
L 150.181313 127.654125 
L 150.181313 116.566125 
L 139.093313 116.566125 
z
" clip-path="url(#p57daaaa2b8)" style="fill: #90ee90; fill-opacity: 0.7; stroke: #000000; stroke-opacity: 0.7"/>
    <path d="M 139.093313 116.566125 
L 150.181313 116.566125 
L 150.181313 105.478125 
L 139.093313 105.478125 
z
" clip-path="url(#p57daaaa2b8)" style="fill: #90ee90; fill-opacity: 0.7; stroke: #000000; stroke-opacity: 0.7"/>
    <path d="M 150.181313 160.918125 
L 161.269313 160.918125 
L 161.269313 149.830125 
L 150.181313 149.830125 
z
" clip-path="url(#p57daaaa2b8)" style="fill: #90ee90; fill-opacity: 0.7; stroke: #000000; stroke-opacity: 0.7"/>
    <path d="M 150.181313 149.830125 
L 161.269313 149.830125 
L 161.269313 138.742125 
L 150.181313 138.742125 
z
" clip-path="url(#p57daaaa2b8)" style="fill: #90ee90; fill-opacity: 0.7; stroke: #000000; stroke-opacity: 0.7"/>
    <path d="M 150.181313 138.742125 
L 161.269313 138.742125 
L 161.269313 127.654125 
L 150.181313 127.654125 
z
" clip-path="url(#p57daaaa2b8)" style="fill: #90ee90; fill-opacity: 0.7; stroke: #000000; stroke-opacity: 0.7"/>
    <path d="M 150.181313 127.654125 
L 161.269313 127.654125 
L 161.269313 116.566125 
L 150.181313 116.566125 
z
" clip-path="url(#p57daaaa2b8)" style="fill: #90ee90; fill-opacity: 0.7; stroke: #000000; stroke-opacity: 0.7"/>
    <path d="M 150.181313 116.566125 
L 161.269313 116.566125 
L 161.269313 105.478125 
L 150.181313 105.478125 
z
" clip-path="url(#p57daaaa2b8)" style="fill: #90ee90; fill-opacity: 0.7; stroke: #000000; stroke-opacity: 0.7"/>
    <path d="M 161.269313 160.918125 
L 172.357313 160.918125 
L 172.357313 149.830125 
L 161.269313 149.830125 
z
" clip-path="url(#p57daaaa2b8)" style="fill: #90ee90; fill-opacity: 0.7; stroke: #000000; stroke-opacity: 0.7"/>
    <path d="M 161.269313 149.830125 
L 172.357313 149.830125 
L 172.357313 138.742125 
L 161.269313 138.742125 
z
" clip-path="url(#p57daaaa2b8)" style="fill: #90ee90; fill-opacity: 0.7; stroke: #000000; stroke-opacity: 0.7"/>
    <path d="M 161.269313 138.742125 
L 172.357313 138.742125 
L 172.357313 127.654125 
L 161.269313 127.654125 
z
" clip-path="url(#p57daaaa2b8)" style="fill: #90ee90; fill-opacity: 0.7; stroke: #000000; stroke-opacity: 0.7"/>
    <path d="M 161.269313 127.654125 
L 172.357313 127.654125 
L 172.357313 116.566125 
L 161.269313 116.566125 
z
" clip-path="url(#p57daaaa2b8)" style="fill: #90ee90; fill-opacity: 0.7; stroke: #000000; stroke-opacity: 0.7"/>
    <path d="M 161.269313 116.566125 
L 172.357313 116.566125 
L 172.357313 105.478125 
L 161.269313 105.478125 
z
" clip-path="url(#p57daaaa2b8)" style="fill: #90ee90; fill-opacity: 0.7; stroke: #000000; stroke-opacity: 0.7"/>
    <path d="M 172.357313 160.918125 
L 183.445313 160.918125 
L 183.445313 149.830125 
L 172.357313 149.830125 
z
" clip-path="url(#p57daaaa2b8)" style="fill: #90ee90; fill-opacity: 0.7; stroke: #000000; stroke-opacity: 0.7"/>
    <path d="M 172.357313 149.830125 
L 183.445313 149.830125 
L 183.445313 138.742125 
L 172.357313 138.742125 
z
" clip-path="url(#p57daaaa2b8)" style="fill: #90ee90; fill-opacity: 0.7; stroke: #000000; stroke-opacity: 0.7"/>
    <path d="M 172.357313 138.742125 
L 183.445313 138.742125 
L 183.445313 127.654125 
L 172.357313 127.654125 
z
" clip-path="url(#p57daaaa2b8)" style="fill: #90ee90; fill-opacity: 0.7; stroke: #000000; stroke-opacity: 0.7"/>
    <path d="M 172.357313 127.654125 
L 183.445313 127.654125 
L 183.445313 116.566125 
L 172.357313 116.566125 
z
" clip-path="url(#p57daaaa2b8)" style="fill: #90ee90; fill-opacity: 0.7; stroke: #000000; stroke-opacity: 0.7"/>
    <path d="M 172.357313 116.566125 
L 183.445313 116.566125 
L 183.445313 105.478125 
L 172.357313 105.478125 
z
" clip-path="url(#p57daaaa2b8)" style="fill: #90ee90; fill-opacity: 0.7; stroke: #000000; stroke-opacity: 0.7"/>
    <path d="M 172.357313 105.478125 
L 175.727959 98.370645 
L 188.513712 100.409725 
L 183.445313 105.478125 
z
" clip-path="url(#p57daaaa2b8)" style="fill: #90ee90; fill-opacity: 0.7; stroke: #000000; stroke-opacity: 0.7"/>
    <path d="M 175.727959 98.370645 
L 179.098606 91.263164 
L 193.582112 95.341325 
L 188.513712 100.409725 
z
" clip-path="url(#p57daaaa2b8)" style="fill: #90ee90; fill-opacity: 0.7; stroke: #000000; stroke-opacity: 0.7"/>
    <path d="M 179.098606 91.263164 
L 182.469252 84.155684 
L 198.650512 90.272925 
L 193.582112 95.341325 
z
" clip-path="url(#p57daaaa2b8)" style="fill: #90ee90; fill-opacity: 0.7; stroke: #000000; stroke-opacity: 0.7"/>
    <path d="M 182.469252 84.155684 
L 185.839899 77.048204 
L 203.718912 85.204525 
L 198.650512 90.272925 
z
" clip-path="url(#p57daaaa2b8)" style="fill: #90ee90; fill-opacity: 0.7; stroke: #000000; stroke-opacity: 0.7"/>
    <path d="M 185.839899 77.048204 
L 189.210546 69.940723 
L 208.787312 80.136125 
L 203.718912 85.204525 
z
" clip-path="url(#p57daaaa2b8)" style="fill: #90ee90; fill-opacity: 0.7; stroke: #000000; stroke-opacity: 0.7"/>
    <path d="M 189.210546 69.940723 
L 192.581192 62.833243 
L 213.855712 75.067725 
L 208.787312 80.136125 
z
" clip-path="url(#p57daaaa2b8)" style="fill: #90ee90; fill-opacity: 0.7; stroke: #000000; stroke-opacity: 0.7"/>
    <path d="M 192.581192 62.833243 
L 195.951839 55.725763 
L 218.924112 69.999325 
L 213.855712 75.067725 
z
" clip-path="url(#p57daaaa2b8)" style="fill: #90ee90; fill-opacity: 0.7; stroke: #000000; stroke-opacity: 0.7"/>
    <path d="M 195.951839 55.725763 
L 199.322486 48.618282 
L 223.992512 64.930925 
L 218.924112 69.999325 
z
" clip-path="url(#p57daaaa2b8)" style="fill: #90ee90; fill-opacity: 0.7; stroke: #000000; stroke-opacity: 0.7"/>
    <path d="M 199.322486 48.618282 
L 202.693132 41.510802 
L 229.060912 59.862525 
L 223.992512 64.930925 
z
" clip-path="url(#p57daaaa2b8)" style="fill: #90ee90; fill-opacity: 0.7; stroke: #000000; stroke-opacity: 0.7"/>
    <path d="M 202.693132 41.510802 
L 206.063779 34.403322 
L 234.129312 54.794125 
L 229.060912 59.862525 
z
" clip-path="url(#p57daaaa2b8)" style="fill: #90ee90; fill-opacity: 0.7; stroke: #000000; stroke-opacity: 0.7"/>
    <path d="M 161.269313 105.478125 
L 162.449458 97.298637 
L 175.727959 98.370645 
L 172.357313 105.478125 
z
" clip-path="url(#p57daaaa2b8)" style="fill: #90ee90; fill-opacity: 0.7; stroke: #000000; stroke-opacity: 0.7"/>
    <path d="M 162.449458 97.298637 
L 163.629603 89.119148 
L 179.098606 91.263164 
L 175.727959 98.370645 
z
" clip-path="url(#p57daaaa2b8)" style="fill: #90ee90; fill-opacity: 0.7; stroke: #000000; stroke-opacity: 0.7"/>
    <path d="M 163.629603 89.119148 
L 164.809749 80.93966 
L 182.469252 84.155684 
L 179.098606 91.263164 
z
" clip-path="url(#p57daaaa2b8)" style="fill: #90ee90; fill-opacity: 0.7; stroke: #000000; stroke-opacity: 0.7"/>
    <path d="M 164.809749 80.93966 
L 165.989894 72.760172 
L 185.839899 77.048204 
L 182.469252 84.155684 
z
" clip-path="url(#p57daaaa2b8)" style="fill: #90ee90; fill-opacity: 0.7; stroke: #000000; stroke-opacity: 0.7"/>
    <path d="M 165.989894 72.760172 
L 167.170039 64.580683 
L 189.210546 69.940723 
L 185.839899 77.048204 
z
" clip-path="url(#p57daaaa2b8)" style="fill: #90ee90; fill-opacity: 0.7; stroke: #000000; stroke-opacity: 0.7"/>
    <path d="M 167.170039 64.580683 
L 168.350185 56.401195 
L 192.581192 62.833243 
L 189.210546 69.940723 
z
" clip-path="url(#p57daaaa2b8)" style="fill: #90ee90; fill-opacity: 0.7; stroke: #000000; stroke-opacity: 0.7"/>
    <path d="M 168.350185 56.401195 
L 169.53033 48.221707 
L 195.951839 55.725763 
L 192.581192 62.833243 
z
" clip-path="url(#p57daaaa2b8)" style="fill: #90ee90; fill-opacity: 0.7; stroke: #000000; stroke-opacity: 0.7"/>
    <path d="M 169.53033 48.221707 
L 170.710475 40.042218 
L 199.322486 48.618282 
L 195.951839 55.725763 
z
" clip-path="url(#p57daaaa2b8)" style="fill: #90ee90; fill-opacity: 0.7; stroke: #000000; stroke-opacity: 0.7"/>
    <path d="M 170.710475 40.042218 
L 171.890621 31.86273 
L 202.693132 41.510802 
L 199.322486 48.618282 
z
" clip-path="url(#p57daaaa2b8)" style="fill: #90ee90; fill-opacity: 0.7; stroke: #000000; stroke-opacity: 0.7"/>
    <path d="M 171.890621 31.86273 
L 173.070766 23.683242 
L 206.063779 34.403322 
L 202.693132 41.510802 
z
" clip-path="url(#p57daaaa2b8)" style="fill: #90ee90; fill-opacity: 0.7; stroke: #000000; stroke-opacity: 0.7"/>
    <path d="M 150.181313 105.478125 
L 149.001167 97.298637 
L 162.449458 97.298637 
L 161.269313 105.478125 
z
" clip-path="url(#p57daaaa2b8)" style="fill: #90ee90; fill-opacity: 0.7; stroke: #000000; stroke-opacity: 0.7"/>
    <path d="M 149.001167 97.298637 
L 147.821022 89.119148 
L 163.629603 89.119148 
L 162.449458 97.298637 
z
" clip-path="url(#p57daaaa2b8)" style="fill: #90ee90; fill-opacity: 0.7; stroke: #000000; stroke-opacity: 0.7"/>
    <path d="M 147.821022 89.119148 
L 146.640876 80.93966 
L 164.809749 80.93966 
L 163.629603 89.119148 
z
" clip-path="url(#p57daaaa2b8)" style="fill: #90ee90; fill-opacity: 0.7; stroke: #000000; stroke-opacity: 0.7"/>
    <path d="M 146.640876 80.93966 
L 145.460731 72.760172 
L 165.989894 72.760172 
L 164.809749 80.93966 
z
" clip-path="url(#p57daaaa2b8)" style="fill: #90ee90; fill-opacity: 0.7; stroke: #000000; stroke-opacity: 0.7"/>
    <path d="M 145.460731 72.760172 
L 144.280586 64.580683 
L 167.170039 64.580683 
L 165.989894 72.760172 
z
" clip-path="url(#p57daaaa2b8)" style="fill: #90ee90; fill-opacity: 0.7; stroke: #000000; stroke-opacity: 0.7"/>
    <path d="M 144.280586 64.580683 
L 143.10044 56.401195 
L 168.350185 56.401195 
L 167.170039 64.580683 
z
" clip-path="url(#p57daaaa2b8)" style="fill: #90ee90; fill-opacity: 0.7; stroke: #000000; stroke-opacity: 0.7"/>
    <path d="M 143.10044 56.401195 
L 141.920295 48.221707 
L 169.53033 48.221707 
L 168.350185 56.401195 
z
" clip-path="url(#p57daaaa2b8)" style="fill: #90ee90; fill-opacity: 0.7; stroke: #000000; stroke-opacity: 0.7"/>
    <path d="M 141.920295 48.221707 
L 140.74015 40.042218 
L 170.710475 40.042218 
L 169.53033 48.221707 
z
" clip-path="url(#p57daaaa2b8)" style="fill: #90ee90; fill-opacity: 0.7; stroke: #000000; stroke-opacity: 0.7"/>
    <path d="M 140.74015 40.042218 
L 139.560004 31.86273 
L 171.890621 31.86273 
L 170.710475 40.042218 
z
" clip-path="url(#p57daaaa2b8)" style="fill: #90ee90; fill-opacity: 0.7; stroke: #000000; stroke-opacity: 0.7"/>
    <path d="M 139.560004 31.86273 
L 138.379859 23.683242 
L 173.070766 23.683242 
L 171.890621 31.86273 
z
" clip-path="url(#p57daaaa2b8)" style="fill: #90ee90; fill-opacity: 0.7; stroke: #000000; stroke-opacity: 0.7"/>
    <path d="M 139.093313 105.478125 
L 135.722666 98.370645 
L 149.001167 97.298637 
L 150.181313 105.478125 
z
" clip-path="url(#p57daaaa2b8)" style="fill: #90ee90; fill-opacity: 0.7; stroke: #000000; stroke-opacity: 0.7"/>
    <path d="M 135.722666 98.370645 
L 132.352019 91.263164 
L 147.821022 89.119148 
L 149.001167 97.298637 
z
" clip-path="url(#p57daaaa2b8)" style="fill: #90ee90; fill-opacity: 0.7; stroke: #000000; stroke-opacity: 0.7"/>
    <path d="M 132.352019 91.263164 
L 128.981373 84.155684 
L 146.640876 80.93966 
L 147.821022 89.119148 
z
" clip-path="url(#p57daaaa2b8)" style="fill: #90ee90; fill-opacity: 0.7; stroke: #000000; stroke-opacity: 0.7"/>
    <path d="M 128.981373 84.155684 
L 125.610726 77.048204 
L 145.460731 72.760172 
L 146.640876 80.93966 
z
" clip-path="url(#p57daaaa2b8)" style="fill: #90ee90; fill-opacity: 0.7; stroke: #000000; stroke-opacity: 0.7"/>
    <path d="M 125.610726 77.048204 
L 122.240079 69.940723 
L 144.280586 64.580683 
L 145.460731 72.760172 
z
" clip-path="url(#p57daaaa2b8)" style="fill: #90ee90; fill-opacity: 0.7; stroke: #000000; stroke-opacity: 0.7"/>
    <path d="M 122.240079 69.940723 
L 118.869433 62.833243 
L 143.10044 56.401195 
L 144.280586 64.580683 
z
" clip-path="url(#p57daaaa2b8)" style="fill: #90ee90; fill-opacity: 0.7; stroke: #000000; stroke-opacity: 0.7"/>
    <path d="M 118.869433 62.833243 
L 115.498786 55.725763 
L 141.920295 48.221707 
L 143.10044 56.401195 
z
" clip-path="url(#p57daaaa2b8)" style="fill: #90ee90; fill-opacity: 0.7; stroke: #000000; stroke-opacity: 0.7"/>
    <path d="M 115.498786 55.725763 
L 112.128139 48.618282 
L 140.74015 40.042218 
L 141.920295 48.221707 
z
" clip-path="url(#p57daaaa2b8)" style="fill: #90ee90; fill-opacity: 0.7; stroke: #000000; stroke-opacity: 0.7"/>
    <path d="M 112.128139 48.618282 
L 108.757493 41.510802 
L 139.560004 31.86273 
L 140.74015 40.042218 
z
" clip-path="url(#p57daaaa2b8)" style="fill: #90ee90; fill-opacity: 0.7; stroke: #000000; stroke-opacity: 0.7"/>
    <path d="M 108.757493 41.510802 
L 105.386846 34.403322 
L 138.379859 23.683242 
L 139.560004 31.86273 
z
" clip-path="url(#p57daaaa2b8)" style="fill: #90ee90; fill-opacity: 0.7; stroke: #000000; stroke-opacity: 0.7"/>
    <path d="M 128.005313 105.478125 
L 122.936913 100.409725 
L 135.722666 98.370645 
L 139.093313 105.478125 
z
" clip-path="url(#p57daaaa2b8)" style="fill: #90ee90; fill-opacity: 0.7; stroke: #000000; stroke-opacity: 0.7"/>
    <path d="M 122.936913 100.409725 
L 117.868513 95.341325 
L 132.352019 91.263164 
L 135.722666 98.370645 
z
" clip-path="url(#p57daaaa2b8)" style="fill: #90ee90; fill-opacity: 0.7; stroke: #000000; stroke-opacity: 0.7"/>
    <path d="M 117.868513 95.341325 
L 112.800113 90.272925 
L 128.981373 84.155684 
L 132.352019 91.263164 
z
" clip-path="url(#p57daaaa2b8)" style="fill: #90ee90; fill-opacity: 0.7; stroke: #000000; stroke-opacity: 0.7"/>
    <path d="M 112.800113 90.272925 
L 107.731713 85.204525 
L 125.610726 77.048204 
L 128.981373 84.155684 
z
" clip-path="url(#p57daaaa2b8)" style="fill: #90ee90; fill-opacity: 0.7; stroke: #000000; stroke-opacity: 0.7"/>
    <path d="M 107.731713 85.204525 
L 102.663313 80.136125 
L 122.240079 69.940723 
L 125.610726 77.048204 
z
" clip-path="url(#p57daaaa2b8)" style="fill: #90ee90; fill-opacity: 0.7; stroke: #000000; stroke-opacity: 0.7"/>
    <path d="M 102.663313 80.136125 
L 97.594913 75.067725 
L 118.869433 62.833243 
L 122.240079 69.940723 
z
" clip-path="url(#p57daaaa2b8)" style="fill: #90ee90; fill-opacity: 0.7; stroke: #000000; stroke-opacity: 0.7"/>
    <path d="M 97.594913 75.067725 
L 92.526513 69.999325 
L 115.498786 55.725763 
L 118.869433 62.833243 
z
" clip-path="url(#p57daaaa2b8)" style="fill: #90ee90; fill-opacity: 0.7; stroke: #000000; stroke-opacity: 0.7"/>
    <path d="M 92.526513 69.999325 
L 87.458113 64.930925 
L 112.128139 48.618282 
L 115.498786 55.725763 
z
" clip-path="url(#p57daaaa2b8)" style="fill: #90ee90; fill-opacity: 0.7; stroke: #000000; stroke-opacity: 0.7"/>
    <path d="M 87.458113 64.930925 
L 82.389713 59.862525 
L 108.757493 41.510802 
L 112.128139 48.618282 
z
" clip-path="url(#p57daaaa2b8)" style="fill: #90ee90; fill-opacity: 0.7; stroke: #000000; stroke-opacity: 0.7"/>
    <path d="M 82.389713 59.862525 
L 77.321313 54.794125 
L 105.386846 34.403322 
L 108.757493 41.510802 
z
" clip-path="url(#p57daaaa2b8)" style="fill: #90ee90; fill-opacity: 0.7; stroke: #000000; stroke-opacity: 0.7"/>
    <path d="M 128.005313 116.566125 
L 120.897832 113.195478 
L 122.936913 100.409725 
L 128.005313 105.478125 
z
" clip-path="url(#p57daaaa2b8)" style="fill: #90ee90; fill-opacity: 0.7; stroke: #000000; stroke-opacity: 0.7"/>
    <path d="M 120.897832 113.195478 
L 113.790352 109.824832 
L 117.868513 95.341325 
L 122.936913 100.409725 
z
" clip-path="url(#p57daaaa2b8)" style="fill: #90ee90; fill-opacity: 0.7; stroke: #000000; stroke-opacity: 0.7"/>
    <path d="M 113.790352 109.824832 
L 106.682871 106.454185 
L 112.800113 90.272925 
L 117.868513 95.341325 
z
" clip-path="url(#p57daaaa2b8)" style="fill: #90ee90; fill-opacity: 0.7; stroke: #000000; stroke-opacity: 0.7"/>
    <path d="M 106.682871 106.454185 
L 99.575391 103.083538 
L 107.731713 85.204525 
L 112.800113 90.272925 
z
" clip-path="url(#p57daaaa2b8)" style="fill: #90ee90; fill-opacity: 0.7; stroke: #000000; stroke-opacity: 0.7"/>
    <path d="M 99.575391 103.083538 
L 92.467911 99.712892 
L 102.663313 80.136125 
L 107.731713 85.204525 
z
" clip-path="url(#p57daaaa2b8)" style="fill: #90ee90; fill-opacity: 0.7; stroke: #000000; stroke-opacity: 0.7"/>
    <path d="M 92.467911 99.712892 
L 85.36043 96.342245 
L 97.594913 75.067725 
L 102.663313 80.136125 
z
" clip-path="url(#p57daaaa2b8)" style="fill: #90ee90; fill-opacity: 0.7; stroke: #000000; stroke-opacity: 0.7"/>
    <path d="M 85.36043 96.342245 
L 78.25295 92.971598 
L 92.526513 69.999325 
L 97.594913 75.067725 
z
" clip-path="url(#p57daaaa2b8)" style="fill: #90ee90; fill-opacity: 0.7; stroke: #000000; stroke-opacity: 0.7"/>
    <path d="M 78.25295 92.971598 
L 71.14547 89.600952 
L 87.458113 64.930925 
L 92.526513 69.999325 
z
" clip-path="url(#p57daaaa2b8)" style="fill: #90ee90; fill-opacity: 0.7; stroke: #000000; stroke-opacity: 0.7"/>
    <path d="M 71.14547 89.600952 
L 64.037989 86.230305 
L 82.389713 59.862525 
L 87.458113 64.930925 
z
" clip-path="url(#p57daaaa2b8)" style="fill: #90ee90; fill-opacity: 0.7; stroke: #000000; stroke-opacity: 0.7"/>
    <path d="M 64.037989 86.230305 
L 56.930509 82.859658 
L 77.321313 54.794125 
L 82.389713 59.862525 
z
" clip-path="url(#p57daaaa2b8)" style="fill: #90ee90; fill-opacity: 0.7; stroke: #000000; stroke-opacity: 0.7"/>
    <path d="M 128.005313 127.654125 
L 119.825824 126.47398 
L 120.897832 113.195478 
L 128.005313 116.566125 
z
" clip-path="url(#p57daaaa2b8)" style="fill: #90ee90; fill-opacity: 0.7; stroke: #000000; stroke-opacity: 0.7"/>
    <path d="M 119.825824 126.47398 
L 111.646336 125.293834 
L 113.790352 109.824832 
L 120.897832 113.195478 
z
" clip-path="url(#p57daaaa2b8)" style="fill: #90ee90; fill-opacity: 0.7; stroke: #000000; stroke-opacity: 0.7"/>
    <path d="M 111.646336 125.293834 
L 103.466848 124.113689 
L 106.682871 106.454185 
L 113.790352 109.824832 
z
" clip-path="url(#p57daaaa2b8)" style="fill: #90ee90; fill-opacity: 0.7; stroke: #000000; stroke-opacity: 0.7"/>
    <path d="M 103.466848 124.113689 
L 95.287359 122.933544 
L 99.575391 103.083538 
L 106.682871 106.454185 
z
" clip-path="url(#p57daaaa2b8)" style="fill: #90ee90; fill-opacity: 0.7; stroke: #000000; stroke-opacity: 0.7"/>
    <path d="M 95.287359 122.933544 
L 87.107871 121.753398 
L 92.467911 99.712892 
L 99.575391 103.083538 
z
" clip-path="url(#p57daaaa2b8)" style="fill: #90ee90; fill-opacity: 0.7; stroke: #000000; stroke-opacity: 0.7"/>
    <path d="M 87.107871 121.753398 
L 78.928383 120.573253 
L 85.36043 96.342245 
L 92.467911 99.712892 
z
" clip-path="url(#p57daaaa2b8)" style="fill: #90ee90; fill-opacity: 0.7; stroke: #000000; stroke-opacity: 0.7"/>
    <path d="M 78.928383 120.573253 
L 70.748894 119.393108 
L 78.25295 92.971598 
L 85.36043 96.342245 
z
" clip-path="url(#p57daaaa2b8)" style="fill: #90ee90; fill-opacity: 0.7; stroke: #000000; stroke-opacity: 0.7"/>
    <path d="M 70.748894 119.393108 
L 62.569406 118.212962 
L 71.14547 89.600952 
L 78.25295 92.971598 
z
" clip-path="url(#p57daaaa2b8)" style="fill: #90ee90; fill-opacity: 0.7; stroke: #000000; stroke-opacity: 0.7"/>
    <path d="M 62.569406 118.212962 
L 54.389918 117.032817 
L 64.037989 86.230305 
L 71.14547 89.600952 
z
" clip-path="url(#p57daaaa2b8)" style="fill: #90ee90; fill-opacity: 0.7; stroke: #000000; stroke-opacity: 0.7"/>
    <path d="M 54.389918 117.032817 
L 46.210429 115.852672 
L 56.930509 82.859658 
L 64.037989 86.230305 
z
" clip-path="url(#p57daaaa2b8)" style="fill: #90ee90; fill-opacity: 0.7; stroke: #000000; stroke-opacity: 0.7"/>
    <path d="M 128.005313 138.742125 
L 119.825824 139.92227 
L 119.825824 126.47398 
L 128.005313 127.654125 
z
" clip-path="url(#p57daaaa2b8)" style="fill: #90ee90; fill-opacity: 0.7; stroke: #000000; stroke-opacity: 0.7"/>
    <path d="M 119.825824 139.92227 
L 111.646336 141.102416 
L 111.646336 125.293834 
L 119.825824 126.47398 
z
" clip-path="url(#p57daaaa2b8)" style="fill: #90ee90; fill-opacity: 0.7; stroke: #000000; stroke-opacity: 0.7"/>
    <path d="M 111.646336 141.102416 
L 103.466848 142.282561 
L 103.466848 124.113689 
L 111.646336 125.293834 
z
" clip-path="url(#p57daaaa2b8)" style="fill: #90ee90; fill-opacity: 0.7; stroke: #000000; stroke-opacity: 0.7"/>
    <path d="M 103.466848 142.282561 
L 95.287359 143.462706 
L 95.287359 122.933544 
L 103.466848 124.113689 
z
" clip-path="url(#p57daaaa2b8)" style="fill: #90ee90; fill-opacity: 0.7; stroke: #000000; stroke-opacity: 0.7"/>
    <path d="M 95.287359 143.462706 
L 87.107871 144.642852 
L 87.107871 121.753398 
L 95.287359 122.933544 
z
" clip-path="url(#p57daaaa2b8)" style="fill: #90ee90; fill-opacity: 0.7; stroke: #000000; stroke-opacity: 0.7"/>
    <path d="M 87.107871 144.642852 
L 78.928383 145.822997 
L 78.928383 120.573253 
L 87.107871 121.753398 
z
" clip-path="url(#p57daaaa2b8)" style="fill: #90ee90; fill-opacity: 0.7; stroke: #000000; stroke-opacity: 0.7"/>
    <path d="M 78.928383 145.822997 
L 70.748894 147.003142 
L 70.748894 119.393108 
L 78.928383 120.573253 
z
" clip-path="url(#p57daaaa2b8)" style="fill: #90ee90; fill-opacity: 0.7; stroke: #000000; stroke-opacity: 0.7"/>
    <path d="M 70.748894 147.003142 
L 62.569406 148.183288 
L 62.569406 118.212962 
L 70.748894 119.393108 
z
" clip-path="url(#p57daaaa2b8)" style="fill: #90ee90; fill-opacity: 0.7; stroke: #000000; stroke-opacity: 0.7"/>
    <path d="M 62.569406 148.183288 
L 54.389918 149.363433 
L 54.389918 117.032817 
L 62.569406 118.212962 
z
" clip-path="url(#p57daaaa2b8)" style="fill: #90ee90; fill-opacity: 0.7; stroke: #000000; stroke-opacity: 0.7"/>
    <path d="M 54.389918 149.363433 
L 46.210429 150.543578 
L 46.210429 115.852672 
L 54.389918 117.032817 
z
" clip-path="url(#p57daaaa2b8)" style="fill: #90ee90; fill-opacity: 0.7; stroke: #000000; stroke-opacity: 0.7"/>
    <path d="M 128.005313 149.830125 
L 120.897832 153.200772 
L 119.825824 139.92227 
L 128.005313 138.742125 
z
" clip-path="url(#p57daaaa2b8)" style="fill: #90ee90; fill-opacity: 0.7; stroke: #000000; stroke-opacity: 0.7"/>
    <path d="M 120.897832 153.200772 
L 113.790352 156.571418 
L 111.646336 141.102416 
L 119.825824 139.92227 
z
" clip-path="url(#p57daaaa2b8)" style="fill: #90ee90; fill-opacity: 0.7; stroke: #000000; stroke-opacity: 0.7"/>
    <path d="M 113.790352 156.571418 
L 106.682871 159.942065 
L 103.466848 142.282561 
L 111.646336 141.102416 
z
" clip-path="url(#p57daaaa2b8)" style="fill: #90ee90; fill-opacity: 0.7; stroke: #000000; stroke-opacity: 0.7"/>
    <path d="M 106.682871 159.942065 
L 99.575391 163.312712 
L 95.287359 143.462706 
L 103.466848 142.282561 
z
" clip-path="url(#p57daaaa2b8)" style="fill: #90ee90; fill-opacity: 0.7; stroke: #000000; stroke-opacity: 0.7"/>
    <path d="M 99.575391 163.312712 
L 92.467911 166.683358 
L 87.107871 144.642852 
L 95.287359 143.462706 
z
" clip-path="url(#p57daaaa2b8)" style="fill: #90ee90; fill-opacity: 0.7; stroke: #000000; stroke-opacity: 0.7"/>
    <path d="M 92.467911 166.683358 
L 85.36043 170.054005 
L 78.928383 145.822997 
L 87.107871 144.642852 
z
" clip-path="url(#p57daaaa2b8)" style="fill: #90ee90; fill-opacity: 0.7; stroke: #000000; stroke-opacity: 0.7"/>
    <path d="M 85.36043 170.054005 
L 78.25295 173.424652 
L 70.748894 147.003142 
L 78.928383 145.822997 
z
" clip-path="url(#p57daaaa2b8)" style="fill: #90ee90; fill-opacity: 0.7; stroke: #000000; stroke-opacity: 0.7"/>
    <path d="M 78.25295 173.424652 
L 71.14547 176.795298 
L 62.569406 148.183288 
L 70.748894 147.003142 
z
" clip-path="url(#p57daaaa2b8)" style="fill: #90ee90; fill-opacity: 0.7; stroke: #000000; stroke-opacity: 0.7"/>
    <path d="M 71.14547 176.795298 
L 64.037989 180.165945 
L 54.389918 149.363433 
L 62.569406 148.183288 
z
" clip-path="url(#p57daaaa2b8)" style="fill: #90ee90; fill-opacity: 0.7; stroke: #000000; stroke-opacity: 0.7"/>
    <path d="M 64.037989 180.165945 
L 56.930509 183.536592 
L 46.210429 150.543578 
L 54.389918 149.363433 
z
" clip-path="url(#p57daaaa2b8)" style="fill: #90ee90; fill-opacity: 0.7; stroke: #000000; stroke-opacity: 0.7"/>
    <path d="M 128.005313 160.918125 
L 122.936913 165.986525 
L 120.897832 153.200772 
L 128.005313 149.830125 
z
" clip-path="url(#p57daaaa2b8)" style="fill: #90ee90; fill-opacity: 0.7; stroke: #000000; stroke-opacity: 0.7"/>
    <path d="M 122.936913 165.986525 
L 117.868513 171.054925 
L 113.790352 156.571418 
L 120.897832 153.200772 
z
" clip-path="url(#p57daaaa2b8)" style="fill: #90ee90; fill-opacity: 0.7; stroke: #000000; stroke-opacity: 0.7"/>
    <path d="M 117.868513 171.054925 
L 112.800113 176.123325 
L 106.682871 159.942065 
L 113.790352 156.571418 
z
" clip-path="url(#p57daaaa2b8)" style="fill: #90ee90; fill-opacity: 0.7; stroke: #000000; stroke-opacity: 0.7"/>
    <path d="M 112.800113 176.123325 
L 107.731713 181.191725 
L 99.575391 163.312712 
L 106.682871 159.942065 
z
" clip-path="url(#p57daaaa2b8)" style="fill: #90ee90; fill-opacity: 0.7; stroke: #000000; stroke-opacity: 0.7"/>
    <path d="M 107.731713 181.191725 
L 102.663313 186.260125 
L 92.467911 166.683358 
L 99.575391 163.312712 
z
" clip-path="url(#p57daaaa2b8)" style="fill: #90ee90; fill-opacity: 0.7; stroke: #000000; stroke-opacity: 0.7"/>
    <path d="M 102.663313 186.260125 
L 97.594913 191.328525 
L 85.36043 170.054005 
L 92.467911 166.683358 
z
" clip-path="url(#p57daaaa2b8)" style="fill: #90ee90; fill-opacity: 0.7; stroke: #000000; stroke-opacity: 0.7"/>
    <path d="M 97.594913 191.328525 
L 92.526513 196.396925 
L 78.25295 173.424652 
L 85.36043 170.054005 
z
" clip-path="url(#p57daaaa2b8)" style="fill: #90ee90; fill-opacity: 0.7; stroke: #000000; stroke-opacity: 0.7"/>
    <path d="M 92.526513 196.396925 
L 87.458113 201.465325 
L 71.14547 176.795298 
L 78.25295 173.424652 
z
" clip-path="url(#p57daaaa2b8)" style="fill: #90ee90; fill-opacity: 0.7; stroke: #000000; stroke-opacity: 0.7"/>
    <path d="M 87.458113 201.465325 
L 82.389713 206.533725 
L 64.037989 180.165945 
L 71.14547 176.795298 
z
" clip-path="url(#p57daaaa2b8)" style="fill: #90ee90; fill-opacity: 0.7; stroke: #000000; stroke-opacity: 0.7"/>
    <path d="M 82.389713 206.533725 
L 77.321313 211.602125 
L 56.930509 183.536592 
L 64.037989 180.165945 
z
" clip-path="url(#p57daaaa2b8)" style="fill: #90ee90; fill-opacity: 0.7; stroke: #000000; stroke-opacity: 0.7"/>
    <path d="M 139.093313 160.918125 
L 135.722666 168.025605 
L 122.936913 165.986525 
L 128.005313 160.918125 
z
" clip-path="url(#p57daaaa2b8)" style="fill: #90ee90; fill-opacity: 0.7; stroke: #000000; stroke-opacity: 0.7"/>
    <path d="M 135.722666 168.025605 
L 132.352019 175.133086 
L 117.868513 171.054925 
L 122.936913 165.986525 
z
" clip-path="url(#p57daaaa2b8)" style="fill: #90ee90; fill-opacity: 0.7; stroke: #000000; stroke-opacity: 0.7"/>
    <path d="M 132.352019 175.133086 
L 128.981373 182.240566 
L 112.800113 176.123325 
L 117.868513 171.054925 
z
" clip-path="url(#p57daaaa2b8)" style="fill: #90ee90; fill-opacity: 0.7; stroke: #000000; stroke-opacity: 0.7"/>
    <path d="M 128.981373 182.240566 
L 125.610726 189.348046 
L 107.731713 181.191725 
L 112.800113 176.123325 
z
" clip-path="url(#p57daaaa2b8)" style="fill: #90ee90; fill-opacity: 0.7; stroke: #000000; stroke-opacity: 0.7"/>
    <path d="M 125.610726 189.348046 
L 122.240079 196.455527 
L 102.663313 186.260125 
L 107.731713 181.191725 
z
" clip-path="url(#p57daaaa2b8)" style="fill: #90ee90; fill-opacity: 0.7; stroke: #000000; stroke-opacity: 0.7"/>
    <path d="M 122.240079 196.455527 
L 118.869433 203.563007 
L 97.594913 191.328525 
L 102.663313 186.260125 
z
" clip-path="url(#p57daaaa2b8)" style="fill: #90ee90; fill-opacity: 0.7; stroke: #000000; stroke-opacity: 0.7"/>
    <path d="M 118.869433 203.563007 
L 115.498786 210.670487 
L 92.526513 196.396925 
L 97.594913 191.328525 
z
" clip-path="url(#p57daaaa2b8)" style="fill: #90ee90; fill-opacity: 0.7; stroke: #000000; stroke-opacity: 0.7"/>
    <path d="M 115.498786 210.670487 
L 112.128139 217.777968 
L 87.458113 201.465325 
L 92.526513 196.396925 
z
" clip-path="url(#p57daaaa2b8)" style="fill: #90ee90; fill-opacity: 0.7; stroke: #000000; stroke-opacity: 0.7"/>
    <path d="M 112.128139 217.777968 
L 108.757493 224.885448 
L 82.389713 206.533725 
L 87.458113 201.465325 
z
" clip-path="url(#p57daaaa2b8)" style="fill: #90ee90; fill-opacity: 0.7; stroke: #000000; stroke-opacity: 0.7"/>
    <path d="M 108.757493 224.885448 
L 105.386846 231.992928 
L 77.321313 211.602125 
L 82.389713 206.533725 
z
" clip-path="url(#p57daaaa2b8)" style="fill: #90ee90; fill-opacity: 0.7; stroke: #000000; stroke-opacity: 0.7"/>
    <path d="M 150.181313 160.918125 
L 149.001167 169.097613 
L 135.722666 168.025605 
L 139.093313 160.918125 
z
" clip-path="url(#p57daaaa2b8)" style="fill: #90ee90; fill-opacity: 0.7; stroke: #000000; stroke-opacity: 0.7"/>
    <path d="M 149.001167 169.097613 
L 147.821022 177.277102 
L 132.352019 175.133086 
L 135.722666 168.025605 
z
" clip-path="url(#p57daaaa2b8)" style="fill: #90ee90; fill-opacity: 0.7; stroke: #000000; stroke-opacity: 0.7"/>
    <path d="M 147.821022 177.277102 
L 146.640876 185.45659 
L 128.981373 182.240566 
L 132.352019 175.133086 
z
" clip-path="url(#p57daaaa2b8)" style="fill: #90ee90; fill-opacity: 0.7; stroke: #000000; stroke-opacity: 0.7"/>
    <path d="M 146.640876 185.45659 
L 145.460731 193.636078 
L 125.610726 189.348046 
L 128.981373 182.240566 
z
" clip-path="url(#p57daaaa2b8)" style="fill: #90ee90; fill-opacity: 0.7; stroke: #000000; stroke-opacity: 0.7"/>
    <path d="M 145.460731 193.636078 
L 144.280586 201.815567 
L 122.240079 196.455527 
L 125.610726 189.348046 
z
" clip-path="url(#p57daaaa2b8)" style="fill: #90ee90; fill-opacity: 0.7; stroke: #000000; stroke-opacity: 0.7"/>
    <path d="M 144.280586 201.815567 
L 143.10044 209.995055 
L 118.869433 203.563007 
L 122.240079 196.455527 
z
" clip-path="url(#p57daaaa2b8)" style="fill: #90ee90; fill-opacity: 0.7; stroke: #000000; stroke-opacity: 0.7"/>
    <path d="M 143.10044 209.995055 
L 141.920295 218.174543 
L 115.498786 210.670487 
L 118.869433 203.563007 
z
" clip-path="url(#p57daaaa2b8)" style="fill: #90ee90; fill-opacity: 0.7; stroke: #000000; stroke-opacity: 0.7"/>
    <path d="M 141.920295 218.174543 
L 140.74015 226.354032 
L 112.128139 217.777968 
L 115.498786 210.670487 
z
" clip-path="url(#p57daaaa2b8)" style="fill: #90ee90; fill-opacity: 0.7; stroke: #000000; stroke-opacity: 0.7"/>
    <path d="M 140.74015 226.354032 
L 139.560004 234.53352 
L 108.757493 224.885448 
L 112.128139 217.777968 
z
" clip-path="url(#p57daaaa2b8)" style="fill: #90ee90; fill-opacity: 0.7; stroke: #000000; stroke-opacity: 0.7"/>
    <path d="M 139.560004 234.53352 
L 138.379859 242.713008 
L 105.386846 231.992928 
L 108.757493 224.885448 
z
" clip-path="url(#p57daaaa2b8)" style="fill: #90ee90; fill-opacity: 0.7; stroke: #000000; stroke-opacity: 0.7"/>
    <path d="M 161.269313 160.918125 
L 162.449458 169.097613 
L 149.001167 169.097613 
L 150.181313 160.918125 
z
" clip-path="url(#p57daaaa2b8)" style="fill: #90ee90; fill-opacity: 0.7; stroke: #000000; stroke-opacity: 0.7"/>
    <path d="M 162.449458 169.097613 
L 163.629603 177.277102 
L 147.821022 177.277102 
L 149.001167 169.097613 
z
" clip-path="url(#p57daaaa2b8)" style="fill: #90ee90; fill-opacity: 0.7; stroke: #000000; stroke-opacity: 0.7"/>
    <path d="M 163.629603 177.277102 
L 164.809749 185.45659 
L 146.640876 185.45659 
L 147.821022 177.277102 
z
" clip-path="url(#p57daaaa2b8)" style="fill: #90ee90; fill-opacity: 0.7; stroke: #000000; stroke-opacity: 0.7"/>
    <path d="M 164.809749 185.45659 
L 165.989894 193.636078 
L 145.460731 193.636078 
L 146.640876 185.45659 
z
" clip-path="url(#p57daaaa2b8)" style="fill: #90ee90; fill-opacity: 0.7; stroke: #000000; stroke-opacity: 0.7"/>
    <path d="M 165.989894 193.636078 
L 167.170039 201.815567 
L 144.280586 201.815567 
L 145.460731 193.636078 
z
" clip-path="url(#p57daaaa2b8)" style="fill: #90ee90; fill-opacity: 0.7; stroke: #000000; stroke-opacity: 0.7"/>
    <path d="M 167.170039 201.815567 
L 168.350185 209.995055 
L 143.10044 209.995055 
L 144.280586 201.815567 
z
" clip-path="url(#p57daaaa2b8)" style="fill: #90ee90; fill-opacity: 0.7; stroke: #000000; stroke-opacity: 0.7"/>
    <path d="M 168.350185 209.995055 
L 169.53033 218.174543 
L 141.920295 218.174543 
L 143.10044 209.995055 
z
" clip-path="url(#p57daaaa2b8)" style="fill: #90ee90; fill-opacity: 0.7; stroke: #000000; stroke-opacity: 0.7"/>
    <path d="M 169.53033 218.174543 
L 170.710475 226.354032 
L 140.74015 226.354032 
L 141.920295 218.174543 
z
" clip-path="url(#p57daaaa2b8)" style="fill: #90ee90; fill-opacity: 0.7; stroke: #000000; stroke-opacity: 0.7"/>
    <path d="M 170.710475 226.354032 
L 171.890621 234.53352 
L 139.560004 234.53352 
L 140.74015 226.354032 
z
" clip-path="url(#p57daaaa2b8)" style="fill: #90ee90; fill-opacity: 0.7; stroke: #000000; stroke-opacity: 0.7"/>
    <path d="M 171.890621 234.53352 
L 173.070766 242.713008 
L 138.379859 242.713008 
L 139.560004 234.53352 
z
" clip-path="url(#p57daaaa2b8)" style="fill: #90ee90; fill-opacity: 0.7; stroke: #000000; stroke-opacity: 0.7"/>
    <path d="M 172.357313 160.918125 
L 175.727959 168.025605 
L 162.449458 169.097613 
L 161.269313 160.918125 
z
" clip-path="url(#p57daaaa2b8)" style="fill: #90ee90; fill-opacity: 0.7; stroke: #000000; stroke-opacity: 0.7"/>
    <path d="M 175.727959 168.025605 
L 179.098606 175.133086 
L 163.629603 177.277102 
L 162.449458 169.097613 
z
" clip-path="url(#p57daaaa2b8)" style="fill: #90ee90; fill-opacity: 0.7; stroke: #000000; stroke-opacity: 0.7"/>
    <path d="M 179.098606 175.133086 
L 182.469252 182.240566 
L 164.809749 185.45659 
L 163.629603 177.277102 
z
" clip-path="url(#p57daaaa2b8)" style="fill: #90ee90; fill-opacity: 0.7; stroke: #000000; stroke-opacity: 0.7"/>
    <path d="M 182.469252 182.240566 
L 185.839899 189.348046 
L 165.989894 193.636078 
L 164.809749 185.45659 
z
" clip-path="url(#p57daaaa2b8)" style="fill: #90ee90; fill-opacity: 0.7; stroke: #000000; stroke-opacity: 0.7"/>
    <path d="M 185.839899 189.348046 
L 189.210546 196.455527 
L 167.170039 201.815567 
L 165.989894 193.636078 
z
" clip-path="url(#p57daaaa2b8)" style="fill: #90ee90; fill-opacity: 0.7; stroke: #000000; stroke-opacity: 0.7"/>
    <path d="M 189.210546 196.455527 
L 192.581192 203.563007 
L 168.350185 209.995055 
L 167.170039 201.815567 
z
" clip-path="url(#p57daaaa2b8)" style="fill: #90ee90; fill-opacity: 0.7; stroke: #000000; stroke-opacity: 0.7"/>
    <path d="M 192.581192 203.563007 
L 195.951839 210.670487 
L 169.53033 218.174543 
L 168.350185 209.995055 
z
" clip-path="url(#p57daaaa2b8)" style="fill: #90ee90; fill-opacity: 0.7; stroke: #000000; stroke-opacity: 0.7"/>
    <path d="M 195.951839 210.670487 
L 199.322486 217.777968 
L 170.710475 226.354032 
L 169.53033 218.174543 
z
" clip-path="url(#p57daaaa2b8)" style="fill: #90ee90; fill-opacity: 0.7; stroke: #000000; stroke-opacity: 0.7"/>
    <path d="M 199.322486 217.777968 
L 202.693132 224.885448 
L 171.890621 234.53352 
L 170.710475 226.354032 
z
" clip-path="url(#p57daaaa2b8)" style="fill: #90ee90; fill-opacity: 0.7; stroke: #000000; stroke-opacity: 0.7"/>
    <path d="M 202.693132 224.885448 
L 206.063779 231.992928 
L 173.070766 242.713008 
L 171.890621 234.53352 
z
" clip-path="url(#p57daaaa2b8)" style="fill: #90ee90; fill-opacity: 0.7; stroke: #000000; stroke-opacity: 0.7"/>
    <path d="M 183.445313 160.918125 
L 188.513712 165.986525 
L 175.727959 168.025605 
L 172.357313 160.918125 
z
" clip-path="url(#p57daaaa2b8)" style="fill: #90ee90; fill-opacity: 0.7; stroke: #000000; stroke-opacity: 0.7"/>
    <path d="M 188.513712 165.986525 
L 193.582112 171.054925 
L 179.098606 175.133086 
L 175.727959 168.025605 
z
" clip-path="url(#p57daaaa2b8)" style="fill: #90ee90; fill-opacity: 0.7; stroke: #000000; stroke-opacity: 0.7"/>
    <path d="M 193.582112 171.054925 
L 198.650512 176.123325 
L 182.469252 182.240566 
L 179.098606 175.133086 
z
" clip-path="url(#p57daaaa2b8)" style="fill: #90ee90; fill-opacity: 0.7; stroke: #000000; stroke-opacity: 0.7"/>
    <path d="M 198.650512 176.123325 
L 203.718912 181.191725 
L 185.839899 189.348046 
L 182.469252 182.240566 
z
" clip-path="url(#p57daaaa2b8)" style="fill: #90ee90; fill-opacity: 0.7; stroke: #000000; stroke-opacity: 0.7"/>
    <path d="M 203.718912 181.191725 
L 208.787312 186.260125 
L 189.210546 196.455527 
L 185.839899 189.348046 
z
" clip-path="url(#p57daaaa2b8)" style="fill: #90ee90; fill-opacity: 0.7; stroke: #000000; stroke-opacity: 0.7"/>
    <path d="M 208.787312 186.260125 
L 213.855712 191.328525 
L 192.581192 203.563007 
L 189.210546 196.455527 
z
" clip-path="url(#p57daaaa2b8)" style="fill: #90ee90; fill-opacity: 0.7; stroke: #000000; stroke-opacity: 0.7"/>
    <path d="M 213.855712 191.328525 
L 218.924112 196.396925 
L 195.951839 210.670487 
L 192.581192 203.563007 
z
" clip-path="url(#p57daaaa2b8)" style="fill: #90ee90; fill-opacity: 0.7; stroke: #000000; stroke-opacity: 0.7"/>
    <path d="M 218.924112 196.396925 
L 223.992512 201.465325 
L 199.322486 217.777968 
L 195.951839 210.670487 
z
" clip-path="url(#p57daaaa2b8)" style="fill: #90ee90; fill-opacity: 0.7; stroke: #000000; stroke-opacity: 0.7"/>
    <path d="M 223.992512 201.465325 
L 229.060912 206.533725 
L 202.693132 224.885448 
L 199.322486 217.777968 
z
" clip-path="url(#p57daaaa2b8)" style="fill: #90ee90; fill-opacity: 0.7; stroke: #000000; stroke-opacity: 0.7"/>
    <path d="M 229.060912 206.533725 
L 234.129312 211.602125 
L 206.063779 231.992928 
L 202.693132 224.885448 
z
" clip-path="url(#p57daaaa2b8)" style="fill: #90ee90; fill-opacity: 0.7; stroke: #000000; stroke-opacity: 0.7"/>
    <path d="M 183.445313 149.830125 
L 190.552793 153.200772 
L 188.513712 165.986525 
L 183.445313 160.918125 
z
" clip-path="url(#p57daaaa2b8)" style="fill: #90ee90; fill-opacity: 0.7; stroke: #000000; stroke-opacity: 0.7"/>
    <path d="M 190.552793 153.200772 
L 197.660273 156.571418 
L 193.582112 171.054925 
L 188.513712 165.986525 
z
" clip-path="url(#p57daaaa2b8)" style="fill: #90ee90; fill-opacity: 0.7; stroke: #000000; stroke-opacity: 0.7"/>
    <path d="M 197.660273 156.571418 
L 204.767754 159.942065 
L 198.650512 176.123325 
L 193.582112 171.054925 
z
" clip-path="url(#p57daaaa2b8)" style="fill: #90ee90; fill-opacity: 0.7; stroke: #000000; stroke-opacity: 0.7"/>
    <path d="M 204.767754 159.942065 
L 211.875234 163.312712 
L 203.718912 181.191725 
L 198.650512 176.123325 
z
" clip-path="url(#p57daaaa2b8)" style="fill: #90ee90; fill-opacity: 0.7; stroke: #000000; stroke-opacity: 0.7"/>
    <path d="M 211.875234 163.312712 
L 218.982714 166.683358 
L 208.787312 186.260125 
L 203.718912 181.191725 
z
" clip-path="url(#p57daaaa2b8)" style="fill: #90ee90; fill-opacity: 0.7; stroke: #000000; stroke-opacity: 0.7"/>
    <path d="M 218.982714 166.683358 
L 226.090195 170.054005 
L 213.855712 191.328525 
L 208.787312 186.260125 
z
" clip-path="url(#p57daaaa2b8)" style="fill: #90ee90; fill-opacity: 0.7; stroke: #000000; stroke-opacity: 0.7"/>
    <path d="M 226.090195 170.054005 
L 233.197675 173.424652 
L 218.924112 196.396925 
L 213.855712 191.328525 
z
" clip-path="url(#p57daaaa2b8)" style="fill: #90ee90; fill-opacity: 0.7; stroke: #000000; stroke-opacity: 0.7"/>
    <path d="M 233.197675 173.424652 
L 240.305155 176.795298 
L 223.992512 201.465325 
L 218.924112 196.396925 
z
" clip-path="url(#p57daaaa2b8)" style="fill: #90ee90; fill-opacity: 0.7; stroke: #000000; stroke-opacity: 0.7"/>
    <path d="M 240.305155 176.795298 
L 247.412636 180.165945 
L 229.060912 206.533725 
L 223.992512 201.465325 
z
" clip-path="url(#p57daaaa2b8)" style="fill: #90ee90; fill-opacity: 0.7; stroke: #000000; stroke-opacity: 0.7"/>
    <path d="M 247.412636 180.165945 
L 254.520116 183.536592 
L 234.129312 211.602125 
L 229.060912 206.533725 
z
" clip-path="url(#p57daaaa2b8)" style="fill: #90ee90; fill-opacity: 0.7; stroke: #000000; stroke-opacity: 0.7"/>
    <path d="M 183.445313 138.742125 
L 191.624801 139.92227 
L 190.552793 153.200772 
L 183.445313 149.830125 
z
" clip-path="url(#p57daaaa2b8)" style="fill: #90ee90; fill-opacity: 0.7; stroke: #000000; stroke-opacity: 0.7"/>
    <path d="M 191.624801 139.92227 
L 199.804289 141.102416 
L 197.660273 156.571418 
L 190.552793 153.200772 
z
" clip-path="url(#p57daaaa2b8)" style="fill: #90ee90; fill-opacity: 0.7; stroke: #000000; stroke-opacity: 0.7"/>
    <path d="M 199.804289 141.102416 
L 207.983777 142.282561 
L 204.767754 159.942065 
L 197.660273 156.571418 
z
" clip-path="url(#p57daaaa2b8)" style="fill: #90ee90; fill-opacity: 0.7; stroke: #000000; stroke-opacity: 0.7"/>
    <path d="M 207.983777 142.282561 
L 216.163266 143.462706 
L 211.875234 163.312712 
L 204.767754 159.942065 
z
" clip-path="url(#p57daaaa2b8)" style="fill: #90ee90; fill-opacity: 0.7; stroke: #000000; stroke-opacity: 0.7"/>
    <path d="M 216.163266 143.462706 
L 224.342754 144.642852 
L 218.982714 166.683358 
L 211.875234 163.312712 
z
" clip-path="url(#p57daaaa2b8)" style="fill: #90ee90; fill-opacity: 0.7; stroke: #000000; stroke-opacity: 0.7"/>
    <path d="M 224.342754 144.642852 
L 232.522242 145.822997 
L 226.090195 170.054005 
L 218.982714 166.683358 
z
" clip-path="url(#p57daaaa2b8)" style="fill: #90ee90; fill-opacity: 0.7; stroke: #000000; stroke-opacity: 0.7"/>
    <path d="M 232.522242 145.822997 
L 240.701731 147.003142 
L 233.197675 173.424652 
L 226.090195 170.054005 
z
" clip-path="url(#p57daaaa2b8)" style="fill: #90ee90; fill-opacity: 0.7; stroke: #000000; stroke-opacity: 0.7"/>
    <path d="M 240.701731 147.003142 
L 248.881219 148.183288 
L 240.305155 176.795298 
L 233.197675 173.424652 
z
" clip-path="url(#p57daaaa2b8)" style="fill: #90ee90; fill-opacity: 0.7; stroke: #000000; stroke-opacity: 0.7"/>
    <path d="M 248.881219 148.183288 
L 257.060707 149.363433 
L 247.412636 180.165945 
L 240.305155 176.795298 
z
" clip-path="url(#p57daaaa2b8)" style="fill: #90ee90; fill-opacity: 0.7; stroke: #000000; stroke-opacity: 0.7"/>
    <path d="M 257.060707 149.363433 
L 265.240196 150.543578 
L 254.520116 183.536592 
L 247.412636 180.165945 
z
" clip-path="url(#p57daaaa2b8)" style="fill: #90ee90; fill-opacity: 0.7; stroke: #000000; stroke-opacity: 0.7"/>
    <path d="M 183.445313 127.654125 
L 191.624801 126.47398 
L 191.624801 139.92227 
L 183.445313 138.742125 
z
" clip-path="url(#p57daaaa2b8)" style="fill: #90ee90; fill-opacity: 0.7; stroke: #000000; stroke-opacity: 0.7"/>
    <path d="M 191.624801 126.47398 
L 199.804289 125.293834 
L 199.804289 141.102416 
L 191.624801 139.92227 
z
" clip-path="url(#p57daaaa2b8)" style="fill: #90ee90; fill-opacity: 0.7; stroke: #000000; stroke-opacity: 0.7"/>
    <path d="M 199.804289 125.293834 
L 207.983777 124.113689 
L 207.983777 142.282561 
L 199.804289 141.102416 
z
" clip-path="url(#p57daaaa2b8)" style="fill: #90ee90; fill-opacity: 0.7; stroke: #000000; stroke-opacity: 0.7"/>
    <path d="M 207.983777 124.113689 
L 216.163266 122.933544 
L 216.163266 143.462706 
L 207.983777 142.282561 
z
" clip-path="url(#p57daaaa2b8)" style="fill: #90ee90; fill-opacity: 0.7; stroke: #000000; stroke-opacity: 0.7"/>
    <path d="M 216.163266 122.933544 
L 224.342754 121.753398 
L 224.342754 144.642852 
L 216.163266 143.462706 
z
" clip-path="url(#p57daaaa2b8)" style="fill: #90ee90; fill-opacity: 0.7; stroke: #000000; stroke-opacity: 0.7"/>
    <path d="M 224.342754 121.753398 
L 232.522242 120.573253 
L 232.522242 145.822997 
L 224.342754 144.642852 
z
" clip-path="url(#p57daaaa2b8)" style="fill: #90ee90; fill-opacity: 0.7; stroke: #000000; stroke-opacity: 0.7"/>
    <path d="M 232.522242 120.573253 
L 240.701731 119.393108 
L 240.701731 147.003142 
L 232.522242 145.822997 
z
" clip-path="url(#p57daaaa2b8)" style="fill: #90ee90; fill-opacity: 0.7; stroke: #000000; stroke-opacity: 0.7"/>
    <path d="M 240.701731 119.393108 
L 248.881219 118.212962 
L 248.881219 148.183288 
L 240.701731 147.003142 
z
" clip-path="url(#p57daaaa2b8)" style="fill: #90ee90; fill-opacity: 0.7; stroke: #000000; stroke-opacity: 0.7"/>
    <path d="M 248.881219 118.212962 
L 257.060707 117.032817 
L 257.060707 149.363433 
L 248.881219 148.183288 
z
" clip-path="url(#p57daaaa2b8)" style="fill: #90ee90; fill-opacity: 0.7; stroke: #000000; stroke-opacity: 0.7"/>
    <path d="M 257.060707 117.032817 
L 265.240196 115.852672 
L 265.240196 150.543578 
L 257.060707 149.363433 
z
" clip-path="url(#p57daaaa2b8)" style="fill: #90ee90; fill-opacity: 0.7; stroke: #000000; stroke-opacity: 0.7"/>
    <path d="M 183.445313 116.566125 
L 190.552793 113.195478 
L 191.624801 126.47398 
L 183.445313 127.654125 
z
" clip-path="url(#p57daaaa2b8)" style="fill: #90ee90; fill-opacity: 0.7; stroke: #000000; stroke-opacity: 0.7"/>
    <path d="M 190.552793 113.195478 
L 197.660273 109.824832 
L 199.804289 125.293834 
L 191.624801 126.47398 
z
" clip-path="url(#p57daaaa2b8)" style="fill: #90ee90; fill-opacity: 0.7; stroke: #000000; stroke-opacity: 0.7"/>
    <path d="M 197.660273 109.824832 
L 204.767754 106.454185 
L 207.983777 124.113689 
L 199.804289 125.293834 
z
" clip-path="url(#p57daaaa2b8)" style="fill: #90ee90; fill-opacity: 0.7; stroke: #000000; stroke-opacity: 0.7"/>
    <path d="M 204.767754 106.454185 
L 211.875234 103.083538 
L 216.163266 122.933544 
L 207.983777 124.113689 
z
" clip-path="url(#p57daaaa2b8)" style="fill: #90ee90; fill-opacity: 0.7; stroke: #000000; stroke-opacity: 0.7"/>
    <path d="M 211.875234 103.083538 
L 218.982714 99.712892 
L 224.342754 121.753398 
L 216.163266 122.933544 
z
" clip-path="url(#p57daaaa2b8)" style="fill: #90ee90; fill-opacity: 0.7; stroke: #000000; stroke-opacity: 0.7"/>
    <path d="M 218.982714 99.712892 
L 226.090195 96.342245 
L 232.522242 120.573253 
L 224.342754 121.753398 
z
" clip-path="url(#p57daaaa2b8)" style="fill: #90ee90; fill-opacity: 0.7; stroke: #000000; stroke-opacity: 0.7"/>
    <path d="M 226.090195 96.342245 
L 233.197675 92.971598 
L 240.701731 119.393108 
L 232.522242 120.573253 
z
" clip-path="url(#p57daaaa2b8)" style="fill: #90ee90; fill-opacity: 0.7; stroke: #000000; stroke-opacity: 0.7"/>
    <path d="M 233.197675 92.971598 
L 240.305155 89.600952 
L 248.881219 118.212962 
L 240.701731 119.393108 
z
" clip-path="url(#p57daaaa2b8)" style="fill: #90ee90; fill-opacity: 0.7; stroke: #000000; stroke-opacity: 0.7"/>
    <path d="M 240.305155 89.600952 
L 247.412636 86.230305 
L 257.060707 117.032817 
L 248.881219 118.212962 
z
" clip-path="url(#p57daaaa2b8)" style="fill: #90ee90; fill-opacity: 0.7; stroke: #000000; stroke-opacity: 0.7"/>
    <path d="M 247.412636 86.230305 
L 254.520116 82.859658 
L 265.240196 115.852672 
L 257.060707 117.032817 
z
" clip-path="url(#p57daaaa2b8)" style="fill: #90ee90; fill-opacity: 0.7; stroke: #000000; stroke-opacity: 0.7"/>
    <path d="M 183.445313 105.478125 
L 188.513712 100.409725 
L 190.552793 113.195478 
L 183.445313 116.566125 
z
" clip-path="url(#p57daaaa2b8)" style="fill: #90ee90; fill-opacity: 0.7; stroke: #000000; stroke-opacity: 0.7"/>
    <path d="M 188.513712 100.409725 
L 193.582112 95.341325 
L 197.660273 109.824832 
L 190.552793 113.195478 
z
" clip-path="url(#p57daaaa2b8)" style="fill: #90ee90; fill-opacity: 0.7; stroke: #000000; stroke-opacity: 0.7"/>
    <path d="M 193.582112 95.341325 
L 198.650512 90.272925 
L 204.767754 106.454185 
L 197.660273 109.824832 
z
" clip-path="url(#p57daaaa2b8)" style="fill: #90ee90; fill-opacity: 0.7; stroke: #000000; stroke-opacity: 0.7"/>
    <path d="M 198.650512 90.272925 
L 203.718912 85.204525 
L 211.875234 103.083538 
L 204.767754 106.454185 
z
" clip-path="url(#p57daaaa2b8)" style="fill: #90ee90; fill-opacity: 0.7; stroke: #000000; stroke-opacity: 0.7"/>
    <path d="M 203.718912 85.204525 
L 208.787312 80.136125 
L 218.982714 99.712892 
L 211.875234 103.083538 
z
" clip-path="url(#p57daaaa2b8)" style="fill: #90ee90; fill-opacity: 0.7; stroke: #000000; stroke-opacity: 0.7"/>
    <path d="M 208.787312 80.136125 
L 213.855712 75.067725 
L 226.090195 96.342245 
L 218.982714 99.712892 
z
" clip-path="url(#p57daaaa2b8)" style="fill: #90ee90; fill-opacity: 0.7; stroke: #000000; stroke-opacity: 0.7"/>
    <path d="M 213.855712 75.067725 
L 218.924112 69.999325 
L 233.197675 92.971598 
L 226.090195 96.342245 
z
" clip-path="url(#p57daaaa2b8)" style="fill: #90ee90; fill-opacity: 0.7; stroke: #000000; stroke-opacity: 0.7"/>
    <path d="M 218.924112 69.999325 
L 223.992512 64.930925 
L 240.305155 89.600952 
L 233.197675 92.971598 
z
" clip-path="url(#p57daaaa2b8)" style="fill: #90ee90; fill-opacity: 0.7; stroke: #000000; stroke-opacity: 0.7"/>
    <path d="M 223.992512 64.930925 
L 229.060912 59.862525 
L 247.412636 86.230305 
L 240.305155 89.600952 
z
" clip-path="url(#p57daaaa2b8)" style="fill: #90ee90; fill-opacity: 0.7; stroke: #000000; stroke-opacity: 0.7"/>
    <path d="M 229.060912 59.862525 
L 234.129312 54.794125 
L 254.520116 82.859658 
L 247.412636 86.230305 
z
" clip-path="url(#p57daaaa2b8)" style="fill: #90ee90; fill-opacity: 0.7; stroke: #000000; stroke-opacity: 0.7"/>
   </g>
   <g id="matplotlib.axis_1">
    <g id="xtick_1">
     <g id="line2d_1">
      <defs>
       <path id="maf8058cc12" d="M 0 0 
L 0 3.5 
" style="stroke: #000000; stroke-width: 0.8"/>
      </defs>
      <g>
       <use xlink:href="#maf8058cc12" x="44.845313" y="244.078125" style="stroke: #000000; stroke-width: 0.8"/>
      </g>
     </g>
     <g id="text_1">
      <!-- 1.0 -->
      <g transform="translate(32.703906 258.676562) scale(0.1 -0.1)">
       <defs>
        <path id="DejaVuSans-2212" d="M 678 2272 
L 4684 2272 
L 4684 1741 
L 678 1741 
L 678 2272 
z
" transform="scale(0.015625)"/>
        <path id="DejaVuSans-31" d="M 794 531 
L 1825 531 
L 1825 4091 
L 703 3866 
L 703 4441 
L 1819 4666 
L 2450 4666 
L 2450 531 
L 3481 531 
L 3481 0 
L 794 0 
L 794 531 
z
" transform="scale(0.015625)"/>
        <path id="DejaVuSans-2e" d="M 684 794 
L 1344 794 
L 1344 0 
L 684 0 
L 684 794 
z
" transform="scale(0.015625)"/>
        <path id="DejaVuSans-30" d="M 2034 4250 
Q 1547 4250 1301 3770 
Q 1056 3291 1056 2328 
Q 1056 1369 1301 889 
Q 1547 409 2034 409 
Q 2525 409 2770 889 
Q 3016 1369 3016 2328 
Q 3016 3291 2770 3770 
Q 2525 4250 2034 4250 
z
M 2034 4750 
Q 2819 4750 3233 4129 
Q 3647 3509 3647 2328 
Q 3647 1150 3233 529 
Q 2819 -91 2034 -91 
Q 1250 -91 836 529 
Q 422 1150 422 2328 
Q 422 3509 836 4129 
Q 1250 4750 2034 4750 
z
" transform="scale(0.015625)"/>
       </defs>
       <use xlink:href="#DejaVuSans-2212"/>
       <use xlink:href="#DejaVuSans-31" transform="translate(83.789062 0)"/>
       <use xlink:href="#DejaVuSans-2e" transform="translate(147.412109 0)"/>
       <use xlink:href="#DejaVuSans-30" transform="translate(179.199219 0)"/>
      </g>
     </g>
    </g>
    <g id="xtick_2">
     <g id="line2d_2">
      <g>
       <use xlink:href="#maf8058cc12" x="100.285313" y="244.078125" style="stroke: #000000; stroke-width: 0.8"/>
      </g>
     </g>
     <g id="text_2">
      <!-- 0.5 -->
      <g transform="translate(88.143906 258.676562) scale(0.1 -0.1)">
       <defs>
        <path id="DejaVuSans-35" d="M 691 4666 
L 3169 4666 
L 3169 4134 
L 1269 4134 
L 1269 2991 
Q 1406 3038 1543 3061 
Q 1681 3084 1819 3084 
Q 2600 3084 3056 2656 
Q 3513 2228 3513 1497 
Q 3513 744 3044 326 
Q 2575 -91 1722 -91 
Q 1428 -91 1123 -41 
Q 819 9 494 109 
L 494 744 
Q 775 591 1075 516 
Q 1375 441 1709 441 
Q 2250 441 2565 725 
Q 2881 1009 2881 1497 
Q 2881 1984 2565 2268 
Q 2250 2553 1709 2553 
Q 1456 2553 1204 2497 
Q 953 2441 691 2322 
L 691 4666 
z
" transform="scale(0.015625)"/>
       </defs>
       <use xlink:href="#DejaVuSans-2212"/>
       <use xlink:href="#DejaVuSans-30" transform="translate(83.789062 0)"/>
       <use xlink:href="#DejaVuSans-2e" transform="translate(147.412109 0)"/>
       <use xlink:href="#DejaVuSans-35" transform="translate(179.199219 0)"/>
      </g>
     </g>
    </g>
    <g id="xtick_3">
     <g id="line2d_3">
      <g>
       <use xlink:href="#maf8058cc12" x="155.725313" y="244.078125" style="stroke: #000000; stroke-width: 0.8"/>
      </g>
     </g>
     <g id="text_3">
      <!-- 0.0 -->
      <g transform="translate(147.77375 258.676562) scale(0.1 -0.1)">
       <use xlink:href="#DejaVuSans-30"/>
       <use xlink:href="#DejaVuSans-2e" transform="translate(63.623047 0)"/>
       <use xlink:href="#DejaVuSans-30" transform="translate(95.410156 0)"/>
      </g>
     </g>
    </g>
    <g id="xtick_4">
     <g id="line2d_4">
      <g>
       <use xlink:href="#maf8058cc12" x="211.165313" y="244.078125" style="stroke: #000000; stroke-width: 0.8"/>
      </g>
     </g>
     <g id="text_4">
      <!-- 0.5 -->
      <g transform="translate(203.21375 258.676562) scale(0.1 -0.1)">
       <use xlink:href="#DejaVuSans-30"/>
       <use xlink:href="#DejaVuSans-2e" transform="translate(63.623047 0)"/>
       <use xlink:href="#DejaVuSans-35" transform="translate(95.410156 0)"/>
      </g>
     </g>
    </g>
    <g id="xtick_5">
     <g id="line2d_5">
      <g>
       <use xlink:href="#maf8058cc12" x="266.605313" y="244.078125" style="stroke: #000000; stroke-width: 0.8"/>
      </g>
     </g>
     <g id="text_5">
      <!-- 1.0 -->
      <g transform="translate(258.65375 258.676562) scale(0.1 -0.1)">
       <use xlink:href="#DejaVuSans-31"/>
       <use xlink:href="#DejaVuSans-2e" transform="translate(63.623047 0)"/>
       <use xlink:href="#DejaVuSans-30" transform="translate(95.410156 0)"/>
      </g>
     </g>
    </g>
   </g>
   <g id="matplotlib.axis_2">
    <g id="ytick_1">
     <g id="line2d_6">
      <defs>
       <path id="m1ffe865d54" d="M 0 0 
L -3.5 0 
" style="stroke: #000000; stroke-width: 0.8"/>
      </defs>
      <g>
       <use xlink:href="#m1ffe865d54" x="44.845313" y="244.078125" style="stroke: #000000; stroke-width: 0.8"/>
      </g>
     </g>
     <g id="text_6">
      <!-- 1.00 -->
      <g transform="translate(7.2 247.877344) scale(0.1 -0.1)">
       <use xlink:href="#DejaVuSans-2212"/>
       <use xlink:href="#DejaVuSans-31" transform="translate(83.789062 0)"/>
       <use xlink:href="#DejaVuSans-2e" transform="translate(147.412109 0)"/>
       <use xlink:href="#DejaVuSans-30" transform="translate(179.199219 0)"/>
       <use xlink:href="#DejaVuSans-30" transform="translate(242.822266 0)"/>
      </g>
     </g>
    </g>
    <g id="ytick_2">
     <g id="line2d_7">
      <g>
       <use xlink:href="#m1ffe865d54" x="44.845313" y="216.358125" style="stroke: #000000; stroke-width: 0.8"/>
      </g>
     </g>
     <g id="text_7">
      <!-- 0.75 -->
      <g transform="translate(7.2 220.157344) scale(0.1 -0.1)">
       <defs>
        <path id="DejaVuSans-37" d="M 525 4666 
L 3525 4666 
L 3525 4397 
L 1831 0 
L 1172 0 
L 2766 4134 
L 525 4134 
L 525 4666 
z
" transform="scale(0.015625)"/>
       </defs>
       <use xlink:href="#DejaVuSans-2212"/>
       <use xlink:href="#DejaVuSans-30" transform="translate(83.789062 0)"/>
       <use xlink:href="#DejaVuSans-2e" transform="translate(147.412109 0)"/>
       <use xlink:href="#DejaVuSans-37" transform="translate(179.199219 0)"/>
       <use xlink:href="#DejaVuSans-35" transform="translate(242.822266 0)"/>
      </g>
     </g>
    </g>
    <g id="ytick_3">
     <g id="line2d_8">
      <g>
       <use xlink:href="#m1ffe865d54" x="44.845313" y="188.638125" style="stroke: #000000; stroke-width: 0.8"/>
      </g>
     </g>
     <g id="text_8">
      <!-- 0.50 -->
      <g transform="translate(7.2 192.437344) scale(0.1 -0.1)">
       <use xlink:href="#DejaVuSans-2212"/>
       <use xlink:href="#DejaVuSans-30" transform="translate(83.789062 0)"/>
       <use xlink:href="#DejaVuSans-2e" transform="translate(147.412109 0)"/>
       <use xlink:href="#DejaVuSans-35" transform="translate(179.199219 0)"/>
       <use xlink:href="#DejaVuSans-30" transform="translate(242.822266 0)"/>
      </g>
     </g>
    </g>
    <g id="ytick_4">
     <g id="line2d_9">
      <g>
       <use xlink:href="#m1ffe865d54" x="44.845313" y="160.918125" style="stroke: #000000; stroke-width: 0.8"/>
      </g>
     </g>
     <g id="text_9">
      <!-- 0.25 -->
      <g transform="translate(7.2 164.717344) scale(0.1 -0.1)">
       <defs>
        <path id="DejaVuSans-32" d="M 1228 531 
L 3431 531 
L 3431 0 
L 469 0 
L 469 531 
Q 828 903 1448 1529 
Q 2069 2156 2228 2338 
Q 2531 2678 2651 2914 
Q 2772 3150 2772 3378 
Q 2772 3750 2511 3984 
Q 2250 4219 1831 4219 
Q 1534 4219 1204 4116 
Q 875 4013 500 3803 
L 500 4441 
Q 881 4594 1212 4672 
Q 1544 4750 1819 4750 
Q 2544 4750 2975 4387 
Q 3406 4025 3406 3419 
Q 3406 3131 3298 2873 
Q 3191 2616 2906 2266 
Q 2828 2175 2409 1742 
Q 1991 1309 1228 531 
z
" transform="scale(0.015625)"/>
       </defs>
       <use xlink:href="#DejaVuSans-2212"/>
       <use xlink:href="#DejaVuSans-30" transform="translate(83.789062 0)"/>
       <use xlink:href="#DejaVuSans-2e" transform="translate(147.412109 0)"/>
       <use xlink:href="#DejaVuSans-32" transform="translate(179.199219 0)"/>
       <use xlink:href="#DejaVuSans-35" transform="translate(242.822266 0)"/>
      </g>
     </g>
    </g>
    <g id="ytick_5">
     <g id="line2d_10">
      <g>
       <use xlink:href="#m1ffe865d54" x="44.845313" y="133.198125" style="stroke: #000000; stroke-width: 0.8"/>
      </g>
     </g>
     <g id="text_10">
      <!-- 0.00 -->
      <g transform="translate(15.579688 136.997344) scale(0.1 -0.1)">
       <use xlink:href="#DejaVuSans-30"/>
       <use xlink:href="#DejaVuSans-2e" transform="translate(63.623047 0)"/>
       <use xlink:href="#DejaVuSans-30" transform="translate(95.410156 0)"/>
       <use xlink:href="#DejaVuSans-30" transform="translate(159.033203 0)"/>
      </g>
     </g>
    </g>
    <g id="ytick_6">
     <g id="line2d_11">
      <g>
       <use xlink:href="#m1ffe865d54" x="44.845313" y="105.478125" style="stroke: #000000; stroke-width: 0.8"/>
      </g>
     </g>
     <g id="text_11">
      <!-- 0.25 -->
      <g transform="translate(15.579688 109.277344) scale(0.1 -0.1)">
       <use xlink:href="#DejaVuSans-30"/>
       <use xlink:href="#DejaVuSans-2e" transform="translate(63.623047 0)"/>
       <use xlink:href="#DejaVuSans-32" transform="translate(95.410156 0)"/>
       <use xlink:href="#DejaVuSans-35" transform="translate(159.033203 0)"/>
      </g>
     </g>
    </g>
    <g id="ytick_7">
     <g id="line2d_12">
      <g>
       <use xlink:href="#m1ffe865d54" x="44.845313" y="77.758125" style="stroke: #000000; stroke-width: 0.8"/>
      </g>
     </g>
     <g id="text_12">
      <!-- 0.50 -->
      <g transform="translate(15.579688 81.557344) scale(0.1 -0.1)">
       <use xlink:href="#DejaVuSans-30"/>
       <use xlink:href="#DejaVuSans-2e" transform="translate(63.623047 0)"/>
       <use xlink:href="#DejaVuSans-35" transform="translate(95.410156 0)"/>
       <use xlink:href="#DejaVuSans-30" transform="translate(159.033203 0)"/>
      </g>
     </g>
    </g>
    <g id="ytick_8">
     <g id="line2d_13">
      <g>
       <use xlink:href="#m1ffe865d54" x="44.845313" y="50.038125" style="stroke: #000000; stroke-width: 0.8"/>
      </g>
     </g>
     <g id="text_13">
      <!-- 0.75 -->
      <g transform="translate(15.579688 53.837344) scale(0.1 -0.1)">
       <use xlink:href="#DejaVuSans-30"/>
       <use xlink:href="#DejaVuSans-2e" transform="translate(63.623047 0)"/>
       <use xlink:href="#DejaVuSans-37" transform="translate(95.410156 0)"/>
       <use xlink:href="#DejaVuSans-35" transform="translate(159.033203 0)"/>
      </g>
     </g>
    </g>
    <g id="ytick_9">
     <g id="line2d_14">
      <g>
       <use xlink:href="#m1ffe865d54" x="44.845313" y="22.318125" style="stroke: #000000; stroke-width: 0.8"/>
      </g>
     </g>
     <g id="text_14">
      <!-- 1.00 -->
      <g transform="translate(15.579688 26.117344) scale(0.1 -0.1)">
       <use xlink:href="#DejaVuSans-31"/>
       <use xlink:href="#DejaVuSans-2e" transform="translate(63.623047 0)"/>
       <use xlink:href="#DejaVuSans-30" transform="translate(95.410156 0)"/>
       <use xlink:href="#DejaVuSans-30" transform="translate(159.033203 0)"/>
      </g>
     </g>
    </g>
   </g>
   <g id="patch_3">
    <path d="M 44.845313 244.078125 
L 44.845313 22.318125 
" style="fill: none; stroke: #000000; stroke-width: 0.8; stroke-linejoin: miter; stroke-linecap: square"/>
   </g>
   <g id="patch_4">
    <path d="M 266.605313 244.078125 
L 266.605313 22.318125 
" style="fill: none; stroke: #000000; stroke-width: 0.8; stroke-linejoin: miter; stroke-linecap: square"/>
   </g>
   <g id="patch_5">
    <path d="M 44.845313 244.078125 
L 266.605313 244.078125 
" style="fill: none; stroke: #000000; stroke-width: 0.8; stroke-linejoin: miter; stroke-linecap: square"/>
   </g>
   <g id="patch_6">
    <path d="M 44.845313 22.318125 
L 266.605313 22.318125 
" style="fill: none; stroke: #000000; stroke-width: 0.8; stroke-linejoin: miter; stroke-linecap: square"/>
   </g>
   <g id="text_15">
    <!-- Square-Centered Disk Mesh -->
    <g transform="translate(72.381563 16.318125) scale(0.12 -0.12)">
     <defs>
      <path id="DejaVuSans-53" d="M 3425 4513 
L 3425 3897 
Q 3066 4069 2747 4153 
Q 2428 4238 2131 4238 
Q 1616 4238 1336 4038 
Q 1056 3838 1056 3469 
Q 1056 3159 1242 3001 
Q 1428 2844 1947 2747 
L 2328 2669 
Q 3034 2534 3370 2195 
Q 3706 1856 3706 1288 
Q 3706 609 3251 259 
Q 2797 -91 1919 -91 
Q 1588 -91 1214 -16 
Q 841 59 441 206 
L 441 856 
Q 825 641 1194 531 
Q 1563 422 1919 422 
Q 2459 422 2753 634 
Q 3047 847 3047 1241 
Q 3047 1584 2836 1778 
Q 2625 1972 2144 2069 
L 1759 2144 
Q 1053 2284 737 2584 
Q 422 2884 422 3419 
Q 422 4038 858 4394 
Q 1294 4750 2059 4750 
Q 2388 4750 2728 4690 
Q 3069 4631 3425 4513 
z
" transform="scale(0.015625)"/>
      <path id="DejaVuSans-71" d="M 947 1747 
Q 947 1113 1208 752 
Q 1469 391 1925 391 
Q 2381 391 2643 752 
Q 2906 1113 2906 1747 
Q 2906 2381 2643 2742 
Q 2381 3103 1925 3103 
Q 1469 3103 1208 2742 
Q 947 2381 947 1747 
z
M 2906 525 
Q 2725 213 2448 61 
Q 2172 -91 1784 -91 
Q 1150 -91 751 415 
Q 353 922 353 1747 
Q 353 2572 751 3078 
Q 1150 3584 1784 3584 
Q 2172 3584 2448 3432 
Q 2725 3281 2906 2969 
L 2906 3500 
L 3481 3500 
L 3481 -1331 
L 2906 -1331 
L 2906 525 
z
" transform="scale(0.015625)"/>
      <path id="DejaVuSans-75" d="M 544 1381 
L 544 3500 
L 1119 3500 
L 1119 1403 
Q 1119 906 1312 657 
Q 1506 409 1894 409 
Q 2359 409 2629 706 
Q 2900 1003 2900 1516 
L 2900 3500 
L 3475 3500 
L 3475 0 
L 2900 0 
L 2900 538 
Q 2691 219 2414 64 
Q 2138 -91 1772 -91 
Q 1169 -91 856 284 
Q 544 659 544 1381 
z
M 1991 3584 
L 1991 3584 
z
" transform="scale(0.015625)"/>
      <path id="DejaVuSans-61" d="M 2194 1759 
Q 1497 1759 1228 1600 
Q 959 1441 959 1056 
Q 959 750 1161 570 
Q 1363 391 1709 391 
Q 2188 391 2477 730 
Q 2766 1069 2766 1631 
L 2766 1759 
L 2194 1759 
z
M 3341 1997 
L 3341 0 
L 2766 0 
L 2766 531 
Q 2569 213 2275 61 
Q 1981 -91 1556 -91 
Q 1019 -91 701 211 
Q 384 513 384 1019 
Q 384 1609 779 1909 
Q 1175 2209 1959 2209 
L 2766 2209 
L 2766 2266 
Q 2766 2663 2505 2880 
Q 2244 3097 1772 3097 
Q 1472 3097 1187 3025 
Q 903 2953 641 2809 
L 641 3341 
Q 956 3463 1253 3523 
Q 1550 3584 1831 3584 
Q 2591 3584 2966 3190 
Q 3341 2797 3341 1997 
z
" transform="scale(0.015625)"/>
      <path id="DejaVuSans-72" d="M 2631 2963 
Q 2534 3019 2420 3045 
Q 2306 3072 2169 3072 
Q 1681 3072 1420 2755 
Q 1159 2438 1159 1844 
L 1159 0 
L 581 0 
L 581 3500 
L 1159 3500 
L 1159 2956 
Q 1341 3275 1631 3429 
Q 1922 3584 2338 3584 
Q 2397 3584 2469 3576 
Q 2541 3569 2628 3553 
L 2631 2963 
z
" transform="scale(0.015625)"/>
      <path id="DejaVuSans-65" d="M 3597 1894 
L 3597 1613 
L 953 1613 
Q 991 1019 1311 708 
Q 1631 397 2203 397 
Q 2534 397 2845 478 
Q 3156 559 3463 722 
L 3463 178 
Q 3153 47 2828 -22 
Q 2503 -91 2169 -91 
Q 1331 -91 842 396 
Q 353 884 353 1716 
Q 353 2575 817 3079 
Q 1281 3584 2069 3584 
Q 2775 3584 3186 3129 
Q 3597 2675 3597 1894 
z
M 3022 2063 
Q 3016 2534 2758 2815 
Q 2500 3097 2075 3097 
Q 1594 3097 1305 2825 
Q 1016 2553 972 2059 
L 3022 2063 
z
" transform="scale(0.015625)"/>
      <path id="DejaVuSans-2d" d="M 313 2009 
L 1997 2009 
L 1997 1497 
L 313 1497 
L 313 2009 
z
" transform="scale(0.015625)"/>
      <path id="DejaVuSans-43" d="M 4122 4306 
L 4122 3641 
Q 3803 3938 3442 4084 
Q 3081 4231 2675 4231 
Q 1875 4231 1450 3742 
Q 1025 3253 1025 2328 
Q 1025 1406 1450 917 
Q 1875 428 2675 428 
Q 3081 428 3442 575 
Q 3803 722 4122 1019 
L 4122 359 
Q 3791 134 3420 21 
Q 3050 -91 2638 -91 
Q 1578 -91 968 557 
Q 359 1206 359 2328 
Q 359 3453 968 4101 
Q 1578 4750 2638 4750 
Q 3056 4750 3426 4639 
Q 3797 4528 4122 4306 
z
" transform="scale(0.015625)"/>
      <path id="DejaVuSans-6e" d="M 3513 2113 
L 3513 0 
L 2938 0 
L 2938 2094 
Q 2938 2591 2744 2837 
Q 2550 3084 2163 3084 
Q 1697 3084 1428 2787 
Q 1159 2491 1159 1978 
L 1159 0 
L 581 0 
L 581 3500 
L 1159 3500 
L 1159 2956 
Q 1366 3272 1645 3428 
Q 1925 3584 2291 3584 
Q 2894 3584 3203 3211 
Q 3513 2838 3513 2113 
z
" transform="scale(0.015625)"/>
      <path id="DejaVuSans-74" d="M 1172 4494 
L 1172 3500 
L 2356 3500 
L 2356 3053 
L 1172 3053 
L 1172 1153 
Q 1172 725 1289 603 
Q 1406 481 1766 481 
L 2356 481 
L 2356 0 
L 1766 0 
Q 1100 0 847 248 
Q 594 497 594 1153 
L 594 3053 
L 172 3053 
L 172 3500 
L 594 3500 
L 594 4494 
L 1172 4494 
z
" transform="scale(0.015625)"/>
      <path id="DejaVuSans-64" d="M 2906 2969 
L 2906 4863 
L 3481 4863 
L 3481 0 
L 2906 0 
L 2906 525 
Q 2725 213 2448 61 
Q 2172 -91 1784 -91 
Q 1150 -91 751 415 
Q 353 922 353 1747 
Q 353 2572 751 3078 
Q 1150 3584 1784 3584 
Q 2172 3584 2448 3432 
Q 2725 3281 2906 2969 
z
M 947 1747 
Q 947 1113 1208 752 
Q 1469 391 1925 391 
Q 2381 391 2643 752 
Q 2906 1113 2906 1747 
Q 2906 2381 2643 2742 
Q 2381 3103 1925 3103 
Q 1469 3103 1208 2742 
Q 947 2381 947 1747 
z
" transform="scale(0.015625)"/>
      <path id="DejaVuSans-20" transform="scale(0.015625)"/>
      <path id="DejaVuSans-44" d="M 1259 4147 
L 1259 519 
L 2022 519 
Q 2988 519 3436 956 
Q 3884 1394 3884 2338 
Q 3884 3275 3436 3711 
Q 2988 4147 2022 4147 
L 1259 4147 
z
M 628 4666 
L 1925 4666 
Q 3281 4666 3915 4102 
Q 4550 3538 4550 2338 
Q 4550 1131 3912 565 
Q 3275 0 1925 0 
L 628 0 
L 628 4666 
z
" transform="scale(0.015625)"/>
      <path id="DejaVuSans-69" d="M 603 3500 
L 1178 3500 
L 1178 0 
L 603 0 
L 603 3500 
z
M 603 4863 
L 1178 4863 
L 1178 4134 
L 603 4134 
L 603 4863 
z
" transform="scale(0.015625)"/>
      <path id="DejaVuSans-73" d="M 2834 3397 
L 2834 2853 
Q 2591 2978 2328 3040 
Q 2066 3103 1784 3103 
Q 1356 3103 1142 2972 
Q 928 2841 928 2578 
Q 928 2378 1081 2264 
Q 1234 2150 1697 2047 
L 1894 2003 
Q 2506 1872 2764 1633 
Q 3022 1394 3022 966 
Q 3022 478 2636 193 
Q 2250 -91 1575 -91 
Q 1294 -91 989 -36 
Q 684 19 347 128 
L 347 722 
Q 666 556 975 473 
Q 1284 391 1588 391 
Q 1994 391 2212 530 
Q 2431 669 2431 922 
Q 2431 1156 2273 1281 
Q 2116 1406 1581 1522 
L 1381 1569 
Q 847 1681 609 1914 
Q 372 2147 372 2553 
Q 372 3047 722 3315 
Q 1072 3584 1716 3584 
Q 2034 3584 2315 3537 
Q 2597 3491 2834 3397 
z
" transform="scale(0.015625)"/>
      <path id="DejaVuSans-6b" d="M 581 4863 
L 1159 4863 
L 1159 1991 
L 2875 3500 
L 3609 3500 
L 1753 1863 
L 3688 0 
L 2938 0 
L 1159 1709 
L 1159 0 
L 581 0 
L 581 4863 
z
" transform="scale(0.015625)"/>
      <path id="DejaVuSans-4d" d="M 628 4666 
L 1569 4666 
L 2759 1491 
L 3956 4666 
L 4897 4666 
L 4897 0 
L 4281 0 
L 4281 4097 
L 3078 897 
L 2444 897 
L 1241 4097 
L 1241 0 
L 628 0 
L 628 4666 
z
" transform="scale(0.015625)"/>
      <path id="DejaVuSans-68" d="M 3513 2113 
L 3513 0 
L 2938 0 
L 2938 2094 
Q 2938 2591 2744 2837 
Q 2550 3084 2163 3084 
Q 1697 3084 1428 2787 
Q 1159 2491 1159 1978 
L 1159 0 
L 581 0 
L 581 4863 
L 1159 4863 
L 1159 2956 
Q 1366 3272 1645 3428 
Q 1925 3584 2291 3584 
Q 2894 3584 3203 3211 
Q 3513 2838 3513 2113 
z
" transform="scale(0.015625)"/>
     </defs>
     <use xlink:href="#DejaVuSans-53"/>
     <use xlink:href="#DejaVuSans-71" transform="translate(63.476562 0)"/>
     <use xlink:href="#DejaVuSans-75" transform="translate(126.953125 0)"/>
     <use xlink:href="#DejaVuSans-61" transform="translate(190.332031 0)"/>
     <use xlink:href="#DejaVuSans-72" transform="translate(251.611328 0)"/>
     <use xlink:href="#DejaVuSans-65" transform="translate(290.474609 0)"/>
     <use xlink:href="#DejaVuSans-2d" transform="translate(351.998047 0)"/>
     <use xlink:href="#DejaVuSans-43" transform="translate(388.082031 0)"/>
     <use xlink:href="#DejaVuSans-65" transform="translate(457.90625 0)"/>
     <use xlink:href="#DejaVuSans-6e" transform="translate(519.429688 0)"/>
     <use xlink:href="#DejaVuSans-74" transform="translate(582.808594 0)"/>
     <use xlink:href="#DejaVuSans-65" transform="translate(622.017578 0)"/>
     <use xlink:href="#DejaVuSans-72" transform="translate(683.541016 0)"/>
     <use xlink:href="#DejaVuSans-65" transform="translate(722.404297 0)"/>
     <use xlink:href="#DejaVuSans-64" transform="translate(783.927734 0)"/>
     <use xlink:href="#DejaVuSans-20" transform="translate(847.404297 0)"/>
     <use xlink:href="#DejaVuSans-44" transform="translate(879.191406 0)"/>
     <use xlink:href="#DejaVuSans-69" transform="translate(956.193359 0)"/>
     <use xlink:href="#DejaVuSans-73" transform="translate(983.976562 0)"/>
     <use xlink:href="#DejaVuSans-6b" transform="translate(1036.076172 0)"/>
     <use xlink:href="#DejaVuSans-20" transform="translate(1093.986328 0)"/>
     <use xlink:href="#DejaVuSans-4d" transform="translate(1125.773438 0)"/>
     <use xlink:href="#DejaVuSans-65" transform="translate(1212.052734 0)"/>
     <use xlink:href="#DejaVuSans-73" transform="translate(1273.576172 0)"/>
     <use xlink:href="#DejaVuSans-68" transform="translate(1325.675781 0)"/>
    </g>
   </g>
  </g>
 </g>
 <defs>
  <clipPath id="p57daaaa2b8">
   <rect x="44.845313" y="22.318125" width="221.76" height="221.76"/>
  </clipPath>
 </defs>
</svg>
